<?xml version="1.0" standalone="no"?>
<!DOCTYPE svg PUBLIC "-//W3C//DTD SVG 1.1//EN" "http://www.w3.org/Graphics/SVG/1.1/DTD/svg11.dtd" >
<svg xmlns="http://www.w3.org/2000/svg" xmlns:xlink="http://www.w3.org/1999/xlink" version="1.1">
<metadata>
Created by FontForge 20170924 at Sun Sep 26 06:55:31 2004
 By www-data
Copyright (c) 1992 Adobe Systems Incorporated.  All Rights Reserved.Palace Script is a trademark of The Monotype Corporation plc registered in certain countries.
</metadata>
<defs>
<font id="PalaceScriptMT" horiz-adv-x="333" >
  <font-face 
    font-family="Palace Script MT"
    font-weight="400"
    font-style="italic"
    font-stretch="normal"
    units-per-em="1000"
    panose-1="2 0 5 6 8 0 0 9 0 2"
    ascent="800"
    descent="-200"
    x-height="170"
    cap-height="529"
    bbox="-291 -263 1128 750"
    underline-thickness="50"
    underline-position="-125"
    slope="-42"
    unicode-range="U+0020-FB02"
  />
<missing-glyph horiz-adv-x="160" 
 />
    <glyph glyph-name=".notdef" horiz-adv-x="160" 
 />
    <glyph glyph-name=".null" horiz-adv-x="0" 
 />
    <glyph glyph-name="nonmarkingreturn" horiz-adv-x="160" 
 />
    <glyph glyph-name="space" unicode=" " horiz-adv-x="160" 
 />
    <glyph glyph-name="space" unicode="&#xa0;" horiz-adv-x="160" 
 />
    <glyph glyph-name="dollar" unicode="$" horiz-adv-x="313" 
d="M259 299q-26 -1 -41.5 -4.5t-30.5 -13.5q-20 -14 -31.5 -36.5t-11.5 -48.5q0 -6 0.5 -13.5t1.5 -17.5l-67 -79q-16 12 -31 12q-21 0 -35.5 -16.5t-16.5 -42.5q1 -12 3 -19t9 -18l-35 -40l5 -6l34 41q12 -17 42 -26l-38 -46l4 -4l42 50q35 0 56 5.5t38 19.5q35 27 35 82
q0 7 -1 17t-3 24l59 70q16 -11 31 -11q20 0 34 16.5t14 39.5q0 14 -3.5 21.5t-7.5 12.5l36 45l-3 3l-37 -42q-9 11 -20 16.5t-23 7.5l36 44l-4 2zM308 262q5 -2 8 -10.5t3 -19.5q0 -19 -13.5 -33t-31.5 -14q-6 0 -14 4q15 5 16 17q0 6 -4 14zM266 222q-15 5 -22 -6.5
t0 -20.5l-59 -68l-11 62l87 103q15 -3 24.5 -8t20.5 -16zM12 8q-5 10 -6 15.5t-2 15.5q2 23 13.5 37t29.5 14q8 0 19 -5q-9 -2 -12.5 -7t-4.5 -10q0 -7 5 -12zM61 -21q-26 0 -44 24l43 49q10 -3 17.5 2.5t7.5 16.5q0 3 -0.5 4.5t-1.5 5.5l63 74q5 -22 7 -33t6 -27zM172 196
q2 50 21 72q19 23 62 26zM160 87q1 -6 1.5 -10t0.5 -9q0 -11 -3 -27t-12.5 -30t-28.5 -24t-51 -10z" />
    <glyph glyph-name="percent" unicode="%" horiz-adv-x="375" 
d="M296 335q8 0 14.5 -6.5t6.5 -15.5q0 -14 -14.5 -35.5t-36.5 -41.5t-46.5 -34.5t-44.5 -14.5q-19 0 -19 14q0 11 12 28t42 47q56 59 86 59zM19 27l3 -6l427 289l-3 6q-20 -5 -32.5 -7t-24.5 -2q-17 0 -33.5 4t-29.5 15q-10 9 -17 12.5t-16 3.5q-17 0 -43 -9.5t-51 -26
t-42.5 -39t-17.5 -48.5q0 -17 9 -27t24 -10q21 0 49.5 14t52.5 34.5t39 44t11 42.5q15 -9 30 -13t35 -4q10 0 18 1t21 3zM276 127q8 1 13.5 -5.5t5.5 -15.5q0 -17 -15.5 -39t-37.5 -42t-46 -33.5t-42 -13.5q-8 0 -14 4.5t-6 10.5q0 11 17 33t40 44.5t47 39t38 17.5zM272 132
q-18 0 -44.5 -9.5t-50.5 -26.5t-41.5 -39.5t-17.5 -47.5q0 -17 8.5 -27.5t23.5 -10.5q17 0 43 11.5t50.5 30.5t42 43t17.5 50t-31 26z" />
    <glyph glyph-name="ampersand" unicode="&#x26;" horiz-adv-x="323" 
d="M160 142q5 37 24.5 61.5t45.5 24.5q10 0 16.5 -6.5t6.5 -16.5q0 -20 -25 -37.5t-68 -25.5zM158 43q-56 -44 -99 -44q-25 0 -25 23q0 8 6.5 22.5t21 30.5t36.5 31t53 24q0 -5 1 -17.5t2 -26.5t2.5 -26t1.5 -17zM130 133q-67 -22 -95.5 -44t-28.5 -54q0 -19 15 -31t38 -12
q22 0 43.5 9t55.5 33q1 -15 1 -32q0 -16 -5.5 -35t-18.5 -41t-38 -47q-37 -37 -79 -57.5t-82 -20.5q-29 0 -47.5 14t-18.5 36q0 29 25 49t62 20q4 0 10 -0.5t14 -1.5l2 7q-8 1 -15 1.5t-12 0.5q-19 0 -36.5 -6t-30.5 -16.5t-20.5 -24.5t-7.5 -29q0 -26 20 -41t54 -15
q21 0 45 5.5t48 15.5t46 23.5t39 29.5q22 21 33.5 45.5t16 48t4.5 44.5t-1 35q8 6 15 13t18 21q24 30 45.5 49.5t45.5 18.5q-4 -8 -4 -13q2 -15 15 -15t13 14q0 10 -8 16t-20 6q-16 0 -34 -13t-48 -48q-13 -14 -20.5 -22t-19.5 -20q-2 23 -3 38.5t-3 44.5q53 14 77.5 32
t24.5 42q0 13 -8 21t-22 8q-15 0 -28.5 -7.5t-24 -20t-17.5 -30t-8 -37.5z" />
    <glyph glyph-name="quoteright" unicode="&#x2019;" horiz-adv-x="165" 
d="M122 362q35 15 56 30t21 26q0 9 -9 9q-12 0 -25 -21q-8 -14 -17 -21.5t-28 -17.5z" />
    <glyph glyph-name="parenleft" unicode="(" horiz-adv-x="271" 
d="M40 -147q14 131 86 258t201 245q33 31 65.5 55t68 43.5t76 36t90.5 31.5v5q-40 -8 -81.5 -23.5t-81 -35t-76 -42t-66.5 -44.5q-63 -47 -112 -105.5t-85 -126t-59.5 -142.5t-34.5 -154z" />
    <glyph glyph-name="parenright" unicode=")" horiz-adv-x="271" 
d="M-232 -142q25 6 44 11t35.5 10.5t32.5 12t35 15.5q81 37 145 83t113.5 100.5t86.5 119t64 138.5q9 23 15 43t11 40.5t9 44t8 54.5h-4q-5 -31 -9.5 -56t-11 -47.5t-14.5 -43.5t-19 -45q-25 -54 -64 -111t-86 -109.5t-98 -97t-99 -73.5q-22 -13 -42.5 -23.5t-42.5 -20
t-48.5 -19t-60.5 -19.5v-7z" />
    <glyph glyph-name="asterisk" unicode="*" horiz-adv-x="198" 
d="M108 366q23 -5 38 -10.5t29 -13.5q-35 -16 -50.5 -23.5t-21.5 -12.5l22 -18q19 20 30 29.5t24 16.5q-2 -12 -4.5 -34.5t-2.5 -46.5l28 11q-5 13 -10 34.5t-3 33.5q21 -16 36.5 -26.5t30.5 -17.5l5 29q-39 6 -67 23q18 8 29.5 13.5t19 9t13 6.5t11.5 7l-23 17
q-13 -16 -26.5 -27t-27.5 -18q2 20 4.5 37t2.5 24v10q0 3 -2 8l-25 -9q2 -6 7.5 -26t3.5 -43q-15 13 -33.5 24.5t-33.5 18.5z" />
    <glyph glyph-name="plus" unicode="+" horiz-adv-x="667" 
d="M113 212h243v-241h35v241h245v35h-245v244h-35v-244h-243v-35z" />
    <glyph glyph-name="comma" unicode="," horiz-adv-x="165" 
d="M-37 -42q38 16 58 30.5t20 25.5q0 10 -9 10q-6 0 -16 -9q-2 -2 -3.5 -4t-4.5 -7q-10 -15 -19 -23t-29 -18z" />
    <glyph glyph-name="hyphen" unicode="-" horiz-adv-x="177" 
d="M36 81h91l6 6h-91z" />
    <glyph glyph-name="period" unicode="." horiz-adv-x="161" 
d="M19 26q-7 0 -13 -5.5t-6 -12.5q0 -4 4 -7.5t8 -3.5q7 0 12 5t5 12q0 12 -10 12z" />
    <glyph glyph-name="slash" unicode="/" horiz-adv-x="156" 
d="M-31 -141h10l268 593h-10z" />
    <glyph glyph-name="zero" unicode="0" horiz-adv-x="313" 
d="M310 294q26 0 26 -29q0 -21 -14 -50t-37 -61t-53 -63.5t-60.5 -56.5t-60 -40.5t-52.5 -15.5q-13 0 -20 7.5t-7 19.5q0 17 13.5 45t35.5 59.5t50.5 63.5t59.5 58.5t62 44t57 18.5zM311 300q-19 0 -48 -10t-61.5 -28.5t-64.5 -44t-58 -56.5t-42.5 -66t-16.5 -72
q0 -52 39 -52q36 0 84 33t105 96q97 107 97 164q0 17 -9 26.5t-25 9.5z" />
    <glyph glyph-name="one" unicode="1" horiz-adv-x="313" 
d="M48 126q11 5 18.5 8t9.5 4l110 54q5 2 16 7.5t24.5 12.5t27.5 15t24 14l45 26l-294 -291h48l288 324h-7q-31 -21 -64.5 -41.5t-72 -40.5t-82 -41t-94.5 -45z" />
    <glyph glyph-name="two" unicode="2" horiz-adv-x="313" 
d="M260 263q-17 -37 -36.5 -60.5t-37 -37.5t-32 -19.5t-21.5 -5.5q-9 0 -14.5 5t-5.5 13q0 15 15.5 38t39 45t51.5 37.5t53 15.5q29 0 29 -27q0 -15 -8.5 -32t-21 -34.5t-28 -33.5t-30.5 -28q-17 -14 -51 -35t-73 -44q-35 -20 -58 -34t-37 -24.5t-22.5 -17.5t-14.5 -13h10
q17 15 30.5 21t29.5 6q11 0 24.5 -3.5t33.5 -11.5q31 -12 44 -12q25 0 47 14t45 45l-6 4q-20 -24 -32.5 -34t-25.5 -10q-9 0 -16 2t-22 9q-17 8 -30 11t-27 4q-15 1 -23.5 -2t-25.5 -8q12 10 23.5 17.5t24.5 14.5t29.5 14.5t40.5 18.5q37 16 70.5 33t59 37.5t40.5 47
t15 61.5q0 49 -44 49q-27 0 -56.5 -13.5t-54 -34.5t-40.5 -46t-16 -48t25 -23q14 0 32 8t36.5 24t36 40.5t31.5 56.5h-6z" />
    <glyph glyph-name="three" unicode="3" horiz-adv-x="313" 
d="M286 267q-20 -33 -48.5 -54t-54.5 -21q-16 0 -16 13t12 28.5t31.5 29t43 22.5t46.5 9q25 0 25 -20q0 -30 -52 -73q-24 -20 -54.5 -36.5t-82.5 -37.5l1 -6q51 22 72 22q23 0 23 -17q0 -14 -19 -39t-49.5 -49.5t-68.5 -43t-76 -18.5q-23 0 -38.5 10t-15.5 25q0 5 3 8
q7 -12 16 -12q6 0 11.5 5.5t5.5 12.5q0 8 -5 12t-13 4q-11 0 -18.5 -8t-7.5 -21q0 -42 64 -42q43 0 84 11.5t73 31t51.5 44.5t19.5 51q0 39 -43 42q4 2 6.5 3t9.5 3q64 24 91.5 47.5t27.5 52.5q0 44 -49 44q-24 0 -48 -8t-42.5 -21.5t-30.5 -30t-12 -32.5q0 -23 23 -23
q29 0 60 23t51 58z" />
    <glyph glyph-name="four" unicode="4" horiz-adv-x="313" 
d="M-1 62l3 -5q23 8 41 11t41 3q16 0 33 -1.5t47 -6.5q-18 -16 -32 -28t-25.5 -21.5t-22 -18.5t-22.5 -18h52l77 86q34 -2 58.5 4.5t29.5 8.5l1 6q-15 -5 -40 -10.5t-42 -1.5l36 40l39 45l-5 4l-11 -11q-23 -23 -42 -41t-42 -38q-28 4 -46.5 6t-39.5 2t-34 -1.5t-35 -5.5
q29 25 65 54.5t74.5 59t77.5 58t74 52.5h-59z" />
    <glyph glyph-name="five" unicode="5" horiz-adv-x="313" 
d="M92 139h9q28 27 61.5 44t57.5 17q11 0 17.5 -6.5t6.5 -17.5q0 -24 -20.5 -58t-52.5 -65t-71 -53t-76 -22q-20 0 -32.5 7.5t-12.5 20.5q0 6 4 15q7 -11 18 -11q19 0 19 17t-17 17q-13 0 -22.5 -11.5t-9.5 -26.5t15.5 -25t38.5 -10q17 0 41 5.5t50 16.5t52 26t46.5 34.5
t33 42t12.5 48.5q0 29 -11 45.5t-32 16.5q-13 0 -27.5 -5.5t-42.5 -19.5l-14 -7l91 102q20 -5 32 -6.5t26 -1.5q29 0 51.5 7.5t49.5 27.5l-3 4q-22 -14 -38.5 -20t-37.5 -6q-14 0 -25 2.5t-28 9.5l-7.5 3l-7.5 3z" />
    <glyph glyph-name="six" unicode="6" horiz-adv-x="313" 
d="M216 168q10 1 17 -6t7 -17q0 -14 -19 -41.5t-46.5 -55.5t-59.5 -48.5t-58 -20.5q-28 0 -28 23q0 15 19 42.5t47 54.5t61 47t60 22zM106 118q14 21 26.5 36.5t32.5 35.5q54 57 91.5 80.5t71.5 23.5q14 0 23 -5.5t9 -13.5q-5 4 -10 4q-17 0 -17 -19q0 -6 4.5 -11t10.5 -5
q8 0 13.5 7.5t5.5 18.5q0 14 -9.5 22t-26.5 8q-26 0 -59.5 -13.5t-68 -35.5t-68 -51.5t-59.5 -62t-42 -65.5t-16 -62q0 -38 42 -38q28 0 61 13t61.5 35.5t47.5 53t19 65.5t-32 35q-42 0 -111 -56z" />
    <glyph glyph-name="seven" unicode="7" horiz-adv-x="313" 
d="M210 318q3 3 3.5 4t0.5 3q0 4 -4 4q-2 0 -6 -4l-93 -100h7q21 22 33 29t27 7q7 0 14.5 -2t21.5 -7q15 -5 29 -7.5t25 -2.5q10 0 21 2.5t30 9.5l-411 -391l59 1l60 74q12 15 34.5 40.5t46.5 52t45.5 49.5t32.5 35q28 29 67.5 67t99.5 95l20 18v5q-6 2 -15 -10
q-23 -27 -50 -27q-8 0 -16.5 1.5t-22.5 5.5q-19 5 -31 7t-24 2t-21 -1.5t-20 -6.5q-5 -3 -7.5 -3.5t-6.5 -1.5z" />
    <glyph glyph-name="eight" unicode="8" horiz-adv-x="313" 
d="M214 164q-10 20 -15 32.5t-5 24.5q0 13 8 26t21 23.5t30 17t34 6.5q22 0 34.5 -11.5t12.5 -29.5q0 -29 -28.5 -49.5t-91.5 -39.5zM185 150q11 -26 15 -40t4 -31q0 -20 -11 -38.5t-29 -32.5t-42 -22.5t-50 -8.5q-53 0 -53 45q0 27 16 47t39.5 34.5t48.5 24t43 15.5
q8 3 11 4t8 3zM183 156q-23 -8 -53.5 -19t-58 -27.5t-46.5 -38.5t-19 -51q0 -49 65 -49q31 0 59 11.5t50 30t35 43t13 51.5q0 13 -2.5 23.5t-9.5 26.5q22 7 45 15.5t41.5 19.5t30 25.5t11.5 34.5q0 21 -15 34t-40 13q-23 0 -44.5 -8.5t-37.5 -23t-25.5 -33t-9.5 -38.5
q0 -11 2 -19t9 -21z" />
    <glyph glyph-name="nine" unicode="9" horiz-adv-x="313" 
d="M283 294q12 0 20.5 -7t8.5 -18q0 -20 -21 -48.5t-51 -55t-62 -45t-54 -18.5q-11 0 -17.5 6t-6.5 15q0 10 9 26.5t23.5 35t33.5 37.5t39 35t40.5 26t37.5 11zM230 143q-132 -165 -217 -165q-27 0 -29 13q9 -2 16.5 3t7.5 16q0 15 -15 15q-10 0 -16 -7.5t-6 -18.5
q0 -14 10.5 -21t28.5 -7q68 0 165 75q72 57 108.5 110t36.5 101q0 43 -42 43q-23 0 -55 -12.5t-61.5 -35t-50 -53t-20.5 -67.5q0 -36 32 -36q26 0 50.5 14.5t66.5 46.5z" />
    <glyph glyph-name="colon" unicode=":" horiz-adv-x="156" 
d="M94 131q0 -11 10 -11q7 0 12.5 5.5t5.5 11.5q0 11 -11 11q-7 0 -12 -5t-5 -12zM4 26q-7 0 -12 -5.5t-5 -12.5q0 -11 10 -11q6 0 12 6t6 12q0 11 -11 11z" />
    <glyph glyph-name="semicolon" unicode=";" horiz-adv-x="156" 
d="M109 148q-7 0 -12.5 -5t-5.5 -12q0 -11 12 -11q5 0 10.5 5.5t5.5 11.5q0 11 -10 11zM-67 -39q36 16 57 31t21 26q0 9 -7 9q-12 0 -24 -18q-11 -17 -21 -25.5t-28 -17.5z" />
    <glyph glyph-name="less" unicode="&#x3c;" horiz-adv-x="667" 
d="M614 33l-475 199l475 197v39l-521 -221v-31l521 -222v39z" />
    <glyph glyph-name="equal" unicode="=" horiz-adv-x="667" 
d="M113 326h521v35h-521v-35zM113 101h521v35h-521v-35z" />
    <glyph glyph-name="greater" unicode="&#x3e;" horiz-adv-x="667" 
d="M113 429l475 -199l-475 -197v-39l521 221v31l-521 222v-39z" />
    <glyph glyph-name="question" unicode="?" horiz-adv-x="296" 
d="M258 287q-22 -29 -50 -48.5t-48 -19.5q-7 0 -12 5.5t-5 13.5q0 12 10 26.5t26 27t35.5 21t37.5 8.5q15 0 24 -7t9 -19q0 -18 -13 -38.5t-32 -40t-41 -37.5t-41 -33q-23 -18 -38.5 -31t-27 -24t-20.5 -21.5t-18 -22.5h7q15 18 28.5 31.5t29.5 26.5t35.5 26t45.5 28
q17 10 34 21t30.5 25t22 32t8.5 42q0 48 -42 48q-22 0 -43.5 -7.5t-38 -20.5t-26.5 -29t-10 -33q0 -24 25 -24q23 0 52 19.5t52 51.5zM16 7q0 -7 7 -7q5 0 11.5 6t6.5 12q0 7 -6 7q-5 0 -12 -6t-7 -12z" />
    <glyph glyph-name="at" unicode="@" horiz-adv-x="500" 
d="M325 230l-7 -21q-6 27 -33 27q-17 0 -36 -13t-35 -33t-26.5 -44.5t-10.5 -46.5q0 -20 10 -33t26 -13q12 0 23 6t21 14.5t18.5 18t14.5 17.5l-3 -16.5t-1 -11.5q0 -28 30 -28q27 0 47 13.5t33.5 33.5t20.5 44.5t7 46.5q0 30 -10 54.5t-28.5 42.5t-44.5 27.5t-57 9.5
q-39 0 -72.5 -15t-58 -40.5t-39 -60.5t-14.5 -75q0 -37 13 -68.5t35.5 -55t53.5 -36.5t68 -13q53 0 101 30t68 90h-11q-23 -52 -63 -80t-94 -28q-34 0 -62 11.5t-48.5 32t-31.5 49t-11 63.5q0 34 11.5 67.5t33.5 60t53 42.5t70 16q56 0 91 -33.5t35 -86.5q0 -27 -7.5 -50
t-19.5 -40.5t-26.5 -27.5t-28.5 -10q-15 0 -15 16q0 11 6 32l35 120zM287 227q11 0 17.5 -8t6.5 -21q0 -7 -2 -17t-5 -20t-6.5 -19.5t-7.5 -15.5q-15 -23 -30.5 -36t-28.5 -13q-10 0 -16.5 8t-6.5 20q0 13 7 33.5t18 40t25.5 34t28.5 14.5z" />
    <glyph glyph-name="A" unicode="A" horiz-adv-x="677" 
d="M506 204q-7 28 -19 52.5t-29 43t-39.5 29t-49.5 10.5q-42 0 -67.5 -30.5t-25.5 -82.5q0 -41 17 -75.5t55 -76.5q-13 -10 -36.5 -26.5t-54 -32t-66.5 -27t-73 -11.5t-57 13t-20 36q0 19 15 31q4 -8 7.5 -12t11.5 -4t13 4.5t5 10.5q0 14 -21 14q-17 0 -28 -12t-11 -31
q0 -27 22 -42t64 -15q28 0 54.5 5t54.5 17t59 30.5t67 45.5q27 -23 52.5 -35t59.5 -19l-25 -35h45l20 30q31 0 56.5 7.5t58.5 36.5l20 17q5 4 13 12t22 19v8q-9 -8 -15 -13t-17 -15q-25 -21 -42 -34t-31 -19.5t-28 -9t-33 -3.5q97 134 204.5 257t229.5 235l14 12l-6 4
q-44 -14 -85 -35t-89.5 -55.5t-109.5 -86.5t-146 -127zM502 192q7 -47 -4 -88t-27 -84q-35 5 -60 17.5t-50 35.5q18 15 38.5 31.5t38 31.5t31 26.5t18.5 15.5zM763 343q-43 -44 -73.5 -76.5t-53.5 -56.5t-40 -43t-32 -36t-30.5 -35.5t-34.5 -41.5l-13 -15q13 42 20.5 77.5
t0.5 79.5l12 11q39 36 93 84t112 93.5t114 81t99 46.5l-11 -11t-26 -25t-34.5 -33.5t-36 -35.5t-32 -31t-20.5 -20zM486 187q-26 -23 -45.5 -40t-35 -29.5t-28 -22t-23.5 -17.5q-36 39 -52 76t-16 80q0 45 23.5 72t61.5 27q3 0 19 -2t36.5 -14.5t41 -40t33.5 -77.5z" />
    <glyph glyph-name="B" unicode="B" horiz-adv-x="719" 
d="M666 257q-13 -7 -21.5 -9t-22.5 -3q-29 1 -29 18q0 9 6.5 14.5t16.5 5.5q22 0 33.5 -10.5t16.5 -15.5zM565 476q-4 -23 -10 -43t-15 -38t-22 -35.5t-31 -35.5q-48 -49 -99.5 -77.5t-92.5 -28.5q-26 0 -41 15.5t-15 44.5q0 39 29.5 82.5t81 79.5t122.5 60t155 24
q50 0 82 -10.5t60 -35.5q-56 -34 -102 -75.5t-85 -77.5q-11 -10 -27.5 -27.5t-35.5 -39.5t-39.5 -46t-38.5 -45t-32 -38t-21 -24q-32 -35 -60.5 -59t-57.5 -39t-60.5 -22t-68.5 -7q-98 0 -100 48q0 9 1 9t4 -3q6 -8 15 -8q6 0 11 4.5t5 10.5q0 18 -18 18q-11 0 -18 -8
t-7 -22q0 -27 28.5 -41.5t81.5 -14.5q36 0 69 7t67.5 23t71 41.5t79.5 62.5q16 15 29 28t26.5 28.5t28.5 35.5t35 47q36 50 64 85t53 60.5t50.5 44.5t55.5 38q16 -20 16 -44q0 -22 -9 -46t-24.5 -46.5t-37 -42.5t-45.5 -33q-26 29 -56 29q-14 0 -22 -7t-8 -19q0 -24 34 -24
q12 0 22 2t27 9q5 -8 6 -15t1 -16q0 -18 -8 -42.5t-22 -51.5t-33.5 -53t-43.5 -47t-51.5 -34t-56.5 -13q-39 0 -39 30q0 20 14.5 45.5t38.5 48.5q20 18 45.5 32.5t61.5 25.5l-2 7q-33 -9 -63 -26.5t-53 -39.5t-36.5 -45.5t-13.5 -45.5q0 -39 46 -39q42 0 84 19t75.5 49
t54.5 68t21 77q0 20 -4.5 34.5t-15.5 35.5q69 30 100.5 65.5t31.5 82.5q0 21 -6 36.5t-23 37.5q29 17 56 29.5t45 18.5l-3 5q-11 -3 -24 -8.5t-27 -12t-27.5 -13.5t-23.5 -13q-34 27 -68 38t-83 11q-74 0 -145 -21.5t-126 -57.5t-88.5 -82t-33.5 -94q0 -31 17 -48.5
t48 -17.5q22 0 48 8.5t53 24t53.5 37t49.5 47.5q32 36 48.5 70.5t22.5 78.5h-6z" />
    <glyph glyph-name="C" unicode="C" horiz-adv-x="458" 
d="M270 261q25 28 46.5 50.5t41.5 41.5t40 35.5t41 32.5q30 23 60 42t57.5 32.5t50.5 21t40 7.5q14 0 23.5 -8t9.5 -22q0 -22 -31 -54t-86 -65.5t-130 -64t-163 -49.5zM208 244q-51 -56 -72.5 -97t-21.5 -82q0 -42 28 -68t74 -26q37 0 76 16t71.5 40.5t53 54.5t20.5 59
q0 26 -17 42t-45 16q-18 0 -42 -7.5t-50 -25.5t-53 -49t-51 -77l5 -4q31 59 62.5 91t58.5 46.5t46 17t24 2.5q26 0 41.5 -14.5t15.5 -38.5q0 -23 -19 -51.5t-49.5 -53.5t-70 -41.5t-81.5 -16.5q-36 0 -58 17t-22 45q0 38 31 88.5t100 125.5q88 18 164.5 48.5t133.5 65
t90 68.5t34 59q1 17 -10 26t-28 9q-32 0 -85 -24t-114 -63t-123 -89t-112 -102q-8 -1 -13.5 -1.5t-16.5 -0.5q-122 5 -122 93q0 72 75 123q23 16 48.5 27t57 18t70 10t86.5 3v6q-89 0 -140.5 -10t-79.5 -23q-37 -17 -61.5 -35.5t-39 -37t-20.5 -38t-6 -38.5q0 -40 28 -68
q20 -20 43.5 -27.5t68.5 -7.5h17z" />
    <glyph glyph-name="D" unicode="D" horiz-adv-x="677" 
d="M721 360q0 -36 -12 -78.5t-34.5 -85t-55 -81.5t-73.5 -69.5t-90.5 -48.5t-105.5 -18q-24 0 -48 3.5t-43 10.5q75 21 127.5 54t89.5 70.5t61 76t41 70.5q18 33 33.5 58t31 44.5t31 35.5t33.5 30q8 -22 11 -36.5t3 -35.5zM52 -1q0 11 16 17t43 6q32 0 59.5 -6t66.5 -22
q-29 -8 -59 -11.5t-68 -3.5q-26 0 -42 6t-16 14zM518 454q-3 -59 -28 -107.5t-61.5 -83.5t-78.5 -54.5t-77 -19.5q-29 0 -45.5 15.5t-16.5 44.5q0 23 11 52.5t32 60t51 60.5t67 53t81 37t93 14q57 0 94.5 -20.5t63.5 -66.5q-32 -25 -83.5 -80t-114.5 -147q-32 -47 -59 -81.5
t-56 -60t-63 -43t-80 -30.5q-46 17 -76 24t-62 7q-29 0 -46 -7.5t-17 -21.5q0 -12 20 -18.5t56 -6.5q14 0 30 1t33 3q16 2 32 5t30 7q48 -16 102 -16q62 0 114 20t94 52t74 73t53 84t32 83.5t11 71.5q0 21 -3.5 37.5t-11.5 41.5q12 10 22.5 17.5t21.5 14t24 13.5t30 16l-2 6
q-30 -14 -56 -30t-43 -30q-28 48 -67 68.5t-100 20.5q-66 0 -127.5 -23t-109.5 -61t-77 -87t-29 -101q0 -36 20.5 -57.5t54.5 -21.5q40 0 84.5 23t81.5 61t60.5 87t21.5 101h-5z" />
    <glyph glyph-name="E" unicode="E" horiz-adv-x="432" 
d="M351 328q14 44 40 80.5t57.5 62.5t63.5 40t58 14q17 0 28 -7.5t11 -19.5q0 -17 -18 -41.5t-51.5 -49.5t-81.5 -47t-107 -32zM350 298q3 0 14 1t23 -1t21 -8.5t9 -19.5q0 -20 -22 -20q-18 0 -30 13t-15 35zM341 302q-55 -9 -104 -30t-86 -50.5t-58.5 -65.5t-21.5 -76
q0 -51 30 -79.5t83 -28.5q42 0 83.5 15.5t75 41t54 57t20.5 63.5q0 25 -16.5 39.5t-45.5 14.5q-36 0 -72.5 -17t-66.5 -48q-20 -20 -32 -40.5t-28 -56.5h8q14 33 25 51.5t30 37.5q29 32 64.5 49t70.5 17q26 0 41 -12.5t15 -34.5q0 -31 -20 -61.5t-52.5 -55t-73.5 -39.5
t-83 -15q-83 0 -83 72q0 62 64 141q37 46 78.5 70.5t101.5 35.5q16 -54 50 -54q31 0 31 28q0 34 -53 35q-8 0 -11.5 -0.5t-8.5 -1.5v17q45 9 80.5 21.5t67.5 29.5q25 14 46.5 30.5t37 33.5t24.5 33.5t9 30.5q0 31 -43 31q-23 0 -49 -7.5t-52 -20.5t-50 -30.5t-41 -36.5
q-23 -26 -32 -51t-10 -60q-21 -3 -37 -4.5t-31 -1.5q-61 0 -96.5 21.5t-35.5 58.5q0 9 7 29.5t32 42t72.5 38t127.5 17.5l-1 5q-64 -1 -104.5 -9.5t-72.5 -28.5q-68 -40 -68 -93q0 -40 37 -64t100 -24q9 0 16.5 0.5l15 1t16.5 2t23 3.5z" />
    <glyph glyph-name="F" unicode="F" horiz-adv-x="552" 
d="M587 437q-28 -47 -59 -79.5t-62 -53t-60 -29.5t-52 -9q-34 0 -54 15t-20 41q0 23 19.5 55.5t57.5 62.5t94 51t130 21q25 0 47.5 -3t60.5 -11q37 -8 58 -11t41 -3q37 0 66.5 9.5t58.5 30.5l-3 4q-23 -13 -43.5 -18t-48.5 -5q-19 0 -41.5 2.5t-60.5 7.5q-38 6 -59.5 8
t-41.5 2q-80 0 -143 -20.5t-107 -51t-67.5 -66t-23.5 -66.5q0 -29 21.5 -45.5t57.5 -16.5q39 0 73.5 13.5t64.5 37.5t55.5 56t46.5 70zM573 243q12 32 23 46.5t25 14.5q8 0 13 -5t5 -13q0 -2 -1 -7.5t-7 -12.5t-19.5 -13t-38.5 -10zM351 179q31 20 63 31t72 16
q-79 -126 -163 -187t-178 -61q-42 0 -66.5 14t-24.5 38q0 15 7 19q1 -1 1 -2t2 -3q4 -14 18 -14q10 0 16 5t6 13q0 10 -6.5 16t-17.5 6q-15 0 -24.5 -11t-9.5 -28q0 -29 25 -44.5t70 -15.5q39 0 81 10t82 27.5t76 42t63 54.5q24 27 47.5 62t36.5 64l28 2q-7 -17 -12 -38
t-8 -36l28 11q2 19 4 35.5t5 29.5q30 3 51.5 18t21.5 32q0 25 -24 25q-17 0 -32 -16.5t-30 -52.5l-26 -2q23 46 40 76.5t36 55t43.5 48.5t62.5 57l-4 3q-38 -25 -66.5 -51t-53.5 -55.5t-49.5 -64t-52.5 -76.5q-48 -5 -81.5 -17t-61.5 -33z" />
    <glyph glyph-name="G" unicode="G" horiz-adv-x="479" 
d="M245 257q47 60 98 109.5t101 85t97.5 54.5t87.5 19q38 0 38 -24q0 -19 -18.5 -42.5t-49.5 -48.5t-73 -49t-88.5 -45t-96 -36.5t-96.5 -22.5zM503 232q-8 -5 -25 -17.5t-36.5 -26.5t-36.5 -26.5t-24 -16.5q-71 -45 -128 -45q-27 0 -43 12t-16 32q0 18 10 41t36 64
q49 7 100 23t99 37t90.5 46t74.5 51t50.5 51t18.5 46q0 14 -12 21.5t-32 7.5q-53 0 -130.5 -37.5t-171.5 -108.5q-27 -20 -46.5 -37.5t-34.5 -34t-26.5 -32t-22.5 -31.5q-15 0 -40 2t-48.5 11.5t-41 29t-17.5 54.5q0 36 21.5 68t58 56.5t85 38.5t102.5 14q17 0 55 -3l1 6
q-20 2 -34 3t-22 1q-56 0 -106 -14.5t-88 -38.5t-60.5 -56.5t-22.5 -68.5q0 -6 2.5 -23.5t16 -36.5t43.5 -34t86 -15h6q-23 -45 -23 -79q0 -33 22 -52.5t60 -19.5q14 0 28.5 2.5t31.5 9t37.5 16.5t46.5 25q-16 -17 -36.5 -41t-36.5 -44q-12 -15 -25.5 -30t-32 -27
t-43.5 -19.5t-61 -7.5q-45 0 -72 16t-27 42q0 11 5 22q8 -16 19 -16q6 0 11 5t5 10q0 8 -5.5 13t-13.5 5q-13 0 -21 -10.5t-8 -26.5q0 -31 29 -49t79 -18q53 0 92 14.5t67.5 37t48.5 49.5t37 52t29 41t22.5 26.5t21.5 18.5t26 17z" />
    <glyph glyph-name="H" unicode="H" horiz-adv-x="677" 
d="M962 499q0 -3 -2.5 -13.5t-13 -26t-31.5 -35.5t-58.5 -42t-94 -45.5t-137.5 -45.5q9 12 28.5 34t45 48t56 52.5t61.5 48.5t61.5 36t57.5 14q12 0 19.5 -7t7.5 -18zM46 10q0 25 26.5 58t73.5 65.5t112 59t143 39.5q-53 -79 -101.5 -129t-89 -78t-72 -38t-50.5 -10
q-20 0 -31 9t-11 24zM444 407q-68 -56 -133 -56q-32 0 -48.5 15.5t-16.5 36.5q0 19 13.5 40t37.5 39t58.5 30t76.5 12q61 0 61 -32q0 -8 -3.5 -17t-3.5 -18q0 -15 11 -23.5t29 -8.5q14 0 25.5 2.5t32.5 10.5l-49 -49t-35 -37t-33 -38.5t-43 -51.5l-16 -20
q-57 -12 -108.5 -29t-92.5 -37q-35 -18 -65.5 -39.5t-53 -44t-35 -44t-12.5 -39.5q0 -16 12.5 -26.5t31.5 -10.5q27 0 58.5 12.5t60.5 28.5t51.5 32t32.5 23q42 31 72.5 61t51 54.5t31 41t13.5 19.5l108 24q-63 -70 -100 -132.5t-37 -117.5q0 -22 12 -34.5t32 -12.5
q23 0 50.5 14t70.5 47q24 19 45.5 36.5t38.5 32.5v8q-14 -14 -33.5 -30t-42.5 -33q-51 -40 -79.5 -55t-51.5 -15q-29 0 -29 29q0 19 16 49.5t41.5 68t57 79t62.5 80.5q73 20 128 40.5t94 42.5q59 32 93.5 68.5t34.5 66.5q0 14 -10.5 21.5t-26.5 7.5q-24 0 -59 -16.5t-74 -42
t-77 -56t-67 -58.5l-28 -27q-4 -3 -11.5 -10.5l-15.5 -15.5l-15.5 -15.5l-10.5 -10.5l-112 -25q28 49 66 104.5t84 97.5q49 42 75 57q10 6 10 11q0 3 -5 3t-14 -7.5t-26 -21.5q-38 -35 -65.5 -50t-52.5 -15q-22 0 -22 13q0 12 2.5 18t2.5 18q0 23 -23.5 36.5t-61.5 13.5
q-42 0 -76.5 -12t-59.5 -30.5t-39 -41t-14 -43.5q0 -28 18.5 -43t53.5 -15t66 13.5t70 45.5z" />
    <glyph glyph-name="I" unicode="I" horiz-adv-x="469" 
d="M363 306q0 22 13.5 51t42 57.5t73 53.5t107.5 39q2 0 15 2.5t32.5 5.5t44 5.5t50.5 2.5q-23 -11 -39 -19.5t-30.5 -17.5t-29.5 -19.5t-35 -26.5q-123 -96 -194 -202q-23 3 -36.5 21t-13.5 47zM394 209q-31 -49 -62 -91t-67 -73.5t-78.5 -49.5t-96.5 -18q-42 0 -67.5 15
t-25.5 40q0 10 7 20q5 -11 8.5 -14.5t11.5 -3.5q19 0 19 17q0 20 -21 20q-15 0 -24.5 -10.5t-9.5 -27.5q0 -27 28 -44.5t71 -18.5q33 0 69.5 9.5t72.5 27.5t70 43t63 56q23 24 42.5 51.5t42.5 68.5q37 2 62.5 11.5t46.5 31.5q19 20 32 49.5t13 53.5h-5q0 -17 -8.5 -41
t-26 -45.5t-45 -37t-64.5 -14.5q34 63 68.5 108.5t73.5 79.5q46 39 86 63t84 39v5q-99 0 -177.5 -19.5t-132.5 -50t-83 -68.5t-29 -77q0 -63 66 -83z" />
    <glyph glyph-name="J" unicode="J" horiz-adv-x="500" 
d="M455 240q-61 15 -61 70q0 30 22.5 68t70 71.5t122 56t178.5 20.5q-20 -9 -35 -16t-28 -14.5t-27 -17t-32 -24.5q-21 -17 -49 -42.5t-57 -55.5t-56.5 -60.5t-47.5 -55.5zM247 -20q-7 -9 -25.5 -28t-45.5 -41.5t-60.5 -46.5t-71 -44t-78 -32.5t-79.5 -12.5q-32 0 -52 11
t-20 28q0 33 59.5 66.5t168.5 60.5q56 11 97 19t78 15zM499 109q-17 -14 -36 -29.5t-42 -29.5t-50.5 -26t-61.5 -19q22 24 40.5 44.5t36.5 43t37 48t43 59.5l19 28h17q124 2 169 116h-5q-25 -57 -67 -83.5t-108 -25.5q66 100 130 167t121 97q17 8 28.5 12.5t22 7t21.5 3.5
t28 2v6q-39 1 -80 1t-84 -5.5t-85.5 -18t-84.5 -34.5q-58 -32 -90 -74t-32 -87q0 -30 14.5 -48.5t48.5 -30.5q-17 -17 -40.5 -48t-43.5 -59q-32 -42 -60.5 -78.5t-49.5 -57.5q-73 -14 -119.5 -22.5t-77 -15t-51.5 -12t-43 -13.5q-24 -9 -51.5 -20.5t-50.5 -25.5t-38 -31.5
t-15 -36.5q0 -20 21 -32.5t55 -12.5q56 0 116 22.5t135 72.5q87 58 162 131q66 15 112.5 42.5t88.5 64.5v8z" />
    <glyph glyph-name="K" unicode="K" horiz-adv-x="698" 
d="M592 256q-20 -8 -36 -8q-34 0 -34 21q0 8 7 13t18 5q27 0 45 -31zM697 109l-17 -16q-33 -30 -58.5 -52t-46 -36t-37 -21t-32.5 -7q-11 0 -19 6.5t-8 16.5q0 8 11 24.5t36 45.5q37 44 57.5 85t20.5 72q0 8 -3 25q33 13 62.5 33t57 45t54 54t54.5 61q69 81 146 81
q21 0 21 -9q0 -2 -1 -7t-1 -7q0 -5 3.5 -8.5t8.5 -3.5q12 0 12 14q0 26 -42 26q-34 0 -67 -15t-65 -40t-63.5 -57t-61.5 -66q-20 -22 -34.5 -36.5t-27.5 -25t-27 -18t-32 -16.5q-21 37 -50 37q-14 0 -23.5 -7t-9.5 -18q0 -12 11 -19.5t29 -7.5q4 0 17.5 2.5t20.5 4.5
q4 -9 4 -15q0 -16 -14 -37.5t-46 -57.5q-13 -14 -24.5 -27.5t-20.5 -29t-14 -33.5t-5 -41q0 -38 30 -38q38 0 81.5 33.5t112.5 97.5v8zM493 417q-63 -73 -137 -73q-34 0 -55.5 15t-21.5 39q0 19 14 41.5t39.5 41t60 31t75.5 12.5q32 0 46 -8t14 -26q0 -5 -2.5 -17t-2.5 -16
q0 -17 11 -27t28 -10q11 0 23.5 3.5t28.5 10.5l-16 -17q-22 -23 -41 -43.5t-36 -40.5l-11 -12q-16 -18 -29.5 -33.5t-27 -33t-29 -38t-34.5 -47.5q-27 -37 -54.5 -71.5t-60 -61.5t-71.5 -43t-90 -16q-42 0 -65.5 14.5t-23.5 40.5q0 16 10 22q7 -18 18 -18q17 0 17 16
q0 17 -19 17q-14 0 -23 -10t-9 -27q0 -29 25 -45.5t67 -16.5q37 0 72.5 10t68 27t62.5 40t57 49q18 19 31.5 34t26.5 32.5t28.5 40t36.5 55.5t38.5 60t35.5 51t38.5 47t47.5 47q16 14 35.5 28.5t30.5 21.5q7 4 7 7q0 2 -4 2q-7 0 -15 -5.5t-25 -19.5q-42 -38 -69.5 -54.5
t-47.5 -16.5q-21 0 -21 18q0 3 2 14t2 14q0 58 -82 58q-38 0 -73 -11.5t-62.5 -30t-44 -42.5t-16.5 -49q0 -27 23 -43.5t61 -16.5q78 0 143 76z" />
    <glyph glyph-name="L" unicode="L" horiz-adv-x="594" 
d="M842 501q0 -17 -20.5 -48.5t-62 -68.5t-105.5 -74t-151 -65q30 52 56.5 91t51.5 68q22 27 48 49t52 38.5t51 25.5t46 9q15 0 24.5 -7t9.5 -18zM32 0q0 11 17 17.5t44 6.5q24 0 58 -6.5t72 -18.5q-20 -11 -52 -16.5t-67 -5.5q-34 0 -53 6t-19 17zM428 199
q-27 -41 -50.5 -71.5t-45.5 -53t-45.5 -39.5t-50.5 -32l-20 6q-21 6 -37 10.5t-29.5 7t-25.5 3.5t-26 1q-73 0 -73 -30q0 -31 81 -31q35 0 67 6q31 6 66 18q26 -8 60 -15.5t72 -7.5q24 0 45 5t45 19t55.5 39.5t76.5 66.5v8q-48 -43 -80 -69t-55 -40t-43 -18.5t-44 -4.5
q-25 0 -58.5 6t-64.5 16q50 23 86 48.5t63.5 54t49.5 59t44 63.5l8 11q76 24 140 59t110 72.5t71.5 73t25.5 60.5q0 32 -35 32q-38 0 -89 -28t-108 -82q-22 -20 -41.5 -40.5t-39.5 -43.5t-40.5 -50t-44.5 -60q-26 -7 -44 -9.5t-40 -2.5q-68 0 -106 29t-38 81q0 41 24 77
t65.5 63t98 43t122.5 17v5q-73 0 -133 -17.5t-102.5 -45.5t-65.5 -64.5t-23 -74.5q0 -54 41.5 -87t110.5 -33q21 0 39 2.5t46 8.5z" />
    <glyph glyph-name="M" unicode="M" horiz-adv-x="729" 
d="M396 191q-51 -55 -90.5 -95t-73.5 -66.5t-66.5 -39.5t-69.5 -13q-24 0 -40 10.5t-16 27.5q0 9 4 17t9 8q1 -1 1 -4q0 -6 1.5 -12.5t11.5 -6.5q14 0 14 15q0 18 -18 18q-11 0 -19 -9t-8 -23q0 -22 17 -34.5t46 -12.5q33 0 63 12t56.5 30t49 39.5t42.5 41.5l35.5 35.5
t23.5 25.5l11 11q72 76 132 135t116 109q21 18 37.5 32.5t32 26.5t31.5 22.5t34 22.5l-67 -67q-58 -57 -113.5 -116t-109.5 -121q-19 -21 -41 -48t-41 -56t-32 -59.5t-13 -59.5q0 -16 10 -16t29 14.5t44.5 39t55.5 56.5t62 67q2 3 5.5 7t8.5 9l14 15q43 46 72.5 77.5
t49.5 52t31.5 31.5t17.5 17q14 13 38 35t50.5 44.5t51 42.5t40.5 29l-176 -184q-43 -46 -83 -92t-70.5 -88.5t-48.5 -81.5t-18 -72q0 -19 18 -19q29 0 66 29.5t96 84.5l18 16v8q-11 -9 -26.5 -23t-30.5 -27.5t-27 -24.5t-15 -14q-3 -2 -11.5 -9t-19.5 -14.5t-23.5 -13.5
t-22.5 -6t-10 8q0 17 95.5 149t296.5 368l19 23l-6 4q-19 -11 -48.5 -32.5t-64.5 -52.5l-28 -25q-26 -22 -44 -39t-37.5 -35.5t-43 -43t-59.5 -62.5q-17 -18 -30.5 -32.5t-24.5 -26.5t-21 -23t-20 -23q-29 -33 -56 -61.5t-49 -50t-38 -33.5t-22 -12q-5 0 -5 6q0 5 6 16
q9 17 18.5 32.5t26 37t42 53.5t64.5 81q26 33 46.5 58.5t37.5 46.5t32 39l30 36q5 6 8.5 10t5.5 6l9 12q4 6 16.5 20t27.5 31.5l30 35t26 29.5l-7 4q-30 -20 -54 -37.5t-49 -37.5t-53 -45.5t-66 -61.5q-42 -41 -75 -74t-65 -66z" />
    <glyph glyph-name="N" unicode="N" horiz-adv-x="604" 
d="M531 363q8 44 27.5 83.5t50.5 71.5q6 6 6 9t-4 3q-5 0 -10.5 -8t-13.5 -20q-2 -3 -8.5 -11.5t-13 -17.5t-11.5 -16.5l-5 -7.5l-50 -68q-15 -21 -40.5 -52.5t-53.5 -65.5t-55.5 -66.5t-48.5 -55.5q-49 -54 -87 -86t-68 -49t-54.5 -22.5t-45.5 -5.5q-29 0 -47.5 11.5
t-18.5 28.5q0 14 8 22q4 -16 19 -16q19 0 19 17q0 19 -20 19q-14 0 -23.5 -11.5t-9.5 -28.5q0 -23 19.5 -36t55.5 -13q48 0 92.5 22.5t98.5 73.5q96 90 279 329l15 21q-2 -7 -4 -12t-7 -16q-10 -23 -20 -47.5t-19 -53t-16.5 -63t-12.5 -78.5l-2 -16q-2 -19 -6.5 -40.5
t-13 -42t-23 -38t-36.5 -28.5q-9 -5 -9 -8t5 -3q16 0 36.5 26t53.5 77q54 80 106 151t102 130q77 91 137.5 130.5t114.5 39.5q33 0 51.5 -10.5t18.5 -29.5q0 -8 -2 -8t-4.5 3.5t-9.5 3.5q-15 0 -15 -14q0 -16 14 -16q10 0 16 8t6 21q0 22 -20 34.5t-54 12.5q-50 0 -95.5 -25
t-93.5 -73q-37 -37 -82 -90.5t-87 -110.5l-91 -125q10 33 16.5 54t11 36t7 27t5.5 27z" />
    <glyph glyph-name="O" unicode="O" horiz-adv-x="438" 
d="M253 245q22 58 58 101t75 72t75.5 43.5t60.5 14.5q21 0 34 -14.5t13 -39.5q0 -33 -18 -73.5t-45 -82t-59.5 -80.5t-60.5 -68q-138 -141 -246 -141q-31 0 -48 16.5t-17 46.5q0 28 19 69.5t49.5 88t68.5 93.5t75 85q69 71 145.5 109t148.5 38q42 0 65 -16t23 -45t-20 -49
t-58 -27l-1 -6q83 18 83 83q0 31 -23.5 48.5t-65.5 17.5q-134 0 -299 -133q-227 -183 -227 -335q0 -41 23.5 -65.5t61.5 -24.5q33 0 69.5 14.5t73 39t72.5 57t68 69.5q32 36 59 73.5t47 73t31 67.5t11 58q0 27 -14 42.5t-39 15.5q-23 0 -59.5 -13t-76 -41.5t-77 -73.5
t-62.5 -108h7z" />
    <glyph glyph-name="P" unicode="P" horiz-adv-x="563" 
d="M554 452q-18 -63 -51 -109.5t-70.5 -77t-74.5 -45t-62 -14.5q-24 0 -38.5 15t-14.5 40q0 39 30.5 85t81 86t117 66.5t138.5 26.5q63 0 106 -43q-26 -21 -50 -40.5t-49 -46t-53.5 -62.5t-62.5 -90q-36 -55 -74 -103.5t-81 -84.5t-92.5 -56.5t-107.5 -20.5q-45 0 -67.5 15
t-22.5 35q0 6 2 13t4 8v-1q5 -10 9 -14t12 -4q22 0 22 19q0 21 -22 21q-14 0 -25 -11.5t-11 -26.5q0 -20 9.5 -31.5t24.5 -18.5t32 -9t32 -2q72 0 145 30t135 85q17 15 33 33.5t31.5 41.5t32.5 52.5t36 67.5q27 53 64 101t99 93q9 -12 12.5 -21.5t3.5 -23.5q0 -22 -9.5 -48
t-24.5 -49t-33.5 -38.5t-37.5 -15.5q-24 0 -24 24q0 54 92 85l-3 5q-43 -14 -69 -38.5t-26 -51.5q0 -14 8.5 -22.5t22.5 -8.5q20 0 40.5 12.5t37 32.5t27 45t10.5 49q0 19 -5 35t-16 33q8 7 15.5 12.5t16.5 11t20.5 10.5t26.5 12l-2 4q-44 -17 -82 -44q-27 25 -52 35t-58 10
q-73 0 -141 -26t-120 -66.5t-83.5 -88.5t-31.5 -91q0 -27 17 -43t45 -16q45 0 96.5 29.5t91.5 77.5q12 15 22 29.5t19 31.5t17 37t16 46z" />
    <glyph glyph-name="Q" unicode="Q" horiz-adv-x="469" 
d="M410 51q26 22 37.5 32t20.5 18v8l-27 -24q-63 -56 -104.5 -80.5t-72.5 -24.5t-47 23q29 17 44.5 27.5t30.5 23.5q19 15 45 40t53.5 56t54 66.5t48 72t34.5 71t13 64.5q0 26 -13.5 41t-38.5 15q-22 0 -47 -8t-51 -22t-52 -34.5t-48 -44.5q-26 -28 -43.5 -56t-34.5 -69
l7 -2q24 63 62 107t77 71.5t74.5 40t55.5 12.5q21 0 34 -14t13 -37q0 -36 -20 -80t-49.5 -88t-64 -83.5t-62.5 -67.5q-18 -18 -33.5 -31t-29.5 -24t-29.5 -21t-33.5 -20q-26 40 -43 54.5t-41 14.5q-14 0 -26.5 -4.5t-27.5 -14.5l4 -4q29 16 51 16q39 0 50 -52q2 -9 3 -13
t3 -10q-25 -11 -40.5 -14.5t-34.5 -3.5q-33 0 -51 15.5t-18 44.5q0 30 20 73.5t51 90.5t68 92.5t70 79.5q69 71 146 109.5t149 38.5q42 0 65.5 -15.5t23.5 -44.5t-21 -49.5t-56 -28.5v-5q82 20 82 83q0 31 -24 48.5t-67 17.5q-42 0 -85 -13t-85 -34.5t-81.5 -49t-74 -57.5
t-63.5 -60t-50 -55q-46 -56 -66.5 -102t-20.5 -94q0 -44 22 -68t63 -24q17 0 39 5q23 5 42 13q14 -11 25.5 -15t31.5 -4q24 0 46 7.5t41.5 18.5t36 23t27.5 22z" />
    <glyph glyph-name="R" unicode="R" horiz-adv-x="698" 
d="M556 217q0 8 6.5 14t17.5 6q28 0 36 -33q-15 -4 -28 -4q-32 0 -32 17zM561 457q-11 -52 -25 -83.5t-39 -60.5q-45 -52 -96 -81t-99 -29q-29 0 -45 14.5t-16 40.5q0 33 26 78.5t75.5 87t121 71t163.5 29.5q48 0 76.5 -8.5t53.5 -31.5q-46 -29 -85.5 -63t-72 -67t-57 -63
t-40.5 -50l-14 -17q-39 -50 -77.5 -94.5t-81.5 -78.5t-93.5 -53.5t-114.5 -19.5q-46 0 -71.5 13.5t-25.5 39.5q0 8 3.5 16.5t6.5 8.5q2 -8 6.5 -13.5t9.5 -5.5q7 0 12 5t5 11q0 7 -6 12t-14 5q-13 0 -21.5 -11t-8.5 -26q0 -62 106 -62q82 0 165.5 37.5t168.5 121.5
q13 13 23 24t19.5 24t20.5 28.5t25 38.5l9 12q32 49 57 83t48.5 58t48 42.5t54.5 37.5q20 -23 20 -57q0 -17 -7.5 -46t-26 -60.5t-49 -61t-76.5 -45.5q-14 35 -43 35q-14 0 -22.5 -7.5t-8.5 -18.5t10 -17.5t26 -6.5q3 0 15 1.5t15 0.5q-3 -16 -13 -30t-36 -40q-8 -8 -18 -20
t-19 -27t-15.5 -34t-6.5 -42q0 -14 6.5 -22t17.5 -8t26.5 8.5t33.5 23t38.5 33.5t41.5 40q8 8 13.5 12.5t12.5 11.5v8q-6 -6 -12 -11.5t-15 -13.5q-51 -51 -86.5 -78.5t-52.5 -27.5q-6 0 -11 5t-5 11q0 13 12 32t41 52q18 20 29 34.5t17 28t8 27t2 31.5q32 11 50.5 18
t35.5 18q46 29 71 67.5t25 81.5q0 28 -8.5 50.5t-28.5 47.5q17 9 38 18t37 14l-1 5q-18 -5 -38 -13.5t-41 -19.5q-14 12 -27 20t-28.5 13.5t-35 7.5t-46.5 2q-67 0 -122 -14t-106 -43q-38 -21 -68.5 -48t-52.5 -55.5t-34 -58t-12 -56.5t19 -42.5t54 -15.5q33 0 74 16
t79 48.5t68 81.5t41 116z" />
    <glyph glyph-name="S" unicode="S" horiz-adv-x="542" 
d="M534 265q12 25 23 45t21 36.5t20 31t22 28.5q21 26 45 48t48 37.5t46.5 24.5t40.5 9q21 0 21 -18q0 -5 -6 -21.5t-26.5 -42.5t-58.5 -60t-102 -72q-34 -20 -54 -30t-40 -16zM531 257q52 19 105 51t95 68t68.5 72t26.5 62q0 21 -28 21q-52 0 -129.5 -64t-162.5 -192
q-7 -11 -10 -15.5l-7 -10.5q-65 -20 -118 -20q-57 0 -93 29t-36 75q0 42 31 80.5t89 68.5q26 13 50 22t48.5 15t51.5 9t59 3v6q-74 0 -136.5 -18.5t-107.5 -48.5t-70.5 -67t-25.5 -74q0 -23 10.5 -43t29.5 -34t45.5 -22t57.5 -8q23 0 47 4t62 15q-54 -95 -103.5 -148.5
t-92.5 -79t-79.5 -31t-64.5 -5.5q-51 0 -80.5 13.5t-29.5 37.5q0 8 3 8q2 0 5 -3q5 -4 10 -4q15 0 15 14q0 15 -17 15q-24 0 -24 -28q0 -29 28.5 -44.5t82.5 -15.5q83 0 154.5 33t137.5 101q13 14 24.5 27t22 28.5t21.5 34.5t25 44z" />
    <glyph glyph-name="T" unicode="T" horiz-adv-x="563" 
d="M602 444q-21 -44 -50.5 -76.5t-61.5 -54.5t-63 -33t-55 -11q-32 0 -51.5 17t-19.5 43q0 27 19 59.5t56 61t90.5 47.5t122.5 19q29 0 65.5 -4t92.5 -13q39 -7 66 -10.5t41 -3.5t34.5 2.5t41.5 7t40 12t30 18.5h-9q-25 -19 -108 -19q-23 0 -50.5 2t-75.5 7q-53 4 -86 6.5
t-61 2.5q-86 0 -145.5 -21.5t-97.5 -51.5t-55 -63.5t-17 -57.5q0 -31 21.5 -49t58.5 -18q3 0 27.5 3t59.5 20t74.5 53.5t72.5 104.5h-7zM508 234q-32 -44 -50.5 -69t-30 -40t-20 -24.5t-20.5 -21.5t-31.5 -29t-49.5 -33t-72 -27.5t-98 -11.5q-46 0 -73 14.5t-27 40.5
q0 11 3.5 17t13.5 11q-4 -13 1.5 -19t13.5 -6q15 0 15 15q0 8 -6 13.5t-15 5.5q-14 0 -22.5 -10.5t-8.5 -27.5q0 -29 29 -45t81 -16q92 0 179 40t151 112q12 14 23 28.5t23.5 34t28 45.5t36.5 64q25 45 51 75.5t50.5 51t47.5 33.5t42 23l-5 4q-77 -38 -136.5 -99.5
t-110.5 -130.5z" />
    <glyph glyph-name="U" unicode="U" horiz-adv-x="438" 
d="M621 483l-226 -256q-10 -11 -30 -31t-42.5 -41.5t-45 -42.5t-38.5 -34q-58 -50 -104 -75.5t-77 -25.5q-21 0 -21 13q0 17 48 72l235 267q28 31 42.5 67.5t14.5 71.5q0 36 -16.5 49t-61.5 13q-53 0 -99 -18.5t-80 -46t-53 -59.5t-19 -59q0 -20 14.5 -32t39.5 -12
q33 0 66 15t61.5 40t51.5 57t36 66h-7q-20 -47 -48.5 -80t-58.5 -53t-57.5 -29t-45.5 -9q-20 0 -32.5 11t-12.5 28q0 24 20 54.5t53.5 57t76.5 44.5t90 18q40 0 57 -11t17 -37q0 -20 -13 -43.5t-42 -56.5l-226 -258q-35 -40 -51 -67.5t-14 -56.5q2 -23 32 -23
q28 0 58.5 13.5t63.5 37t69.5 55.5t75.5 68q-3 -5 -7 -9t-10 -12q-37 -42 -54 -72.5t-17 -55.5q0 -10 6.5 -17t15.5 -7q17 0 39 12.5t46 31.5t49 42t47 44v8q-136 -132 -179 -132q-14 0 -14 14q0 11 13 26l409 466h-45z" />
    <glyph glyph-name="V" unicode="V" horiz-adv-x="354" 
d="M94 17q47 48 84 86.5t68 76.5t59 79t57 94q5 10 13.5 22.5t18 26.5t20 28.5t19.5 27.5q8 10 13 16t11 12l13.5 13.5l19.5 19.5q7 7 7 11q0 1 -4 1t-21 -19q-29 -34 -65 -59.5t-80 -25.5q-14 0 -19 4.5t-5 18.5q0 10 -1.5 23.5t-9 26t-24 21.5t-47.5 9q-33 0 -65 -11.5
t-57 -30.5t-40 -42.5t-15 -48.5q0 -29 21.5 -47t55.5 -18q36 0 75 21.5t67 57.5l-5 2q-30 -35 -66.5 -55t-71.5 -20q-30 0 -49.5 17.5t-19.5 43.5q0 23 15 45.5t40 40.5t56 29t63 11q27 0 43 -10t16 -27q0 -4 -1.5 -15.5t-1.5 -14.5q-1 -17 12 -27.5t35 -10.5q40 0 82 30
q10 6 14 7q-23 -27 -39.5 -46t-28.5 -33t-20 -23.5t-15 -17.5l-16 -19q-8 -10 -16 -21t-19 -26t-25 -35.5t-34 -50.5l-14 -22q-21 -31 -39 -56t-36 -46.5t-37.5 -42t-42.5 -42.5l3 -5q52 18 101.5 50.5t93 70.5t80 76.5t63.5 68.5l37 40q6 7 10.5 12.5t15.5 17.5
q43 49 82 89t76 68.5t72 44t70 15.5q26 0 44.5 -8.5t18.5 -20.5q0 -4 -3 -4q-1 0 -4.5 1t-4.5 1q-15 0 -15 -15q0 -8 4 -13t12 -5q10 0 16 7.5t6 16.5q-1 20 -20 33.5t-48 13.5q-43 0 -84 -20.5t-79.5 -51t-72.5 -67t-63 -69.5q-69 -77 -119 -130.5t-93.5 -92t-86 -65.5
t-94.5 -52z" />
    <glyph glyph-name="W" unicode="W" horiz-adv-x="510" 
d="M470 178q-48 -51 -94.5 -93t-84.5 -69q-13 -10 -22.5 -15t-23.5 -13l14 15q24 27 43 48t39 46t44 58t60 83l70 108l38 60q17 22 29 36.5t23 27.5t23.5 25.5t29.5 30.5l-6 3q-63 -41 -128.5 -107.5t-149.5 -156.5l-35 -38q-27 -30 -58 -62.5t-65 -64.5t-70.5 -61
t-75.5 -51l20 22q57 64 91.5 104t56.5 69.5t37.5 53.5t33.5 56q37 63 74 114t93 99q14 11 18 15.5t4 6.5t-2 2q-5 0 -12 -6t-13 -13q-15 -15 -33 -30.5t-36 -28t-36.5 -20t-34.5 -7.5q-23 0 -24 21q0 2 1.5 11t1.5 11q0 28 -23.5 44.5t-63.5 16.5q-34 0 -65.5 -11.5
t-55.5 -30t-38.5 -43t-14.5 -51.5q0 -30 20 -47.5t55 -17.5q41 0 74.5 19t70.5 64l-4 4q-67 -80 -140 -80q-31 0 -49.5 16t-18.5 42q0 25 14.5 48.5t37.5 41.5t53 29t62 11q29 0 48 -11.5t19 -28.5q0 -3 -2 -15t-2 -15q0 -16 10.5 -25t28.5 -9q14 0 30 5t36 15q9 5 13 6
l-9 -9q-34 -36 -59 -63t-45 -52t-38 -50.5t-39 -57.5l-8 -12q-5 -7 -11 -17.5l-14 -24.5q-41 -66 -74 -111t-63 -73l4 -6q41 17 88.5 54.5t94 82t88 89.5t71.5 78l19 21q40 44 74.5 79.5t61 60.5t42 38.5t18.5 13.5q4 0 -5.5 -11t-20.5 -21q-12 -11 -26 -26t-26 -29l-40 -45
q-24 -27 -48 -60t-47.5 -68t-45 -70.5t-40.5 -68.5q-23 -40 -45 -67t-39 -44l4 -5q40 19 77.5 46.5t78 64.5t86.5 85t103 109q47 49 91.5 94t87 79t83 54.5t79.5 21.5q23 0 38 -9.5t15 -23.5q0 -4 -3 -4q-1 0 -4.5 1t-4.5 1q-15 0 -15 -15q0 -16 15 -16q19 0 19 26
q0 21 -16 33t-45 12q-45 0 -95 -28t-120 -91q-16 -15 -35 -34t-37.5 -38t-35 -36.5t-28.5 -29.5z" />
    <glyph glyph-name="X" unicode="X" horiz-adv-x="615" 
d="M540 276q40 52 85.5 97.5t91.5 79t88 52.5t74 19q33 0 33 -28q0 -38 -65 -88q-48 -38 -123 -70.5t-184 -61.5zM472 253q-63 -75 -121 -127.5t-108 -85.5t-92.5 -48t-73.5 -15q-19 0 -31 8t-12 20q0 26 31 61t82 67q28 18 59 33t69.5 29t86.5 28t110 30zM529 461
q-17 -34 -40 -62t-50 -48t-56.5 -31t-58.5 -11q-28 0 -43.5 12.5t-15.5 35.5q0 29 21.5 59t55.5 54t76 39t83 15q35 0 56.5 -21t21.5 -54q0 -20 -5.5 -39.5t-17.5 -42t-31.5 -49t-47.5 -59.5q-65 -15 -116 -29t-93 -29.5t-76 -32.5t-63 -37q-48 -33 -75 -66.5t-27 -60.5
q0 -15 13.5 -24t36.5 -9q59 0 138 42t176 124q15 13 25 19q-32 -53 -46 -86.5t-14 -59.5q0 -39 43 -39q19 0 40.5 7t47.5 22.5t57 40.5t70 60v8q-27 -23 -55 -46.5t-56 -42.5t-54.5 -31t-50.5 -12q-32 0 -32 28q0 11 8.5 32.5t23.5 47.5q13 22 25.5 41.5t27.5 40t35 44.5
t47 56q117 31 191.5 64.5t117.5 65t59.5 58t16.5 43.5q0 14 -10 23t-27 9q-26 0 -60.5 -13t-74.5 -37t-85 -59t-91 -78q11 29 15 49.5t4 43.5q0 94 -90 94q-43 0 -86.5 -15.5t-78 -40.5t-56 -55.5t-21.5 -61.5q0 -26 17.5 -40.5t48.5 -14.5q6 0 29.5 3t54 18.5t65 47
t63.5 88.5z" />
    <glyph glyph-name="Y" unicode="Y" horiz-adv-x="448" 
d="M364 464q-23 -46 -51.5 -74t-56 -43t-51.5 -19.5t-36 -4.5q-20 0 -32 11t-12 30q0 28 20 56.5t52 51.5t71.5 38t78.5 15q32 0 51 -15t19 -40q0 -28 -20 -59.5t-68 -79.5q-47 -47 -72.5 -79t-38 -54t-15 -35.5t-2.5 -23.5q0 -33 39 -33q38 0 87 28.5t106 84.5
q-6 -10 -22 -30.5t-36 -44t-41 -47.5t-37 -41q-35 -38 -79 -58t-91 -20q-40 0 -63.5 16.5t-23.5 44.5q0 8 3 14t8 8q3 -17 17 -17q16 0 16 15q0 16 -19 16q-15 0 -24 -10t-9 -28q0 -29 26 -47.5t68 -18.5t79.5 13.5t74 40t74 64t79.5 85.5l273 308h-43l-197 -220
q-63 -70 -123.5 -110t-105.5 -40q-12 0 -20 6t-8 16q0 8 8 21t20.5 29t29 34t34.5 36l39 40q24 25 40.5 46t27 40t15 37t4.5 37q0 37 -22 57t-64 20q-39 0 -78.5 -15.5t-71.5 -39.5t-52.5 -54t-20.5 -59q0 -20 13.5 -33t36.5 -13q35 0 75.5 18.5t72.5 49.5q9 8 15.5 16
t12.5 16.5t11.5 19.5l12.5 25z" />
    <glyph glyph-name="Z" unicode="Z" horiz-adv-x="542" 
d="M549 413q54 51 102.5 81t73.5 30q15 0 15 -12q0 -15 -38 -41t-74.5 -39.5t-78.5 -18.5zM435 429q-40 -42 -75 -60t-77 -18q-32 0 -49.5 14t-17.5 38t15 46t40 38.5t58 26.5t69 10q34 0 54.5 -9.5t20.5 -24.5q0 -4 -1 -8t-4 -12q-7 -15 -7 -25q0 -38 68 -40q-3 -4 -12 -12
t-19.5 -16.5t-19.5 -16t-12 -10.5l-65 -56q-11 2 -17 2q-5 0 -16 1q-33 -2 -50.5 -8.5t-33.5 -23.5l6 -3q13 12 24 17t25 5q11 0 19.5 -2t23.5 -7l-72 -75l-100 -106l-15 -6q-81 -33 -124.5 -61.5t-43.5 -48.5q0 -9 10 -9q7 0 21 6q17 7 54 34t79 61q17 14 32.5 22.5
t32.5 13.5q16 5 33.5 10t39.5 10q20 5 45 5q38 0 38 -21q0 -9 -6.5 -17.5t-23.5 -20.5q-27 -19 -38 -37t-11 -41q0 -24 25 -24q15 0 34.5 10t42 27t46.5 38.5t48 45.5l12 10v8q-69 -64 -111.5 -98.5t-71.5 -34.5q-17 0 -17 10q0 14 29 38q51 42 51 80q0 33 -48 33
q-15 0 -34 -3.5t-38.5 -8.5t-38.5 -11t-33 -12l21 18q26 22 71 61t94 87q25 -2 42.5 -1t30.5 4.5t22 9t17 11.5l-4 4q-16 -8 -25.5 -11t-24.5 -4q-11 1 -18 2t-21 5l108 119q34 3 70.5 15t65.5 28t48 33t19 31q0 16 -17 16q-16 0 -36 -9t-42.5 -23.5t-47 -33t-48.5 -38.5
l-18 -15h-5q-49 0 -49 22q0 6 4 15q6 16 6 25q0 26 -25.5 41t-71.5 15q-38 0 -71.5 -10.5t-59 -27.5t-40.5 -40t-15 -48q0 -27 20 -43t54 -16q83 0 158 81z" />
    <glyph glyph-name="bracketleft" unicode="[" horiz-adv-x="271" 
d="M-124 -136h154l4 6h-124l569 648h95l2 5h-121z" />
    <glyph glyph-name="backslash" unicode="\" horiz-adv-x="156" 
d="M-41 452l268 -593h10l-268 593h-10z" />
    <glyph glyph-name="bracketright" unicode="]" horiz-adv-x="271" 
d="M343 518h123l-563 -649h-101l-3 -6h127l572 661h-150z" />
    <glyph glyph-name="asciicircum" unicode="^" horiz-adv-x="422" 
d="M298 656l-211 -350h46l171 287l171 -287h45l-208 350h-14z" />
    <glyph glyph-name="underscore" unicode="_" horiz-adv-x="500" 
d="M428 -75h-516v-50h516v50z" />
    <glyph glyph-name="quoteleft" unicode="&#x2018;" horiz-adv-x="156" 
d="M325 425q-33 -13 -55.5 -29t-22.5 -27q0 -8 9 -8q7 0 12 4.5t13 15.5q11 17 19.5 24t25.5 15z" />
    <glyph glyph-name="a" unicode="a" horiz-adv-x="260" 
d="M137 167q19 0 19 -19q0 -15 -18 -39t-43.5 -47.5t-52 -40.5t-42.5 -17q-8 0 -13 5t-5 12q0 10 14.5 33.5t37.5 48t50 43.5t53 21zM259 109l-35 -30t-43 -34.5t-42 -28.5t-31 -12q-6 0 -6 7q0 5 8 16.5t19.5 25.5t24.5 28.5t24 26.5q16 19 42 48l12 16l-41 -3l-30 -34
l1.5 7.5t0.5 7.5q0 22 -27 22q-20 0 -49 -8.5t-55.5 -25t-45 -41t-18.5 -55.5q0 -20 9 -32.5t23 -12.5q15 0 35.5 11.5t53.5 39.5q5 5 8 7t7 6q-7 -21 -9.5 -30.5t-2.5 -16.5q0 -17 13 -17q17 0 52 23t83 65l19 16v8z" />
    <glyph glyph-name="b" unicode="b" horiz-adv-x="240" 
d="M213 301q-8 -8 -26.5 -25t-45 -41t-60 -53.5t-71.5 -62.5l-16 -14v-8l158 138q-6 -9 -22.5 -28t-35 -40t-35 -39.5t-22.5 -25.5q-22 -28 -31 -46.5t-9 -37.5q0 -20 22 -20q66 0 149 81q4 -1 7 -2t9 0q15 1 26.5 5.5t28.5 18.5v8q-19 -17 -33.5 -22t-31.5 -2q40 49 40 80
q0 6 -4 6q-2 0 -8.5 -4t-8.5 -24q-2 -23 -13 -40t-40 -41q-32 -27 -64.5 -43t-55.5 -16q-12 0 -12 8q0 4 10 18t25.5 33t33.5 40t34 39.5t28 31.5t14 16l10 10l202 227l-41 -2z" />
    <glyph glyph-name="c" unicode="c" horiz-adv-x="198" 
d="M197 109q-12 -11 -34 -29t-47.5 -35t-53 -29.5t-51.5 -12.5q-26 0 -26 16q0 14 16 39t39.5 49t50.5 41.5t49 17.5q20 0 20 -17q0 -5 -2 -9t-4 -4q-3 0 -4 4q-3 7 -12 7q-7 0 -12 -5t-5 -12q0 -13 15 -13q12 0 21 10t9 23q0 22 -28 22q-19 0 -47 -8.5t-54.5 -24.5
t-45.5 -39.5t-19 -54.5q0 -48 40 -48q37 0 83.5 27.5t101.5 76.5v8z" />
    <glyph glyph-name="d" unicode="d" horiz-adv-x="260" 
d="M159 127q3 9 4 14.5t1 10.5q0 21 -25 21q-12 0 -39.5 -7t-55.5 -22.5t-49.5 -40t-21.5 -60.5q0 -46 28 -46q42 0 108 68l1 -2q-5 -11 -9.5 -26t-4.5 -26q0 -14 13 -14q9 0 24.5 8t33.5 21.5t38 29.5t39 33l15 12v8l-17 -13q-6 -6 -24 -21t-38 -30.5t-39 -28t-27 -12.5
q-9 0 -9 7q0 8 14.5 25.5t34.5 40.5l308 351l-41 -2zM138 168q9 1 14.5 -5t5.5 -15q0 -16 -18.5 -40.5t-44 -48t-52 -40.5t-42.5 -17q-8 0 -12.5 5t-4.5 13q0 13 16 37.5t39.5 48.5t50.5 42t48 20z" />
    <glyph glyph-name="e" unicode="e" horiz-adv-x="198" 
d="M30 95q28 32 57.5 51.5t51.5 19.5q17 0 17 -14q0 -6 -7.5 -15.5t-23 -19t-39 -16t-56.5 -6.5zM197 109q-63 -57 -106.5 -81.5t-78.5 -24.5q-28 0 -28 19q0 11 10 27.5t27 36.5q64 2 104 19.5t40 43.5q0 11 -8 17.5t-22 6.5q-12 0 -39 -7t-55 -23t-49 -40.5t-21 -59.5
q0 -46 41 -46q73 0 176 95q5 6 9 9v8z" />
    <glyph glyph-name="f" unicode="f" horiz-adv-x="198" 
d="M-6 97q3 2 4.5 4t5.5 5q8 7 11.5 10t7.5 4v-15q-12 -23 -30 -51t-39 -57.5t-43 -58t-42 -51.5l-89 -104h39l235 282q14 -6 22.5 -8t18.5 -2q53 0 102 46v8q-29 -26 -52.5 -36.5t-51.5 -10.5q-10 0 -17 2t-17 7l105 127q63 31 117.5 66t94.5 69t62.5 64t22.5 53
q0 26 -26 26q-55 0 -187 -151l-57 -65q-11 -13 -23.5 -27.5t-26.5 -30.5l-11 -13q-17 -8 -31 -15t-40 -21v7q0 5 -1 8.5t-7 3.5q-9 0 -17 -12.5t-9 -28.5q-2 -2 -6.5 -5.5t-9.5 -7.5t-9.5 -8t-5.5 -5v-8zM117 175q-4 -6 -15 -18.5t-23 -26.5t-23 -26.5t-15 -17.5
q-5 5 -6 7.5t-2 6.5q0 3 2 6t5 8q7 8 10.5 14.5t6.5 15.5q3 1 10 5t16 9t18.5 9.5t15.5 7.5zM223 268q29 36 59 72t58.5 65t52.5 47t41 18q9 0 15 -5.5t6 -15.5q0 -12 -11 -31.5t-37 -47.5q-17 -17 -44 -39t-59 -43.5t-65.5 -42t-62.5 -34.5zM35 79l-75 -88q3 6 13 21
t20.5 31.5t20.5 31t13 20.5z" />
    <glyph glyph-name="g" unicode="g" horiz-adv-x="260" 
d="M156 149q0 -14 -18.5 -38t-43.5 -47.5t-51 -41t-42 -17.5q-8 0 -13.5 4.5t-5.5 11.5q0 12 16 36.5t39 49t50 43t50 18.5q19 0 19 -19zM-10 -71q-9 -12 -21 -26.5l-24 -29t-22 -26t-16 -17.5q-43 -47 -71 -66.5t-52 -19.5q-11 0 -18.5 6.5t-7.5 16.5q0 19 25 47
q16 17 36 31t45 27t56 26.5t70 30.5zM-2 -60l-78 -34q-78 -32 -122.5 -69.5t-44.5 -69.5q0 -12 8.5 -20.5t21.5 -8.5q16 0 35 8t48 31.5t71 65.5t104 110q26 12 49.5 24.5t48 29.5t53.5 39.5t67 54.5v8q-57 -50 -108 -86.5t-99 -56.5l181 206l-42 -2l-32 -36q4 12 4 18
q0 21 -28 21q-22 0 -51 -9t-54.5 -26t-43.5 -40.5t-18 -53.5q0 -45 34 -45q11 0 23 5t32 19q5 4 7.5 5.5t5.5 3.5z" />
    <glyph glyph-name="h" unicode="h" horiz-adv-x="323" 
d="M338 426q-27 -31 -46.5 -52t-41 -41.5t-48.5 -44.5t-68 -60l-140 -123v-8l19 17q25 22 40.5 36t25 22t14.5 12.5t9 8.5q40 33 59 50l60 51l-259 -295h42q40 44 86.5 79t97.5 67q13 8 27 15t20 7q9 0 9 -8q0 -7 -9.5 -19t-26.5 -26q-64 -52 -64 -96q0 -21 22 -21
q12 0 28.5 8t36 21.5t40.5 31t43 36.5l8 7v8q-35 -29 -60.5 -49.5t-43.5 -33t-30 -18t-21 -5.5q-13 0 -13 11q0 16 38 42q67 48 67 94q0 23 -21 23q-14 0 -41.5 -15.5t-56 -35.5t-53 -38.5t-31.5 -23.5l325 368z" />
    <glyph glyph-name="i" unicode="i" horiz-adv-x="156" 
d="M164 273q-8 0 -13 -5.5t-5 -13.5q0 -12 13 -12q7 0 11.5 5t4.5 13q0 13 -11 13zM-6 97q20 18 43 35.5t40 27.5l-16 -16q-42 -44 -59.5 -73t-17.5 -54q0 -19 16 -19q15 0 37 12.5t44.5 29.5t42.5 34t31 27v8q-51 -48 -93 -76.5t-62 -28.5q-9 0 -9 9q0 8 33 44q2 2 3.5 4
t2.5 3l94 106h-44q-20 -14 -40 -29t-46 -36v-8z" />
    <glyph glyph-name="j" unicode="j" horiz-adv-x="177" 
d="M177 274q-7 0 -12.5 -6t-5.5 -14q0 -5 4.5 -8t9.5 -3q6 0 11 5.5t5 13.5q0 12 -12 12zM-147 -152q-42 -56 -68.5 -79t-47.5 -23q-23 0 -23 25q0 23 20.5 47.5t52.5 48.5t71.5 47t78.5 44q-11 -14 -18.5 -25t-21.5 -28zM-5 97q55 51 96 65l-146 -193q-50 -24 -93 -50.5
t-74 -51.5q-69 -54 -69 -98q0 -13 7.5 -21t20.5 -8q6 0 13.5 1t18 7.5t26 20t39 39t56.5 64.5t79 95l10 12q57 24 103.5 53t93.5 69v8q-19 -17 -42.5 -34t-48 -33t-49.5 -29t-47 -21l148 177h-44q-4 0 -29 -12t-70 -52z" />
    <glyph glyph-name="k" unicode="k" horiz-adv-x="323" 
d="M131 220q-11 -9 -25 -21.5t-27 -23.5t-22.5 -19t-10.5 -9l-52 -42v-8l15 13q19 17 46.5 39t50.5 42l25 21q25 22 40 35t23.5 20.5t12 10t6.5 3.5l-251 -281h40l381 425h-41q-25 -30 -58.5 -65t-68.5 -67zM322 109q-54 -51 -97.5 -78.5t-69.5 -27.5q-11 0 -11 6
q0 5 5 11.5t10 11.5q19 20 19 41q0 16 -10 29q21 10 33.5 17t25.5 19q31 29 55 29q4 0 4 -2q0 -1 -0.5 -4t-0.5 -4q0 -12 12 -12q11 0 11 12q0 8 -7.5 12t-19.5 4q-18 0 -34 -7.5t-39 -27.5q-17 -14 -27 -20t-21 -11q-20 6 -28 6q-13 0 -13 -6q0 -8 21 -8q2 0 8.5 1t8.5 1
q6 0 6 -7q0 -5 -2 -9t-8 -11q-23 -29 -23 -53t21 -24q29 0 63.5 20.5t89.5 68.5l18 15v8z" />
    <glyph glyph-name="l" unicode="l" horiz-adv-x="156" 
d="M320 425l-20 -23q-66 -74 -105.5 -115.5t-61.5 -60.5l-139 -121v-8q10 9 26.5 23.5t35.5 31t37.5 32t31.5 25.5q-16 -18 -27.5 -31.5t-19.5 -22.5q-15 -16 -31 -34t-28.5 -36t-21 -35t-8.5 -31q0 -9 6 -15.5t14 -6.5q19 0 49.5 23.5t66.5 55.5q9 8 15 13t15 12v8
q-5 -4 -8.5 -7t-9.5 -8q-98 -91 -129 -91q-9 0 -9 10q0 4 5.5 12t14 18.5t18 21t17.5 19.5l306 342z" />
    <glyph glyph-name="m" unicode="m" horiz-adv-x="458" 
d="M-38 0h42l14 13q39 36 65.5 59.5t45.5 38t32.5 23.5t27.5 17q28 16 41 16q8 0 8 -7q0 -3 -7 -12t-17 -21t-22 -25.5t-22 -23.5l-72 -78h42q43 41 82.5 72t71 52t52.5 31.5t29 10.5t8 -8q0 -13 -40 -47q-62 -54 -62 -96q0 -18 19 -18q12 0 28.5 8t35.5 21t39.5 29.5
t40.5 33.5l13 12v8q-25 -21 -48.5 -40.5t-44 -34t-37 -23t-27.5 -8.5q-12 0 -12 10q0 8 9 17.5t31 25.5q36 26 51.5 48t15.5 45q0 10 -5 16.5t-13 6.5q-10 0 -27 -7q-19 -8 -56.5 -33t-79.5 -57l-14 -11q14 19 23.5 32.5t15.5 23.5t8.5 18.5t2.5 17.5q0 16 -18 16
q-29 0 -65 -25.5t-98 -76.5q20 25 32.5 44.5t12.5 38.5q0 20 -17 20q-13 0 -41 -18.5t-62 -49.5v-8l16 14q35 29 54.5 42t29.5 13q7 0 7 -5t-7 -14t-28 -32z" />
    <glyph glyph-name="n" unicode="n" horiz-adv-x="323" 
d="M-6 97q9 9 23 20.5t28 22.5t27 18.5t20 7.5q8 0 8 -6t-20 -29.5t-52 -57.5l-65 -73h39q36 34 74 64.5t70.5 53t57 35.5t33.5 13q3 0 6 -2.5t3 -5.5q0 -13 -46 -52q-26 -23 -40.5 -45.5t-14.5 -41.5q0 -9 6.5 -15.5t15.5 -6.5q16 0 40 14.5t47.5 32.5t42.5 35t25 22v8
q-43 -39 -71.5 -60.5t-46.5 -31.5t-26 -12t-10 -2q-5 0 -9.5 3.5t-4.5 8.5q0 7 8.5 16.5t29.5 24.5q35 26 51 48t16 45t-18 23q-11 0 -29 -7q-9 -4 -23 -12.5t-30.5 -19.5t-35.5 -24t-37 -27l-26 -20q27 34 39.5 53t12.5 36q0 21 -17 21q-9 0 -22 -7t-27 -17t-27.5 -21.5
t-24.5 -21.5v-8z" />
    <glyph glyph-name="o" unicode="o" horiz-adv-x="208" 
d="M136 167q9 1 16.5 -6t7.5 -17q0 -15 -16 -38.5t-39.5 -46.5t-50.5 -39.5t-48 -16.5q-25 0 -25 19q0 7 15.5 30t38.5 48t50 45.5t51 21.5zM207 109q-14 -11 -26.5 -17.5t-25.5 -6.5q-6 0 -9 2q11 17 16 29.5t5 26.5q0 30 -33 30q-19 0 -47.5 -10t-55.5 -28t-46.5 -42.5
t-19.5 -53.5q0 -18 10.5 -29.5t27.5 -11.5q57 0 137 82q4 -2 12 -2q15 0 28 6t27 17v8z" />
    <glyph glyph-name="p" unicode="p" horiz-adv-x="292" 
d="M169 263q-40 -38 -84.5 -78t-90.5 -80v-8q7 6 21.5 18.5t32 28.5t36.5 33t35.5 31t28 24t13.5 12l-410 -462h43l196 230q17 20 48.5 47t65 51t62.5 40.5t40 16.5q10 0 10 -9q0 -6 -9.5 -16.5t-30.5 -30.5q-62 -56 -62 -90q0 -23 24 -23q19 0 53.5 23.5t99.5 79.5v8
l-17 -14q-106 -91 -135 -91q-6 0 -10.5 3.5t-4.5 8.5q0 12 43 45q33 26 47.5 46.5t14.5 42.5q0 23 -20 23q-13 0 -38 -14t-52 -32.5t-51.5 -36.5t-34.5 -25l184 220h-24z" />
    <glyph glyph-name="q" unicode="q" horiz-adv-x="240" 
d="M140 166q18 0 18 -15q0 -18 -18.5 -43.5t-43.5 -49t-52 -40t-43 -16.5t-16 14q0 16 16.5 41.5t40.5 49.5t51 41.5t47 17.5zM-97 -219q7 9 11 14t10 13q28 31 74 76t102 95l139 122v8q-11 -10 -18.5 -16.5t-12.5 -10.5l-80 -70q-23 -20 -37.5 -33t-22.5 -20.5t-12 -11
t-7 -6.5l-60 -56l236 287h-19l-49 -51q5 11 6.5 17t1.5 13q0 21 -27 21q-17 0 -45 -7.5t-55 -23t-46.5 -40.5t-19.5 -60q0 -21 8.5 -33t22.5 -12q8 0 15 2t17 8t25 16.5t39 28.5l-239 -270h43z" />
    <glyph glyph-name="r" unicode="r" horiz-adv-x="198" 
d="M-6 97q23 21 49 41t40 31q11 -7 23 -7q5 0 8 0.5t8 1.5q-11 -11 -15 -17l-42 -46q-39 -42 -39 -88q0 -16 13 -16q15 0 39.5 15t49 33.5t44.5 35t25 20.5v8q-8 -6 -13.5 -11t-15.5 -13q-51 -42 -81.5 -62t-45.5 -20q-9 0 -9 8t16.5 27t36.5 40t36.5 40.5t16.5 29.5
q0 9 -4.5 16.5t-9.5 7.5q-1 0 -3.5 -0.5t-5.5 -0.5q-8 -2 -10 -2q-19 0 -19 15q0 6 4 13q11 -11 16 -11q6 0 10.5 4.5t4.5 9.5q0 14 -16 14q-11 0 -19 -11.5t-4 -27.5q-23 -17 -44.5 -34.5t-43.5 -35.5v-8z" />
    <glyph glyph-name="s" unicode="s" horiz-adv-x="208" 
d="M-6 105v-8l112 96q8 -12 11 -22t3 -24q0 -24 -11.5 -49t-29 -45.5t-39 -33.5t-42.5 -13q-14 0 -23 6t-9 16q0 4 4 7q1 -5 6 -9t11 -4q17 0 17 15q0 16 -19 16q-13 0 -21 -7.5t-8 -18.5q0 -14 11 -21.5t31 -7.5q13 0 32.5 4.5t40.5 14.5t39.5 25.5t28.5 37.5q5 -1 9 -1h7
q14 0 25.5 5.5t26.5 16.5v8q-28 -23 -52 -23q-3 0 -5.5 -0.5t-6.5 1.5q2 8 2 13t1 14q-2 26 -8.5 43t-22.5 42q1 0 5.5 2.5t9 6t8.5 7.5t4 8q0 8 -10 8q-3 0 -8 -5t-10.5 -11.5t-10 -12.5t-6.5 -8q-23 -20 -41.5 -35.5t-29.5 -25.5z" />
    <glyph glyph-name="t" unicode="t" horiz-adv-x="188" 
d="M161 242h-36l-8 -7h36q-18 -12 -33.5 -23.5t-32 -25t-35 -29.5t-41.5 -37l-17 -15v-8q46 42 78 69t58 43q-8 -10 -27 -31q-52 -54 -79.5 -95t-27.5 -65q0 -8 6.5 -13.5t17.5 -5.5q25 0 59.5 19t86.5 64l21 19v8q-56 -49 -98.5 -76t-67.5 -27q-5 0 -9 3t-4 6q0 2 6 10
t15.5 19.5t22 26t25.5 29.5l119 135h63l6 7h-63l81 92l-43 -3z" />
    <glyph glyph-name="u" unicode="u" horiz-adv-x="292" 
d="M84 170q-29 -17 -50 -32.5t-40 -32.5v-8q34 31 71 54l1 -1q-5 -7 -9.5 -12t-12.5 -14q-36 -39 -50.5 -62.5t-14.5 -43.5q0 -9 4.5 -15t12.5 -6q13 0 32.5 10t42 26t47 36.5t48.5 42.5q7 5 10 8.5t8 7.5q-2 -3 -3.5 -5t-5.5 -6q-62 -75 -62 -102q0 -17 18 -17q12 0 28 7.5
t35 20t40 29t43 34.5l14 12v8l-7 -6q-17 -15 -35 -29.5t-34.5 -26.5t-30 -21.5t-22.5 -13.5q-21 -9 -29 -9t-8 6q0 7 7 14l127 147h-39q-35 -35 -69.5 -65t-64.5 -52.5t-53 -35.5t-35 -13q-9 0 -9 6q0 5 5.5 12t20.5 24l110 124h-41z" />
    <glyph glyph-name="v" unicode="v" horiz-adv-x="250" 
d="M-6 97q45 38 67 54t37 16q10 0 10 -7q0 -6 -4.5 -12.5t-10.5 -12.5t-13 -11.5t-11 -8.5q-36 -27 -51.5 -48.5t-15.5 -44.5q0 -11 6.5 -17.5t17.5 -6.5q32 0 70 21.5t76 61.5q8 -5 12.5 -6t10.5 -1q12 0 24.5 6t29.5 21v8q-30 -29 -56 -29q-10 0 -16 5q23 26 33 44t10 32
q0 12 -7 12q-11 0 -13 -29q-1 -20 -20.5 -44.5t-46.5 -45.5t-55.5 -35.5t-47.5 -14.5q-14 0 -14 9q0 17 37 46q62 52 62 93q0 21 -17 21q-10 0 -24.5 -8t-29.5 -19t-28.5 -22.5t-21.5 -18.5v-8z" />
    <glyph glyph-name="w" unicode="w" horiz-adv-x="375" 
d="M276 169h-40q-20 -20 -42 -39.5t-45 -39.5l-11 -9l-48 -36t-34 -24t-24 -13t-19 -4q-8 0 -8 6q0 8 10 18l125 141h-41q-35 -17 -60.5 -32t-44.5 -32v-8q20 18 46.5 34t46.5 25q-5 -6 -9 -11t-13 -14q-38 -42 -54.5 -68.5t-16.5 -46.5q0 -18 15 -18q30 0 75 34t119 98
q-3 -5 -7 -9.5t-11 -12.5q-29 -32 -42 -54t-13 -39q0 -18 19 -18q14 0 32.5 6t38.5 16.5t41 25t39 31.5q11 -4 18 -4q13 0 25 6t31 23v8q-19 -17 -31 -23.5t-26 -7.5q-4 0 -6 0.5l-6 1.5q22 23 36.5 47t14.5 38q0 8 -7 8q-9 0 -16 -28q-6 -29 -21 -46q-19 -21 -39.5 -38
t-39.5 -27q-2 -2 -3.5 -2.5t-5.5 -2.5q-25 -13 -41.5 -19t-29.5 -6t-13 8q0 3 0.5 4.5t5.5 6.5z" />
    <glyph glyph-name="x" unicode="x" horiz-adv-x="313" 
d="M-6 97q82 70 136 70q7 0 12 -4t5 -9q0 -11 -18 -32.5t-44 -49.5q-26 -29 -48 -48.5t-48 -19.5q-12 0 -19.5 6t-7.5 14q0 4 3 13q4 -9 7 -13t11 -4q6 0 11 5t5 10q0 16 -19 16q-11 0 -18.5 -7.5t-7.5 -18.5q0 -12 9.5 -20t24.5 -8q20 0 41.5 12.5t55.5 43.5l14 13
q-5 -17 -7.5 -26.5t-2.5 -17.5q0 -25 30 -25q36 0 87.5 28t105.5 76v8q-60 -52 -109 -79t-83 -27q-22 0 -22 17q0 15 18 38t45 55q48 55 79 55q9 0 17.5 -7t3.5 -18q-6 9 -13 9q-14 0 -14 -13q0 -14 14 -14q9 0 15 6.5t6 16.5q0 25 -29 25q-19 0 -39.5 -11.5t-49.5 -38.5
l3 16.5t1 11.5q0 22 -25 22q-28 0 -60.5 -16.5t-75.5 -51.5v-8z" />
    <glyph glyph-name="y" unicode="y" horiz-adv-x="323" 
d="M-6 97q8 7 21.5 19t28.5 23t30 19.5t25 8.5t10 -9t-9.5 -20t-32.5 -28q-35 -26 -49 -47.5t-14 -45.5q0 -9 5 -14.5t13 -5.5q12 0 30.5 8.5t42 23.5t50.5 36t55 45l1 -1l-9 -11q-15 -16 -30 -33.5l-30 -35t-29 -34t-25 -30.5q-75 -34 -125 -65t-80.5 -57t-43.5 -46
t-13 -32q0 -26 31 -28q23 0 54.5 20.5t67 53.5t73.5 74.5t74 83.5l9 10q34 14 60 26t48 26t43 30.5t46 39.5v8q-27 -24 -49 -41t-43 -30.5t-43.5 -24.5t-50.5 -22l159 180h-41q-12 -14 -17.5 -20t-15.5 -16q-21 -20 -51.5 -43.5t-74.5 -52.5q-18 -12 -29 -19t-18.5 -10.5
t-12.5 -5t-10 -1.5q-8 0 -8 8q0 6 9.5 17.5t32.5 31.5q28 24 43 48.5t15 44.5q0 8 -4.5 14t-10.5 6q-17 0 -41.5 -16.5t-66.5 -51.5v-8zM71 -45q-19 -25 -38 -48l-38 -46q-53 -63 -88 -90t-62 -27q-20 0 -20 20q0 22 25 48.5t62.5 52t80 49t78.5 41.5z" />
    <glyph glyph-name="z" unicode="z" horiz-adv-x="211" 
d="M-6 105v-8l61 52q9 -12 29 -12q8 0 14 1t19 3l-111 -93q-21 -12 -38 -23.5t-17 -21.5q0 -5 5 -5q6 0 24 18q17 17 37 29t49 12q11 0 11 -3q0 -5 -8 -11q-18 -15 -18 -29q0 -16 17 -16q11 0 27 9.5t35 24.5t39.5 33t40.5 36v8q-3 -2 -6 -4.5l-9 -7.5q-14 -13 -31 -28.5
t-33.5 -29t-30 -22.5t-20.5 -9q-3 0 -3 3q0 2 2.5 6t5.5 8q10 11 10 18q0 21 -26 21q-18 0 -45 -8l106 89q30 8 47 19t17 22q0 5 -6 5q-4 0 -11 -4t-24 -17l-17 -14q-8 -6 -21.5 -9.5t-28.5 -3.5q-21 0 -32 17q2 0 9.5 -2t9.5 -2q17 0 17 14q0 13 -14 13q-15 0 -21 -10
t-4 -21z" />
    <glyph glyph-name="braceleft" unicode="{" 
d="M152 20q0 44 -0.5 74t-6 50.5t-16.5 32t-32 17.5q21 6 32 16.5t16 31t6 53t1 81.5v101q0 25 1.5 46t8 37.5t21 28.5t41.5 20v8q-38 -5 -58 -22t-29.5 -40.5t-11 -50.5t-1.5 -52v-125q0 -36 -2 -59.5t-7.5 -38t-15 -21.5t-25.5 -10v-8q22 -8 32.5 -20t14.5 -28.5
t3.5 -38.5t-0.5 -50v-128q0 -22 1.5 -46.5t11 -46t29.5 -37.5t58 -20v7q-27 7 -41 18t-20 26.5t-7.5 35.5t-3.5 45v113z" />
    <glyph glyph-name="bar" unicode="|" horiz-adv-x="484" 
d="M255 -250h25v1000h-25v-1000z" />
    <glyph glyph-name="braceright" unicode="}" 
d="M142 372q0 -44 0.5 -74t6 -50.5t16.5 -32t32 -17.5q-21 -6 -32 -16.5t-16 -31t-6 -53t-1 -81.5v-101q0 -25 -1.5 -46t-8 -37.5t-21 -29t-41.5 -19.5v-8q37 5 57.5 22t30 40.5t11 50.5t1.5 52v125q0 36 2 59.5t7.5 38t15 21.5t25.5 10v8q-22 8 -32.5 20t-14.5 28.5
t-3.5 38t0.5 50.5v128q0 22 -1.5 46.5t-11 46t-30 37t-57.5 20.5v-7q27 -7 41 -18t20 -26.5t7.5 -35.5t3.5 -45v-113z" />
    <glyph glyph-name="asciitilde" unicode="~" horiz-adv-x="667" 
d="M174 235q19 90 92 90q17 0 41 -7t68 -24l83 -34q37 -14 58 -20t39 -6q51 0 83 35.5t34 92.5h-19q-5 -45 -29 -68.5t-64 -23.5q-20 0 -43 7t-67 25q-53 23 -86.5 35.5t-53.5 18t-30 6.5t-16 1q-25 0 -48.5 -13t-38.5 -35q-11 -17 -15.5 -34t-6.5 -46h19z" />
    <glyph glyph-name="exclamdown" unicode="&#xa1;" horiz-adv-x="161" 
d="M178 250q0 -6 7 -6t13 5.5t6 12.5q0 9 -7 9q-5 0 -12 -6.5t-7 -14.5zM93 153q-3 -3 -18 -19t-35.5 -37.5t-43 -45t-40.5 -41.5q-15 -16 -24 -25t-13.5 -14.5t-5.5 -9t-1 -7.5q0 -11 12 -11q4 0 7.5 1.5t9 7t14 16t21.5 27.5q14 19 30 39t32.5 39.5t32 38t29.5 33.5l68 78
h-11z" />
    <glyph glyph-name="cent" unicode="&#xa2;" horiz-adv-x="198" 
d="M-11 10q-4 5 -4 11q0 16 16.5 40t39 46.5t44.5 38.5t34 16zM128 173q-33 -4 -62 -16t-50.5 -29.5t-33.5 -38.5t-12 -44q0 -25 15 -41l-84 -100h9l82 97q6 -2 9.5 -2.5t9.5 -0.5q22 0 47.5 10t51 25.5t49.5 35.5t44 40l-1 6q-14 -13 -36 -32t-47 -36.5t-52 -30t-51 -12.5
q-6 0 -9 0.5t-10 2.5l134 159q7 1 16.5 -2t9.5 -14q0 -6 -5 -12q-4 10 -15 10q-8 0 -13 -5t-5 -11q0 -15 16 -15q12 0 21 10.5t9 23.5q0 8 -3 12.5t-7.5 6.5t-9 2.5t-8.5 0.5l70 83h-8z" />
    <glyph glyph-name="sterling" unicode="&#xa3;" horiz-adv-x="667" 
d="M470 239q28 48 53 83.5t51 67.5q25 30 52.5 55t54.5 43t51.5 27.5t45.5 9.5q34 0 34 -28q0 -23 -27 -59t-73.5 -74t-109 -72t-132.5 -53zM194 -2q-20 -10 -54 -16t-68 -6q-30 0 -49 6.5t-19 17.5q0 10 17 16t45 6q14 0 27 -1.5t27 -4.5q14 -2 32 -6.5t42 -11.5zM491 530
q-69 0 -126.5 -18.5t-98.5 -48.5t-64 -68t-23 -77q0 -49 42 -79.5t111 -30.5q20 0 38.5 2t46.5 7l-41 -58q-11 1 -17 1.5t-18 0.5q-24 -1 -43 -4t-35.5 -9t-32.5 -15.5t-35 -24.5l5 -5q25 19 48 27t52 8q14 0 25 -1.5t31 -6.5q-9 -12 -24.5 -30t-35 -36t-42.5 -34.5
t-48 -26.5q-48 13 -78.5 19.5t-61.5 6.5q-33 0 -51 -7t-18 -21q0 -15 21.5 -23.5t60.5 -8.5q60 0 123 21q7 3 11 3q78 -22 138 -22q56 0 98 18t85 60l-5 4q-42 -40 -85 -58t-97 -18q-28 0 -55.5 5t-67.5 17q96 41 168 127q15 -2 25.5 -3t17.5 -1q74 0 134 41l-4 6
q-23 -14 -42 -19.5t-42 -5.5q-15 0 -29.5 2t-37.5 8q9 14 15.5 23.5t12 18t11 16t12.5 18.5q76 21 141 56.5t112 74.5t73.5 76t26.5 61q0 16 -10.5 25t-28.5 9q-59 0 -151 -74q-46 -37 -92.5 -88.5t-102.5 -127.5l-11 -16q-29 -6 -48 -8.5t-40 -2.5q-65 0 -103 29t-38 80
q0 28 18 62.5t55 64.5t93 51t132 23v5z" />
    <glyph glyph-name="yen" unicode="&#xa5;" horiz-adv-x="448" 
d="M300 284q54 55 75.5 93t21.5 76q0 36 -21.5 56.5t-59.5 20.5q-41 0 -81.5 -15t-73 -39t-53 -54t-20.5 -60q0 -20 13.5 -33t36.5 -13q37 0 79.5 20.5t74.5 54.5q14 14 23.5 28.5t22.5 42.5l-4 2q-11 -23 -18.5 -35t-17.5 -24q-33 -38 -76 -60t-83 -22q-20 0 -32 11t-12 29
q0 28 20 56.5t52 52t72 38t80 14.5q30 0 49 -15t19 -39q0 -14 -5 -29t-17 -33t-32 -41t-50 -53l-50 -52h-117l-4 -7h116q-32 -40 -44.5 -65.5t-12.5 -49.5q0 -34 37 -34q35 0 79 23t89 65l27 25q-4 -6 -6.5 -9.5t-5.5 -7.5l-7.5 -10t-12.5 -15q-42 -51 -74 -88t-63 -62
t-63.5 -37t-74.5 -12q-38 0 -62 16.5t-24 43.5q0 18 11 23q4 -17 17 -17q16 0 16 15q0 16 -19 16q-15 0 -24 -10t-9 -27q0 -30 26 -48.5t69 -18.5q41 0 77.5 13.5t73 39.5t74 63.5t81.5 86.5l72 81h114l3 7h-111l195 220h-43l-197 -220h-157zM430 255q-16 -17 -41.5 -41
t-55.5 -47t-62.5 -39t-63.5 -16q-12 0 -20 6t-8 16t12 27.5t27.5 36t31 34.5t22.5 23h158z" />
    <glyph glyph-name="florin" unicode="&#x192;" horiz-adv-x="556" 
d="M411 551l7 23q4 17 9 31.5t13 25t20.5 16.5t33.5 6q35 0 75 -10l10 48q-20 5 -33 8t-22.5 5t-17 2.5t-16.5 0.5q-39 0 -63 -13t-38.5 -32.5t-21.5 -42.5t-11 -42q-3 -13 -6 -28l-13 -52h-82l-9 -45h82l-126 -581q-15 -49 -73 -49q-16 0 -31.5 2.5t-39.5 8.5l-11 -49
q29 -8 48 -11.5t39 -3.5q59 0 89.5 28.5t45.5 98.5l121 556h107l11 45h-109z" />
    <glyph glyph-name="section" unicode="&#xa7;" horiz-adv-x="479" 
d="M490 456q-15 4 -31 6t-27 2q-48 0 -77.5 -24t-46.5 -61.5t-24.5 -83t-12.5 -87.5q-7 -59 -16.5 -118t-29.5 -101q-22 -45 -56 -69.5t-72 -24.5q-26 0 -46 12t-20 27q0 6 8 6q6 0 10 2.5t4 10.5q0 14 -14 14q-9 0 -15 -6.5t-6 -17.5q0 -26 24.5 -42.5t61.5 -16.5
q79 0 133 72q17 -5 27.5 -6.5t24.5 -1.5q45 0 74 17.5t47.5 50.5t29 80.5t16.5 107.5q7 57 16 117t31 105q21 44 55 68.5t74 24.5q22 0 35 -6t20 -13t9 -13t2 -7q0 -4 -6 -4q-16 0 -16 -13q0 -15 15 -15q8 0 14 6.5t6 15.5q0 26 -24 42.5t-60 16.5q-85 0 -137 -73zM414 177
q-6 -44 -14 -84t-22 -70t-38 -48t-61 -18q-8 0 -15.5 1t-20.5 5q13 22 22 42t15.5 44.5t12.5 56t13 77.5l8 52q6 42 11 71.5t11.5 51.5t15 37.5t22.5 29.5q29 29 73 29q11 0 19 -1t18 -4q-14 -24 -22.5 -42t-16.5 -46q-7 -24 -14 -65t-14 -90z" />
    <glyph glyph-name="currency" unicode="&#xa4;" horiz-adv-x="676" 
d="M164 524l-26 -26l61 -60q-14 -20 -24 -36.5t-16 -33t-8.5 -33.5t-2.5 -37t2.5 -37.5t8.5 -34t16 -33t24 -35.5l-61 -60l26 -25l61 60q37 -29 67.5 -40t68.5 -11q40 0 72 11.5t70 39.5l61 -60l25 25l-61 61q28 37 39.5 68t11.5 71t-11.5 70.5t-39.5 68.5l61 61l-25 26
l-61 -61q-39 29 -69 40t-70 11t-70.5 -11t-69.5 -40zM185 298q0 37 14 69.5t38.5 57t57 38.5t69.5 14t69.5 -14t56.5 -38.5t38 -57t14 -69.5t-14 -69.5t-38 -57t-56.5 -38.5t-69.5 -14t-69.5 14t-57 38.5t-38.5 57t-14 69.5z" />
    <glyph glyph-name="quotesingle" unicode="'" horiz-adv-x="156" 
d="M130 343l36 78q8 16 8 23q0 13 -16 13q-22 0 -28 -36l-8 -78h8z" />
    <glyph glyph-name="quotedblleft" unicode="&#x201c;" horiz-adv-x="229" 
d="M360 426q-35 -14 -55.5 -29.5t-20.5 -26.5q0 -9 8 -9q12 0 24 18q10 16 19.5 24.5t27.5 17.5zM283 426q-34 -15 -55.5 -30t-21.5 -25t10 -10q8 0 14 7t11 15q11 15 19.5 23t25.5 16z" />
    <glyph glyph-name="guillemotleft" unicode="&#xab;" horiz-adv-x="281" 
d="M159 24q9 22 9 39q0 8 -1 14t-5 15q27 14 46 27.5t39 33.5l-4 4q-30 -25 -53.5 -37.5t-54.5 -21.5q11 -14 15.5 -24t5.5 -26q0 -7 -0.5 -10.5t-2.5 -10.5zM76 15q5 14 7 22.5t2 18.5q0 14 -3.5 24.5t-11.5 26.5q69 26 131 79l-5 4q-35 -26 -79 -47t-90 -33q18 -14 27 -26
t13 -23.5t4.5 -22t-0.5 -20.5z" />
    <glyph glyph-name="guilsinglleft" unicode="&#x2039;" horiz-adv-x="229" 
d="M77 15q5 12 7 20.5t2 19.5q0 17 -4 28.5t-12 22.5q44 17 73.5 35t58.5 44l-4 5q-42 -30 -82.5 -49t-88.5 -31q46 -34 46 -76v-8q0 -4 -2 -10z" />
    <glyph glyph-name="guilsinglright" unicode="&#x203a;" horiz-adv-x="229" 
d="M4 13q42 29 82.5 48.5t88.5 32.5q-19 13 -29 25.5t-14 24.5t-4 22q0 11 1 19l-4 2q-5 -14 -7 -23t-2 -18q0 -14 4 -24.5t13 -24.5q-38 -16 -68 -34t-64 -46z" />
    <glyph glyph-name="fi" unicode="&#xfb01;" horiz-adv-x="354" 
d="M-6 105v-8l26 23q-1 -4 -1 -8q0 -3 2 -11q-7 -12 -23 -37t-38 -57t-48.5 -67.5t-54.5 -67.5l-76 -89h40l227 278q14 -5 23.5 -7t21.5 -2q35 0 60.5 17t49.5 37q24 21 38 31.5t27 16.5q-3 -4 -9 -9q-80 -86 -80 -130q0 -19 16 -19q20 0 62 28.5t96 76.5v8l-8 -6
q-54 -49 -92 -75t-58 -26q-9 0 -9 7q0 9 9 20l123 139h-44q-8 -4 -19 -12t-24 -18.5t-27 -22t-26 -21.5q-44 -36 -86 -36q-11 0 -19 2t-19 7l105 128q36 19 64.5 35.5t52.5 31.5t44.5 29.5t39.5 30.5q46 38 71.5 70.5t25.5 55.5q0 11 -7.5 18.5t-17.5 7.5q-23 0 -50.5 -18
t-59.5 -49t-68.5 -73t-77.5 -90q-8 -10 -22 -26t-32 -36q-7 -2 -16.5 -6.5t-29.5 -15.5q-8 -4 -12.5 -6.5t-9.5 -5.5q0 4 0.5 12t-6.5 8q-2 0 -11 -5.5t-15 -27.5q-1 -2 -1 -3t-1 -3zM180 220q31 39 67 82.5t69.5 80t63 60.5t49.5 24q9 0 15 -6t6 -14q0 -19 -19.5 -45.5
t-55 -57t-84.5 -64t-108 -66.5l-14 -8zM27 96q11 14 24 43q14 9 30 17.5t31 14.5q-9 -12 -21 -26t-23 -26.5t-20 -23t-13 -14.5zM358 271q-7 0 -12 -5.5t-5 -12.5q0 -13 13 -13q16 0 16 19q0 12 -12 12zM32 76l-75 -86l66 100z" />
    <glyph glyph-name="fl" unicode="&#xfb02;" horiz-adv-x="354" 
d="M-6 97q7 5 13 11t13 11v-20q-21 -36 -44.5 -70.5t-45.5 -64.5t-41.5 -54t-31.5 -39l-75 -88h38l230 277q14 -5 23.5 -7t20.5 -2q22 0 40.5 7t38.5 23l155 131q-7 -8 -13.5 -16t-18.5 -21q-111 -117 -111 -162q0 -8 5.5 -13.5t13.5 -5.5q11 0 26.5 8.5t34 22t39 31.5
t41.5 38l8 7v8l-6 -5q-112 -105 -142 -105q-11 0 -11 10q0 3 3 8t11.5 15t24 27.5t40.5 44.5l286 318h-41l-113 -125q-26 -29 -63.5 -64t-85.5 -74q-8 -6 -13.5 -11t-17.5 -15q-26 -23 -44.5 -37.5t-32.5 -23t-27 -11.5t-29 -4q-14 1 -20 2.5t-16 7.5l103 126q66 35 117 66
t89 63q45 36 69.5 68.5t24.5 55.5q0 11 -7 18t-18 7q-23 0 -60.5 -25t-79.5 -70q-24 -26 -61.5 -68.5t-97.5 -114.5l-11 -13q-8 -2 -17.5 -6t-29.5 -14q-8 -5 -12.5 -7t-10.5 -5q4 19 -6 19q-7 0 -14 -10t-12 -25l-2 -3l-26 -24v-8zM179 216q13 17 34.5 42.5t45 53.5t47 54
t41.5 44q56 54 85 54q20 0 20 -20q0 -23 -27.5 -55t-69 -65t-91 -64.5t-93.5 -53.5zM28 97q8 10 12.5 18.5t9.5 21.5q26 18 62 32q-17 -20 -29 -34.5t-21 -24.5t-15 -17.5t-12 -13.5zM32 76l-74 -86l65 100z" />
    <glyph glyph-name="endash" unicode="&#x2013;" horiz-adv-x="375" 
d="M-6 84h380v6h-380v-6z" />
    <glyph glyph-name="dagger" unicode="&#x2020;" horiz-adv-x="477" 
d="M260 154l-47.5 -47.5l-37.5 -37.5t-31.5 -31t-29.5 -28q-45 -42 -71.5 -74.5t-26.5 -43.5q0 -5 7 -5q12 0 25.5 9t36.5 31q10 11 21 23t23 27t27 33.5t33 43.5q15 20 26 34t20 25.5t17.5 21t18.5 20.5l156 171q17 2 38.5 0t41.5 -5q32 -4 53.5 -6t38.5 -2q32 0 52.5 6.5
t20.5 16.5q0 9 -13 11t-33 2q-11 0 -36.5 -2t-53.5 -5t-53 -5t-34 -2h-13q12 15 22.5 27t22.5 24t26.5 25t33.5 29q25 22 39.5 36.5t21.5 24t9 14.5t2 8q0 6 -10 6q-12 0 -26 -10.5t-28 -26t-27.5 -33.5t-23.5 -33q-12 -17 -20 -29t-16 -21.5t-16.5 -19t-20.5 -21.5
q-10 0 -34.5 2.5t-51.5 5.5q-27 2 -51 4.5t-33 2.5q-34 0 -52.5 -5.5t-18.5 -16.5q0 -9 16 -11.5t37.5 -2t43 2.5t32.5 4q24 3 39 4t26 2t19 0.5t19 -0.5z" />
    <glyph glyph-name="daggerdbl" unicode="&#x2021;" horiz-adv-x="521" 
d="M467 328l-216 -239q-10 0 -34.5 2t-52 5t-51.5 5t-33 2q-33 0 -52.5 -6.5t-19.5 -17.5q0 -12 50 -12q10 0 35 2t53 5t52.5 5t33.5 2h11q-8 -10 -17 -20t-20.5 -21t-26 -25t-34.5 -32q-11 -10 -24.5 -22.5t-25.5 -25.5t-20.5 -24t-8.5 -18q0 -6 9 -6q20 0 44.5 23.5
t62.5 77.5q12 17 21 29.5t17 23t16 19.5t19 20q7 0 13.5 0.5t15.5 0t21.5 -1.5t31.5 -4q29 -5 45.5 -6.5t33.5 -1.5q36 0 58.5 6t22.5 16q0 7 -9.5 10t-32.5 3q-12 0 -39 -2t-57.5 -4.5t-57.5 -4.5t-37 -2l215 239q18 1 36 0t51 -6q29 -5 45 -6t33 -1q38 0 59 6t21 17
q0 5 -14 8.5t-38 3.5q-11 0 -37.5 -2.5t-56 -5.5t-55.5 -5t-36 -2q13 16 24 28t22 23t24 23t31 27q9 8 22 20t24.5 24t20 24t8.5 20q0 7 -10 7q-14 1 -40.5 -23t-67.5 -83q-12 -17 -20.5 -29t-16 -21.5t-15.5 -18.5t-18 -20q-15 0 -25.5 0.5t-21.5 1.5t-23 2.5t-30 3.5
q-27 4 -42.5 5.5t-28.5 1.5q-31 0 -51.5 -6.5t-20.5 -15.5q0 -13 46 -13q10 0 35.5 2t53 4t52.5 4t34 2h14z" />
    <glyph glyph-name="periodcentered" unicode="&#xb7;" horiz-adv-x="313" 
d="M162 139q0 12 -11 12q-7 0 -13.5 -6t-6.5 -12q0 -4 3.5 -7.5t8.5 -3.5q8 0 13 5t6 12z" />
    <glyph glyph-name="paragraph" unicode="&#xb6;" horiz-adv-x="453" 
d="M457 614v27h-241q-104 0 -162 -48.5t-58 -136.5q0 -36 12 -69t35 -56q26 -27 67.5 -41t105.5 -17l14 -1v-509h36v851h90v-851h36v851h65z" />
    <glyph glyph-name="bullet" unicode="&#x2022;" horiz-adv-x="350" 
d="M236 328q-23 0 -39.5 -16.5t-16.5 -39.5t16.5 -39t39.5 -16t39 16.5t16 39.5t-16 39t-39 16z" />
    <glyph glyph-name="quotesinglbase" unicode="&#x201a;" horiz-adv-x="165" 
d="M-37 -42q38 16 58 30.5t20 25.5q0 10 -9 10q-6 0 -16 -9q-2 -2 -3.5 -4t-4.5 -7q-10 -15 -19 -23t-29 -18z" />
    <glyph glyph-name="quotedblbase" unicode="&#x201e;" horiz-adv-x="229" 
d="M-44 -39q2 2 4.5 2.5t6.5 2.5q67 31 67 50q0 9 -9 9q-11 0 -24 -19q-10 -16 -19 -23.5t-29 -16.5zM34 -40q33 13 55.5 29t22.5 27q0 9 -8 9q-11 0 -22 -16q-11 -17 -21.5 -26.5t-28.5 -17.5z" />
    <glyph glyph-name="quotedblright" unicode="&#x201d;" horiz-adv-x="229" 
d="M75 363q38 17 58 31t20 25q0 3 -3 6t-7 3q-12 0 -23 -18q-9 -15 -18 -23t-30 -19zM154 363q76 35 76 55q0 10 -8 10t-17 -9l-3.5 -3.5t-3.5 -6.5q-8 -14 -18 -22.5t-29 -18.5z" />
    <glyph glyph-name="guillemotright" unicode="&#xbb;" horiz-adv-x="281" 
d="M9 46q27 24 52 38.5t55 22.5q-12 17 -15.5 26t-4.5 23q1 8 1 11q0 4 2 11l-6 1q-5 -11 -7 -19.5t-2 -19.5q0 -13 5 -27q-33 -19 -50.5 -31.5t-33.5 -29.5zM56 15q43 30 84.5 49.5t88.5 30.5q-18 11 -28 22.5t-14.5 23.5t-5 23.5t-0.5 23.5l-4 1q-5 -12 -6.5 -19.5
t-2.5 -19.5q1 -17 4 -26.5t11 -25.5q-70 -27 -131 -80z" />
    <glyph glyph-name="ellipsis" unicode="&#x2026;" horiz-adv-x="750" 
d="M583 27q-7 0 -12.5 -5.5t-5.5 -11.5q0 -5 3.5 -8.5t8.5 -3.5q8 0 13 5t5 12q0 12 -12 12zM332 26q-6 0 -11.5 -5.5t-5.5 -11.5q0 -11 12 -11q8 0 13 5t5 13q0 10 -13 10zM83 26q-7 0 -12.5 -5t-5.5 -12q0 -11 11 -11q8 0 13.5 5.5t5.5 12.5q0 4 -3.5 7t-8.5 3z" />
    <glyph glyph-name="perthousand" unicode="&#x2030;" horiz-adv-x="500" 
d="M277 335q8 0 14.5 -6.5t6.5 -14.5q0 -14 -15 -36t-37 -42t-47 -34.5t-45 -14.5q-8 0 -13 4.5t-5 9.5q0 10 16.5 32.5t39 45t46.5 39.5t39 17zM-1 27l3 -6l428 289l-4 6q-33 -9 -56 -9q-1 0 -8 0.5t-16.5 2t-20 5t-17.5 10.5q-8 8 -15.5 12.5t-18.5 4.5q-17 0 -43.5 -9.5
t-51.5 -26t-42.5 -39.5t-17.5 -49q0 -16 9.5 -26t23.5 -10q23 0 51.5 14.5t52.5 35.5t38.5 44t9.5 41q17 -10 31 -13.5t36 -3.5q9 0 17 1t21 3zM442 127q8 1 13.5 -5.5t5.5 -14.5q0 -17 -15.5 -39.5t-37.5 -42.5t-47 -33.5t-43 -13.5q-8 0 -13.5 4.5t-5.5 10.5q0 11 16.5 33
t40 44t47.5 39t39 18zM437 132q-17 0 -43.5 -9.5t-51 -26.5t-42 -39.5t-17.5 -47.5q0 -17 8.5 -27.5t22.5 -10.5q18 0 44 11.5t51 30.5t42.5 43t17.5 50t-32 26zM257 127q7 1 12.5 -5.5t5.5 -14.5q0 -17 -15.5 -39.5t-37.5 -42.5t-46.5 -33.5t-42.5 -13.5q-8 0 -13.5 4.5
t-5.5 10.5q0 11 16.5 33t40 44t47.5 39t39 18zM251 132q-17 0 -43 -9.5t-50.5 -26.5t-42 -39.5t-17.5 -47.5q0 -17 8.5 -27.5t22.5 -10.5q18 0 44 11.5t50.5 30.5t42 43t17.5 50t-32 26z" />
    <glyph glyph-name="questiondown" unicode="&#xbf;" horiz-adv-x="260" 
d="M246 253q0 -7 8 -7q7 0 13 6.5t6 11.5q0 8 -8 8q-5 0 -12 -6.5t-7 -12.5zM30 -17q23 30 50 49t47 19q8 0 12.5 -5t4.5 -13q0 -11 -9.5 -25.5t-25.5 -27.5t-35.5 -22t-38.5 -9q-14 0 -23 8t-9 19q0 17 12 36t31 38.5t42 39t45 36.5q23 19 38.5 32t26.5 24t19.5 20.5
t17.5 21.5h-10q-14 -17 -26.5 -30.5t-28.5 -26t-36 -26t-47 -29.5q-20 -12 -37.5 -23.5t-30.5 -25.5t-21 -31.5t-8 -41.5q0 -47 42 -47q23 0 45 7.5t39 20.5t27.5 28.5t10.5 32.5q0 27 -25 27q-26 0 -54.5 -20.5t-51.5 -52.5z" />
    <glyph glyph-name="grave" unicode="`" 
d="M216 233q-7 23 -7.5 47.5t0.5 41.5h-45q6 -23 18 -45.5t28 -43.5h6z" />
    <glyph glyph-name="acute" unicode="&#xb4;" 
d="M233 232q24 13 42 24.5t32.5 21.5t26 20.5t22.5 22.5h-53q-15 -26 -34 -47t-48 -42h12z" />
    <glyph glyph-name="circumflex" unicode="&#x2c6;" 
d="M166 233q44 20 75.5 37t50.5 32q2 -16 5.5 -31.5t9.5 -38.5h5q1 22 6 41t16 48h-32q-28 -21 -61.5 -41t-88.5 -47h14z" />
    <glyph glyph-name="tilde" unicode="&#x2dc;" 
d="M137 233q17 15 24.5 19t24.5 4q9 -1 16.5 -2.5t21.5 -7.5q19 -8 30.5 -11t23.5 -3q23 0 41 10t41 36h-10q-23 -23 -45 -23q-8 0 -17.5 2.5t-24.5 8.5q-18 8 -29 10.5t-22 2.5q-47 0 -86 -46h11z" />
    <glyph glyph-name="macron" unicode="&#xaf;" 
d="M87 232h176l8 8h-176z" />
    <glyph glyph-name="macron" unicode="&#x2c9;" 
d="M87 232h176l8 8h-176z" />
    <glyph glyph-name="breve" unicode="&#x2d8;" 
d="M294 321q-51 -60 -96 -60q-14 0 -23 8.5t-9 20.5q0 8 2.5 14.5t9.5 16.5h-10q-24 -27 -24 -50q0 -17 13 -27.5t34 -10.5q29 0 56 21t55 67h-8z" />
    <glyph glyph-name="dotaccent" unicode="&#x2d9;" 
d="M195 283q-8 0 -15 -10t-7 -21q0 -19 16 -19q10 0 16.5 8.5t6.5 21.5q0 20 -17 20z" />
    <glyph glyph-name="dieresis" unicode="&#xa8;" 
d="M186 263q-8 0 -15.5 -10t-7.5 -21q0 -19 16 -19q10 0 16.5 9t6.5 21q0 20 -16 20zM257 213q9 0 17 10t8 22q0 8 -4.5 13t-11.5 5q-9 0 -17 -10.5t-8 -23.5q0 -6 4.5 -11t11.5 -5z" />
    <glyph glyph-name="ring" unicode="&#x2da;" 
d="M210 297q-19 0 -32.5 -13.5t-13.5 -33.5t13.5 -33.5t33.5 -13.5t34 13.5t14 33.5t-13.5 33.5t-35.5 13.5zM213 290q16 0 27 -11.5t11 -28.5t-11 -28.5t-28 -11.5t-28.5 11.5t-11.5 28.5t12 28.5t29 11.5z" />
    <glyph glyph-name="cedilla" unicode="&#xb8;" 
d="M-4 -84q32 12 54.5 28.5t22.5 27.5q0 9 -9 9q-8 0 -13 -6t-8 -11q-9 -15 -19.5 -23.5t-31.5 -19.5z" />
    <glyph glyph-name="hungarumlaut" unicode="&#x2dd;" 
d="M193 232q24 13 42 24.5t32.5 21.5t26 20.5t22.5 22.5h-53q-15 -26 -34 -47t-48 -42h12zM305 232q24 13 42 24.5t32.5 21.5t26 20.5t22.5 22.5h-53q-15 -26 -34 -47t-48 -42h12z" />
    <glyph glyph-name="ogonek" unicode="&#x2db;" 
d="M154 -72q-14 -14 -29 -22t-29 -8t-23.5 9.5t-9.5 23.5q0 19 20 46l-17 -6q-27 -27 -27 -52q0 -18 12.5 -28.5t32.5 -10.5t36 9t36 29z" />
    <glyph glyph-name="caron" unicode="&#x2c7;" 
d="M229 273q29 23 64 44t86 45h-14q-47 -22 -75 -37.5t-50 -31.5q-5 31 -14 69h-6q-1 -19 -6 -38.5t-16 -50.5h31z" />
    <glyph glyph-name="emdash" unicode="&#x2014;" horiz-adv-x="750" 
d="M-6 84h754v6h-754v-6z" />
    <glyph glyph-name="AE" unicode="&#xc6;" horiz-adv-x="521" 
d="M516 378q3 -2 22 -2q20 0 39 4q-15 -43 -41.5 -85.5t-54.5 -79.5t-53.5 -65.5t-39.5 -42.5q-42 -41 -79 -66.5t-79 -41.5q-18 19 -18 49q0 31 15 65.5t40 66.5t58 58.5t68 40.5q16 -50 52 -50q30 0 30 28q0 16 -13.5 25.5t-37.5 10.5q-7 0 -10.5 -0.5t-11.5 -2.5
q1 30 17.5 61.5t39.5 57.5t48 42.5t44 16.5q34 0 35 -43q-1 -13 -2 -19.5t-4 -18.5q-14 -2 -30 -3.5t-33 0.5zM590 391q2 12 2.5 18t1.5 15q-2 29 -13.5 41.5t-37.5 12.5q-23 0 -50 -12.5t-50 -34.5t-38 -52.5t-15 -65.5q0 -4 0.5 -10t1.5 -14q-46 -14 -84.5 -36.5t-66 -50
t-42.5 -59t-15 -64.5q0 -26 8 -45t28 -39q-32 -10 -52.5 -13.5t-37.5 -3.5q-35 0 -54.5 17t-19.5 49q0 65 69 163q16 23 34.5 48t37 48t35 42.5t29.5 33.5q33 34 70 61t75 46t76 29t74 10q44 0 69.5 -16.5t25.5 -44.5q0 -24 -16.5 -44.5t-44.5 -28.5zM402 282q5 2 12 3t12 1
q18 -1 29.5 -9.5t11.5 -22.5q0 -8 -6 -13t-15 -5q-34 0 -44 46zM520 109q-26 -22 -53.5 -45.5t-56.5 -42.5t-59.5 -31t-60.5 -12q-17 0 -30 4t-22 10q37 17 63.5 34t54.5 40q30 25 64 62.5t66.5 80.5t59 88t41.5 85q71 24 71 82q0 66 -103 66q-51 0 -99.5 -15t-102.5 -49
q-31 -19 -67 -46t-72 -59.5t-69.5 -69t-59 -74t-41 -75t-15.5 -72.5q0 -45 27.5 -72t72.5 -27q43 0 99 17q31 -16 62 -16q25 0 49 6.5t51 21.5t58.5 40t71.5 61v8z" />
    <glyph glyph-name="ordfeminine" unicode="&#xaa;" horiz-adv-x="198" 
d="M213 281q5 0 9.5 -4t4.5 -9q0 -10 -12.5 -25.5t-29 -29.5t-32 -24.5t-21.5 -10.5q-5 -1 -9.5 3t-3.5 9q0 9 10 24t24.5 29.5t31 25.5t28.5 12zM319 247l-1 7q-49 -40 -79.5 -57.5t-36.5 -17.5q-1 0 -1.5 0.5l-0.5 0.5q0 2 3.5 7t16.5 20l68 80l-36 -1l-18 -21
q0 10 -3.5 16t-19.5 6q-20 0 -39.5 -7t-34.5 -19t-24.5 -27t-9.5 -31q0 -14 8 -23t19 -9q12 0 26 9.5t37 29.5q-4 -11 -5 -16.5t-1 -11.5q0 -11 11 -11t40 17t68 49zM86 137h227v6h-227v-6z" />
    <glyph glyph-name="Oslash" unicode="&#xd8;" horiz-adv-x="438" 
d="M574 428q-2 23 -15 38t-40 15q-24 0 -61 -14t-77 -43.5t-77.5 -74t-60.5 -105.5l8 2q16 40 32 65t39 52q21 24 47.5 44.5t53.5 35.5t52.5 24t45.5 9q44 0 47 -52l-492 -366q4 17 6.5 26.5t8.5 21.5q9 21 31.5 60t56 85.5t77 94.5t95 87.5t109 64.5t119.5 25q29 0 47.5 -7
t32.5 -24zM567 415q-3 -33 -20 -70.5t-40.5 -74.5t-49.5 -69.5t-47 -55.5q-77 -83 -145 -125t-126 -42q-35 0 -50.5 16.5t-14.5 52.5zM34 26l4 -5l21 13q8 -33 27.5 -48t53.5 -15q36 0 75 16t77 42.5t75 61.5t69 73t58.5 76.5t44.5 72.5t26 61t9 47l88 64q5 -11 5 -22
q0 -29 -20 -49.5t-57 -28.5l-1 -6q38 8 60.5 30.5t22.5 52.5q0 7 -1 13t-4 15l10 8l-5 3l-9 -5q-15 18 -33.5 25.5t-46.5 7.5q-42 0 -82.5 -11.5t-88.5 -35.5q-51 -27 -113 -73.5t-116.5 -103t-91 -117.5t-36.5 -116q0 -5 0.5 -12t1.5 -16z" />
    <glyph glyph-name="OE" unicode="&#x152;" horiz-adv-x="760" 
d="M504 39q1 2 3.5 6.5t3.5 6.5q6 12 19.5 36t36 47.5t54.5 41t75 17.5q25 0 39.5 -13t14.5 -36q0 -30 -20 -60t-53 -54t-74 -38.5t-83 -14.5q-38 0 -59 17.5t-21 50.5q0 43 26.5 91.5t73.5 89.5q32 29 64 44.5t79 23.5q16 -54 52 -54q31 0 31 28q0 15 -8.5 23t-20 11
t-24.5 3h-20v13q66 14 114 35t91 56q58 48 58 86q0 34 -43 34q-21 0 -60 -12t-78 -37t-67.5 -63.5t-28.5 -91.5q-19 -4 -30 -5t-31 -1q-27 1 -40.5 2.5t-33.5 8.5q4 14 5 21t2 21q-1 32 -13.5 50t-33.5 18q-31 0 -31 -37q0 -53 59 -77q-10 -33 -32 -71.5t-52.5 -77
t-67.5 -75t-76 -64t-77.5 -44.5t-72.5 -17q-31 0 -49 16t-18 42q0 27 12.5 59.5t32.5 67t44 68t47 62t42 49.5t28 30q72 72 150 111.5t151 39.5q39 0 60.5 -16t21.5 -45q0 -28 -20.5 -47.5t-55.5 -26.5l-2 -7q41 5 63.5 27t22.5 56q0 66 -91 66q-43 0 -87 -13.5t-86.5 -36
t-82 -51.5t-74 -59.5t-62.5 -60t-47 -52.5q-45 -54 -65.5 -100t-20.5 -93q0 -44 22 -68.5t61 -24.5q61 0 125 39t148 126q-7 -18 -9.5 -30.5t-2.5 -27.5q0 -51 29.5 -79t83.5 -28q43 0 85 15t75 40t53 56.5t20 63.5q0 26 -17 40.5t-48 14.5q-11 0 -34.5 -4.5t-52 -20.5
t-58 -48t-51.5 -87zM694 296q7 2 10 2h9q44 -2 44 -28q0 -9 -6.5 -15t-15.5 -6q-33 0 -41 47zM680 304q-28 -6 -50.5 -12.5t-44.5 -16t-44.5 -23t-49.5 -31.5q20 32 31.5 56.5t19.5 44.5q21 -5 38 -7.5t40 -2.5q14 0 27 1t33 4v-13zM534 335q-53 24 -53 68q0 13 6 21t17 8
q16 0 27 -17t11 -42q0 -22 -8 -38zM694 328q9 35 32.5 70t55 63t66.5 45.5t65 17.5q15 0 25.5 -7.5t10.5 -18.5q0 -24 -23 -50.5t-59.5 -51t-82 -43t-90.5 -25.5z" />
    <glyph glyph-name="ordmasculine" unicode="&#xba;" horiz-adv-x="146" 
d="M211 280q7 0 12.5 -5t5.5 -13q0 -12 -11.5 -27.5t-27 -29.5t-33 -23.5t-29.5 -9.5q-15 0 -15 12q0 7 10.5 22.5t25.5 31.5t32 28.5t30 13.5zM263 246q-15 -12 -23.5 -16.5t-22.5 -5.5q9 14 12.5 22.5t3.5 17.5q0 21 -24 21q-20 0 -39 -8t-35 -20.5t-25.5 -28.5t-9.5 -31
q0 -29 26 -29q19 0 42 14t43 37q13 -1 23.5 2.5t30.5 19.5zM86 137h187v6h-187v-6z" />
    <glyph glyph-name="ae" unicode="&#xe6;" horiz-adv-x="344" 
d="M176 95q25 32 55 52t53 20q16 0 16 -13q0 -11 -10.5 -21.5t-28 -19t-40 -13.5t-45.5 -5zM143 168q9 0 15 -5t6 -13q0 -15 -18 -39.5t-43.5 -48t-52 -40.5t-43.5 -17q-8 0 -13.5 6t-5.5 14q0 14 15.5 38t39 47.5t50.5 40.5t50 17zM343 109q-61 -54 -105.5 -79.5
t-79.5 -25.5q-28 0 -28 18q0 11 9 26.5t29 38.5q30 0 56 5.5t45 14t30 20t11 25.5q0 9 -7 15t-18 6t-24.5 -4t-33.5 -15l13 16h-41l-29 -33q2 5 2 7v6q-1 13 -7.5 18.5t-23.5 5.5q-22 0 -51.5 -8.5t-56.5 -25t-45.5 -41.5t-18.5 -57q0 -20 9.5 -32t25.5 -12q25 0 54 21
t58 46q-1 -8 -1.5 -13t-0.5 -9q0 -21 11.5 -33t31.5 -12q77 0 186 103v8z" />
    <glyph glyph-name="dotlessi" unicode="&#x131;" horiz-adv-x="156" 
d="M-5 97q20 18 42.5 35.5t39.5 27.5q-3 -3 -5.5 -6t-7.5 -8q-42 -42 -61 -73t-19 -56q0 -19 16 -19q15 0 37 12.5t44.5 29.5t42.5 34t31 27v8q-51 -48 -92.5 -76.5t-61.5 -28.5q-10 0 -10 9q0 6 12.5 20.5t27.5 30.5l94 106h-44q-20 -14 -40.5 -29t-45.5 -36v-8z" />
    <glyph glyph-name="oslash" unicode="&#xf8;" horiz-adv-x="208" 
d="M-20 16q0 10 5 21t25 36q38 45 70 68.5t54 23.5q13 0 23 -13zM158 145q0 -18 -16.5 -42.5t-40.5 -46.5t-50.5 -37.5t-46.5 -15.5q-7 1 -10 2t-10 5zM-50 -8l5 -5l22 18q11 -8 25 -8q50 0 128 72q10 -7 17 -7q14 0 45 26l15 13v8q-21 -19 -35.5 -29.5t-26.5 -10.5
q-6 0 -11 5q35 41 31 76l22 17l-4 4l-21 -15q-9 15 -28 15q-20 0 -49 -10t-56 -28t-46.5 -42t-19.5 -52q0 -8 2 -14.5t7 -15.5z" />
    <glyph glyph-name="oe" unicode="&#x153;" horiz-adv-x="354" 
d="M181 95q66 72 110 72q17 0 17 -15q0 -9 -10 -19.5t-27.5 -19t-40.5 -14t-49 -4.5zM138 167q8 0 14 -6.5t6 -16.5q0 -17 -17 -41.5t-41.5 -46.5t-51 -37.5t-45.5 -15.5t-19 19q0 11 16.5 34.5t40.5 47.5t50.5 43t46.5 20zM353 109q-32 -30 -58 -50t-49 -32t-43.5 -17.5
t-40.5 -5.5q-12 0 -19.5 4.5t-7.5 12.5q0 22 37 65q41 2 69.5 7.5t48.5 17.5q30 19 30 41q0 10 -9 15.5t-24 5.5q-58 0 -125 -48q2 7 2.5 10.5t0.5 8.5q0 29 -31 29q-23 0 -52.5 -11.5t-55.5 -30t-44 -43t-18 -50.5q0 -17 11 -29t28 -12q24 0 52 16t68 54q-2 -8 -2 -12
t-1 -12q1 -46 42 -46q44 0 89.5 24t101.5 80v8z" />
    <glyph glyph-name="germandbls" unicode="&#xdf;" horiz-adv-x="438" 
d="M307 257q0 12 19 12q11 0 19.5 -3.5t20.5 -13.5q-10 -5 -32 -5q-12 0 -19.5 2.5t-7.5 7.5zM-18 86l27 23q19 16 32.5 27.5t27 22.5t29.5 23.5t41 31.5q22 17 32 24.5t19 14.5l19 15l-433 -488h41q27 31 61.5 69t64.5 72q34 39 61 69t48.5 54.5t40.5 45.5t38 43
q20 23 42.5 48.5t43.5 48.5q54 60 86.5 97t53.5 59.5t35 35.5t30 25q28 22 51 22q14 0 24 -10.5t10 -26.5q0 -22 -12 -49t-30.5 -52.5t-42 -46.5t-47.5 -31q-12 12 -23 17t-26 5q-26 0 -26 -15q0 -19 38 -19q8 0 15.5 0.5t18.5 2.5q4 -9 4 -17q0 -30 -23 -68.5t-57 -72.5
t-71.5 -57t-67.5 -23q-17 0 -28 10.5t-11 25.5q0 4 4.5 17.5t18.5 31t41.5 35.5t72.5 33l-2 6q-65 -21 -104 -55t-39 -69q0 -20 13.5 -32t35.5 -12q28 0 68 15t76.5 42t62 64t25.5 81q0 13 -2 22.5t-9 24.5q66 20 104.5 64t38.5 98q0 32 -15 49.5t-41 17.5q-19 0 -38.5 -8.5
t-44 -27.5t-55 -48t-71.5 -69q-13 -13 -25.5 -24.5t-28.5 -24.5t-37 -29.5t-51 -38.5q-25 -20 -43 -34t-32.5 -26t-28 -24t-30.5 -26v-9z" />
    <glyph glyph-name="logicalnot" unicode="&#xac;" horiz-adv-x="667" 
d="M113 326h486v-238h35v273h-521v-35z" />
    <glyph glyph-name="mu" unicode="&#xb5;" horiz-adv-x="292" 
d="M-213 -232h43l195 235q0 -6 12 -6q13 0 32.5 10t42 26t46.5 36.5t48 42.5q7 5 10 8.5t8 7.5q-2 -3 -3.5 -5t-5.5 -6q-62 -75 -62 -102q0 -17 18 -17q12 0 28 7.5t35 20t40 29t43 34.5l14 12v8q-2 -2 -3.5 -3t-3.5 -3q-17 -15 -35 -29.5t-34.5 -26.5t-30 -21.5
t-22.5 -13.5q-21 -9 -29 -9t-8 6q0 7 7 14l127 147h-39q-35 -35 -69.5 -65t-64.5 -52.5t-53 -35.5t-35 -13q-9 0 -9 6q0 5 6 12t21 24l109 124h-41q-29 -17 -49.5 -32.5t-39.5 -32.5v-7q33 28 70 53l2 -1z" />
    <glyph glyph-name="mu" unicode="&#x3bc;" horiz-adv-x="292" 
d="M-213 -232h43l195 235q0 -6 12 -6q13 0 32.5 10t42 26t46.5 36.5t48 42.5q7 5 10 8.5t8 7.5q-2 -3 -3.5 -5t-5.5 -6q-62 -75 -62 -102q0 -17 18 -17q12 0 28 7.5t35 20t40 29t43 34.5l14 12v8q-2 -2 -3.5 -3t-3.5 -3q-17 -15 -35 -29.5t-34.5 -26.5t-30 -21.5
t-22.5 -13.5q-21 -9 -29 -9t-8 6q0 7 7 14l127 147h-39q-35 -35 -69.5 -65t-64.5 -52.5t-53 -35.5t-35 -13q-9 0 -9 6q0 5 6 12t21 24l109 124h-41q-29 -17 -49.5 -32.5t-39.5 -32.5v-7q33 28 70 53l2 -1z" />
    <glyph glyph-name="trademark" unicode="&#x2122;" horiz-adv-x="980" 
d="M171 444h13q6 32 22 43.5t53 11.5h29v-227q0 -16 -1 -25.5t-5 -14.5t-12 -7.5t-21 -3.5v-13h147v13q-27 1 -34.5 10.5t-7.5 41.5v226h29q38 0 54.5 -12t21.5 -43h13l-8 79h-284zM500 523v-15q29 0 36.5 -9t7.5 -44v-183q0 -33 -8 -42t-36 -9v-13h119v13h-14
q-23 0 -30 9.5t-7 41.5v189l120 -253h13l120 256v-192q0 -16 -1.5 -26t-6.5 -15.5t-14 -7.5t-24 -2v-13h155v13q-15 1 -23.5 3t-13 7t-5.5 14.5t-1 26.5v184q0 17 1.5 27t6 15.5t13 7.5t22.5 2v15h-109l-103 -224l-107 224h-111z" />
    <glyph glyph-name="plusminus" unicode="&#xb1;" horiz-adv-x="667" 
d="M112 288h243v-243h35v243h245v35h-245v244h-35v-244h-243v-35zM112 -106h523v35h-523v-35z" />
    <glyph glyph-name="divide" unicode="&#xf7;" horiz-adv-x="667" 
d="M347 432q-1 -12 6.5 -20.5t18.5 -8.5t18.5 7.5t7.5 18.5t-7.5 18.5t-18.5 7.5q-10 0 -17.5 -6.5t-7.5 -16.5zM346 30q0 -11 8 -18.5t19 -7.5t18.5 7.5t7.5 18.5t-7.5 18.5t-18.5 7.5t-19 -7.5t-8 -18.5zM113 212h522v35h-522v-35z" />
    <glyph glyph-name="degree" unicode="&#xb0;" horiz-adv-x="300" 
d="M276 498q-31 0 -53 -21.5t-22 -53.5q0 -31 22 -53t53 -22t53 22t22 53q0 32 -22 53.5t-53 21.5zM276 478q23 0 38.5 -16t15.5 -39t-15.5 -38.5t-38.5 -15.5t-38.5 15.5t-15.5 38.5t15.5 39t38.5 16z" />
    <glyph glyph-name="registered" unicode="&#xae;" horiz-adv-x="760" 
d="M430 528q-57 0 -107.5 -22t-88 -59.5t-59.5 -88t-22 -107.5t22 -107.5t59.5 -88t88 -59.5t107.5 -22t107.5 22t88 59.5t59.5 88t22 107.5t-22 107.5t-59.5 88t-88 59.5t-107.5 22zM430 504q52 0 98.5 -20t80.5 -54t54 -80.5t20 -98.5q0 -53 -20 -99t-54 -80t-80.5 -54
t-98.5 -20q-53 0 -99 20t-80 54t-54 80t-20 99q0 52 20 98.5t54 80.5t80 54t99 20zM276 407q27 0 31.5 -11.5t4.5 -41.5v-204q0 -28 -5 -40.5t-35 -12.5v-13h143v13q-24 0 -33.5 5t-12.5 19v120h30l115 -157h71v13q-14 1 -23.5 7.5t-23.5 26.5l-82 116q88 22 88 86
q0 40 -32 64t-85 24h-151v-14zM369 398q11 3 17.5 4.5t15.5 1.5q34 0 56 -21.5t22 -53.5q0 -34 -26 -52.5t-74 -18.5h-11v140z" />
    <glyph glyph-name="copyright" unicode="&#xa9;" horiz-adv-x="760" 
d="M551 429q-7 -17 -19 -17q-3 0 -6 0.5t-8 2.5q-14 4 -24 7t-17.5 4.5t-15 2t-16.5 0.5q-41 0 -76.5 -13.5t-61.5 -38t-41 -57.5t-15 -72q0 -37 14 -68.5t38 -54.5t57 -36t72 -13q95 0 149 79l-14 7q-45 -63 -123 -63q-49 0 -84 29q-44 41 -44 132q0 70 33.5 111t91.5 41
q88 0 119 -92h15l-8 109h-16zM430 528q-57 0 -107.5 -22t-88 -59.5t-59.5 -88t-22 -107.5t22 -107.5t59.5 -88t88 -59.5t107.5 -22t107.5 22t88 59.5t59.5 88t22 107.5t-22 107.5t-59.5 88t-88 59.5t-107.5 22zM430 504q52 0 98.5 -20t80.5 -54t54 -80.5t20 -98.5
q0 -53 -20 -99t-54 -80t-80.5 -54t-98.5 -20q-53 0 -99 20t-80 54t-54 80t-20 99q0 52 20 98.5t54 80.5t80 54t99 20z" />
    <glyph glyph-name="numbersign" unicode="#" horiz-adv-x="405" 
d="M212 194h83l-68 -94h-86zM17 80h84l-65 -87h25l65 87h86l-63 -87h25l63 87h101l15 20h-101l68 94h83l15 20h-84l58 80h-25l-58 -80h-82l60 80h-25l-60 -80h-105l-15 -20h105l-71 -94h-84z" />
    <glyph glyph-name="Aacute" unicode="&#xc1;" horiz-adv-x="677" 
d="M506 204q-7 28 -19 52.5t-29 43t-39.5 29t-49.5 10.5q-42 0 -67.5 -30.5t-25.5 -82.5q0 -41 17 -75.5t55 -76.5q-13 -10 -36.5 -26.5t-54 -32t-66.5 -27t-73 -11.5t-57 13t-20 36q0 19 15 31q4 -8 7.5 -12t11.5 -4t13 4.5t5 10.5q0 14 -21 14q-17 0 -28 -12t-11 -31
q0 -27 22 -42t64 -15q28 0 54.5 5t54.5 17t59 30.5t67 45.5q27 -23 52.5 -35t59.5 -19l-25 -35h45l20 30q31 0 56.5 7.5t58.5 36.5l20 17q5 4 13 12t22 19v8q-9 -8 -15 -13t-17 -15q-25 -21 -42 -34t-31 -19.5t-28 -9t-33 -3.5q97 134 204.5 257t229.5 235l14 12l-6 4
q-44 -14 -85 -35t-89.5 -55.5t-109.5 -86.5t-146 -127zM502 192q7 -47 -4 -88t-27 -84q-35 5 -60 17.5t-50 35.5q18 15 38.5 31.5t38 31.5t31 26.5t18.5 15.5zM763 343q-43 -44 -73.5 -76.5t-53.5 -56.5t-40 -43t-32 -36t-30.5 -35.5t-34.5 -41.5l-13 -15q13 42 20.5 77.5
t0.5 79.5l12 11q39 36 93 84t112 93.5t114 81t99 46.5l-11 -11t-26 -25t-34.5 -33.5t-36 -35.5t-32 -31t-20.5 -20zM486 187q-26 -23 -45.5 -40t-35 -29.5t-28 -22t-23.5 -17.5q-36 39 -52 76t-16 80q0 45 23.5 72t61.5 27q3 0 19 -2t36.5 -14.5t41 -40t33.5 -77.5z
M1005 589q24 13 42 24.5t32.5 21.5t26 20.5t22.5 22.5h-53q-15 -26 -34 -47t-48 -42h12z" />
    <glyph glyph-name="Acircumflex" unicode="&#xc2;" horiz-adv-x="677" 
d="M506 204q-7 28 -19 52.5t-29 43t-39.5 29t-49.5 10.5q-42 0 -67.5 -30.5t-25.5 -82.5q0 -41 17 -75.5t55 -76.5q-13 -10 -36.5 -26.5t-54 -32t-66.5 -27t-73 -11.5t-57 13t-20 36q0 19 15 31q4 -8 7.5 -12t11.5 -4t13 4.5t5 10.5q0 14 -21 14q-17 0 -28 -12t-11 -31
q0 -27 22 -42t64 -15q28 0 54.5 5t54.5 17t59 30.5t67 45.5q27 -23 52.5 -35t59.5 -19l-25 -35h45l20 30q31 0 56.5 7.5t58.5 36.5l20 17q5 4 13 12t22 19v8q-9 -8 -15 -13t-17 -15q-25 -21 -42 -34t-31 -19.5t-28 -9t-33 -3.5q97 134 204.5 257t229.5 235l14 12l-6 4
q-44 -14 -85 -35t-89.5 -55.5t-109.5 -86.5t-146 -127zM502 192q7 -47 -4 -88t-27 -84q-35 5 -60 17.5t-50 35.5q18 15 38.5 31.5t38 31.5t31 26.5t18.5 15.5zM763 343q-43 -44 -73.5 -76.5t-53.5 -56.5t-40 -43t-32 -36t-30.5 -35.5t-34.5 -41.5l-13 -15q13 42 20.5 77.5
t0.5 79.5l12 11q39 36 93 84t112 93.5t114 81t99 46.5l-11 -11t-26 -25t-34.5 -33.5t-36 -35.5t-32 -31t-20.5 -20zM486 187q-26 -23 -45.5 -40t-35 -29.5t-28 -22t-23.5 -17.5q-36 39 -52 76t-16 80q0 45 23.5 72t61.5 27q3 0 19 -2t36.5 -14.5t41 -40t33.5 -77.5zM938 590
q44 20 75.5 37t50.5 32q2 -16 5.5 -31.5t9.5 -38.5h5q1 22 6 41t16 48h-32q-28 -21 -61.5 -41t-88.5 -47h14z" />
    <glyph glyph-name="Adieresis" unicode="&#xc4;" horiz-adv-x="677" 
d="M506 204q-7 28 -19 52.5t-29 43t-39.5 29t-49.5 10.5q-42 0 -67.5 -30.5t-25.5 -82.5q0 -41 17 -75.5t55 -76.5q-13 -10 -36.5 -26.5t-54 -32t-66.5 -27t-73 -11.5t-57 13t-20 36q0 19 15 31q4 -8 7.5 -12t11.5 -4t13 4.5t5 10.5q0 14 -21 14q-17 0 -28 -12t-11 -31
q0 -27 22 -42t64 -15q28 0 54.5 5t54.5 17t59 30.5t67 45.5q27 -23 52.5 -35t59.5 -19l-25 -35h45l20 30q31 0 56.5 7.5t58.5 36.5l20 17q5 4 13 12t22 19v8q-9 -8 -15 -13t-17 -15q-25 -21 -42 -34t-31 -19.5t-28 -9t-33 -3.5q97 134 204.5 257t229.5 235l14 12l-6 4
q-44 -14 -85 -35t-89.5 -55.5t-109.5 -86.5t-146 -127zM502 192q7 -47 -4 -88t-27 -84q-35 5 -60 17.5t-50 35.5q18 15 38.5 31.5t38 31.5t31 26.5t18.5 15.5zM763 343q-43 -44 -73.5 -76.5t-53.5 -56.5t-40 -43t-32 -36t-30.5 -35.5t-34.5 -41.5l-13 -15q13 42 20.5 77.5
t0.5 79.5l12 11q39 36 93 84t112 93.5t114 81t99 46.5l-11 -11t-26 -25t-34.5 -33.5t-36 -35.5t-32 -31t-20.5 -20zM486 187q-26 -23 -45.5 -40t-35 -29.5t-28 -22t-23.5 -17.5q-36 39 -52 76t-16 80q0 45 23.5 72t61.5 27q3 0 19 -2t36.5 -14.5t41 -40t33.5 -77.5zM958 620
q-8 0 -15.5 -10t-7.5 -21q0 -19 16 -19q10 0 16.5 9t6.5 21q0 20 -16 20zM1029 570q9 0 17 10t8 22q0 8 -4.5 13t-11.5 5q-9 0 -17 -10.5t-8 -23.5q0 -6 4.5 -11t11.5 -5z" />
    <glyph glyph-name="Agrave" unicode="&#xc0;" horiz-adv-x="677" 
d="M506 204q-7 28 -19 52.5t-29 43t-39.5 29t-49.5 10.5q-42 0 -67.5 -30.5t-25.5 -82.5q0 -41 17 -75.5t55 -76.5q-13 -10 -36.5 -26.5t-54 -32t-66.5 -27t-73 -11.5t-57 13t-20 36q0 19 15 31q4 -8 7.5 -12t11.5 -4t13 4.5t5 10.5q0 14 -21 14q-17 0 -28 -12t-11 -31
q0 -27 22 -42t64 -15q28 0 54.5 5t54.5 17t59 30.5t67 45.5q27 -23 52.5 -35t59.5 -19l-25 -35h45l20 30q31 0 56.5 7.5t58.5 36.5l20 17q5 4 13 12t22 19v8q-9 -8 -15 -13t-17 -15q-25 -21 -42 -34t-31 -19.5t-28 -9t-33 -3.5q97 134 204.5 257t229.5 235l14 12l-6 4
q-44 -14 -85 -35t-89.5 -55.5t-109.5 -86.5t-146 -127zM502 192q7 -47 -4 -88t-27 -84q-35 5 -60 17.5t-50 35.5q18 15 38.5 31.5t38 31.5t31 26.5t18.5 15.5zM763 343q-43 -44 -73.5 -76.5t-53.5 -56.5t-40 -43t-32 -36t-30.5 -35.5t-34.5 -41.5l-13 -15q13 42 20.5 77.5
t0.5 79.5l12 11q39 36 93 84t112 93.5t114 81t99 46.5l-11 -11t-26 -25t-34.5 -33.5t-36 -35.5t-32 -31t-20.5 -20zM486 187q-26 -23 -45.5 -40t-35 -29.5t-28 -22t-23.5 -17.5q-36 39 -52 76t-16 80q0 45 23.5 72t61.5 27q3 0 19 -2t36.5 -14.5t41 -40t33.5 -77.5zM958 590
q-7 23 -7.5 47.5t0.5 41.5h-45q6 -23 18 -45.5t28 -43.5h6z" />
    <glyph glyph-name="Aring" unicode="&#xc5;" horiz-adv-x="677" 
d="M506 204q-7 28 -19 52.5t-29 43t-39.5 29t-49.5 10.5q-42 0 -67.5 -30.5t-25.5 -82.5q0 -41 17 -75.5t55 -76.5q-13 -10 -36.5 -26.5t-54 -32t-66.5 -27t-73 -11.5t-57 13t-20 36q0 19 15 31q4 -8 7.5 -12t11.5 -4t13 4.5t5 10.5q0 14 -21 14q-17 0 -28 -12t-11 -31
q0 -27 22 -42t64 -15q28 0 54.5 5t54.5 17t59 30.5t67 45.5q27 -23 52.5 -35t59.5 -19l-25 -35h45l20 30q31 0 56.5 7.5t58.5 36.5l20 17q5 4 13 12t22 19v8q-9 -8 -15 -13t-17 -15q-25 -21 -42 -34t-31 -19.5t-28 -9t-33 -3.5q97 134 204.5 257t229.5 235l14 12l-6 4
q-44 -14 -85 -35t-89.5 -55.5t-109.5 -86.5t-146 -127zM502 192q7 -47 -4 -88t-27 -84q-35 5 -60 17.5t-50 35.5q18 15 38.5 31.5t38 31.5t31 26.5t18.5 15.5zM763 343q-43 -44 -73.5 -76.5t-53.5 -56.5t-40 -43t-32 -36t-30.5 -35.5t-34.5 -41.5l-13 -15q13 42 20.5 77.5
t0.5 79.5l12 11q39 36 93 84t112 93.5t114 81t99 46.5l-11 -11t-26 -25t-34.5 -33.5t-36 -35.5t-32 -31t-20.5 -20zM486 187q-26 -23 -45.5 -40t-35 -29.5t-28 -22t-23.5 -17.5q-36 39 -52 76t-16 80q0 45 23.5 72t61.5 27q3 0 19 -2t36.5 -14.5t41 -40t33.5 -77.5zM982 654
q-19 0 -32.5 -13.5t-13.5 -33.5t13.5 -33.5t33.5 -13.5t34 13.5t14 33.5t-13.5 33.5t-35.5 13.5zM985 647q16 0 27 -11.5t11 -28.5t-11 -28.5t-28 -11.5t-28.5 11.5t-11.5 28.5t12 28.5t29 11.5z" />
    <glyph glyph-name="Atilde" unicode="&#xc3;" horiz-adv-x="677" 
d="M506 204q-7 28 -19 52.5t-29 43t-39.5 29t-49.5 10.5q-42 0 -67.5 -30.5t-25.5 -82.5q0 -41 17 -75.5t55 -76.5q-13 -10 -36.5 -26.5t-54 -32t-66.5 -27t-73 -11.5t-57 13t-20 36q0 19 15 31q4 -8 7.5 -12t11.5 -4t13 4.5t5 10.5q0 14 -21 14q-17 0 -28 -12t-11 -31
q0 -27 22 -42t64 -15q28 0 54.5 5t54.5 17t59 30.5t67 45.5q27 -23 52.5 -35t59.5 -19l-25 -35h45l20 30q31 0 56.5 7.5t58.5 36.5l20 17q5 4 13 12t22 19v8q-9 -8 -15 -13t-17 -15q-25 -21 -42 -34t-31 -19.5t-28 -9t-33 -3.5q97 134 204.5 257t229.5 235l14 12l-6 4
q-44 -14 -85 -35t-89.5 -55.5t-109.5 -86.5t-146 -127zM502 192q7 -47 -4 -88t-27 -84q-35 5 -60 17.5t-50 35.5q18 15 38.5 31.5t38 31.5t31 26.5t18.5 15.5zM763 343q-43 -44 -73.5 -76.5t-53.5 -56.5t-40 -43t-32 -36t-30.5 -35.5t-34.5 -41.5l-13 -15q13 42 20.5 77.5
t0.5 79.5l12 11q39 36 93 84t112 93.5t114 81t99 46.5l-11 -11t-26 -25t-34.5 -33.5t-36 -35.5t-32 -31t-20.5 -20zM486 187q-26 -23 -45.5 -40t-35 -29.5t-28 -22t-23.5 -17.5q-36 39 -52 76t-16 80q0 45 23.5 72t61.5 27q3 0 19 -2t36.5 -14.5t41 -40t33.5 -77.5zM889 590
q17 15 24.5 19t24.5 4q9 -1 16.5 -2.5t21.5 -7.5q19 -8 30.5 -11t23.5 -3q23 0 41 10t41 36h-10q-23 -23 -45 -23q-8 0 -17.5 2.5t-24.5 8.5q-18 8 -29 10.5t-22 2.5q-47 0 -86 -46h11z" />
    <glyph glyph-name="Ccedilla" unicode="&#xc7;" horiz-adv-x="458" 
d="M270 261q25 28 46.5 50.5t41.5 41.5t40 35.5t41 32.5q30 23 60 42t57.5 32.5t50.5 21t40 7.5q14 0 23.5 -8t9.5 -22q0 -22 -31 -54t-86 -65.5t-130 -64t-163 -49.5zM208 244q-51 -56 -72.5 -97t-21.5 -82q0 -42 28 -68t74 -26q37 0 76 16t71.5 40.5t53 54.5t20.5 59
q0 26 -17 42t-45 16q-18 0 -42 -7.5t-50 -25.5t-53 -49t-51 -77l5 -4q31 59 62.5 91t58.5 46.5t46 17t24 2.5q26 0 41.5 -14.5t15.5 -38.5q0 -23 -19 -51.5t-49.5 -53.5t-70 -41.5t-81.5 -16.5q-36 0 -58 17t-22 45q0 38 31 88.5t100 125.5q88 18 164.5 48.5t133.5 65
t90 68.5t34 59q1 17 -10 26t-28 9q-32 0 -85 -24t-114 -63t-123 -89t-112 -102q-8 -1 -13.5 -1.5t-16.5 -0.5q-122 5 -122 93q0 72 75 123q23 16 48.5 27t57 18t70 10t86.5 3v6q-89 0 -140.5 -10t-79.5 -23q-37 -17 -61.5 -35.5t-39 -37t-20.5 -38t-6 -38.5q0 -40 28 -68
q20 -20 43.5 -27.5t68.5 -7.5h17zM139 -113q32 12 54.5 28.5t22.5 27.5q0 9 -9 9q-8 0 -13 -6t-8 -11q-9 -15 -19.5 -23.5t-31.5 -19.5z" />
    <glyph glyph-name="Eacute" unicode="&#xc9;" horiz-adv-x="432" 
d="M351 328q14 44 40 80.5t57.5 62.5t63.5 40t58 14q17 0 28 -7.5t11 -19.5q0 -17 -18 -41.5t-51.5 -49.5t-81.5 -47t-107 -32zM350 298q3 0 14 1t23 -1t21 -8.5t9 -19.5q0 -20 -22 -20q-18 0 -30 13t-15 35zM341 302q-55 -9 -104 -30t-86 -50.5t-58.5 -65.5t-21.5 -76
q0 -51 30 -79.5t83 -28.5q42 0 83.5 15.5t75 41t54 57t20.5 63.5q0 25 -16.5 39.5t-45.5 14.5q-36 0 -72.5 -17t-66.5 -48q-20 -20 -32 -40.5t-28 -56.5h8q14 33 25 51.5t30 37.5q29 32 64.5 49t70.5 17q26 0 41 -12.5t15 -34.5q0 -31 -20 -61.5t-52.5 -55t-73.5 -39.5
t-83 -15q-83 0 -83 72q0 62 64 141q37 46 78.5 70.5t101.5 35.5q16 -54 50 -54q31 0 31 28q0 34 -53 35q-8 0 -11.5 -0.5t-8.5 -1.5v17q45 9 80.5 21.5t67.5 29.5q25 14 46.5 30.5t37 33.5t24.5 33.5t9 30.5q0 31 -43 31q-23 0 -49 -7.5t-52 -20.5t-50 -30.5t-41 -36.5
q-23 -26 -32 -51t-10 -60q-21 -3 -37 -4.5t-31 -1.5q-61 0 -96.5 21.5t-35.5 58.5q0 9 7 29.5t32 42t72.5 38t127.5 17.5l-1 5q-64 -1 -104.5 -9.5t-72.5 -28.5q-68 -40 -68 -93q0 -40 37 -64t100 -24q9 0 16.5 0.5l15 1t16.5 2t23 3.5zM603 589q24 13 42 24.5t32.5 21.5
t26 20.5t22.5 22.5h-53q-15 -26 -34 -47t-48 -42h12z" />
    <glyph glyph-name="Ecircumflex" unicode="&#xca;" horiz-adv-x="432" 
d="M351 328q14 44 40 80.5t57.5 62.5t63.5 40t58 14q17 0 28 -7.5t11 -19.5q0 -17 -18 -41.5t-51.5 -49.5t-81.5 -47t-107 -32zM350 298q3 0 14 1t23 -1t21 -8.5t9 -19.5q0 -20 -22 -20q-18 0 -30 13t-15 35zM341 302q-55 -9 -104 -30t-86 -50.5t-58.5 -65.5t-21.5 -76
q0 -51 30 -79.5t83 -28.5q42 0 83.5 15.5t75 41t54 57t20.5 63.5q0 25 -16.5 39.5t-45.5 14.5q-36 0 -72.5 -17t-66.5 -48q-20 -20 -32 -40.5t-28 -56.5h8q14 33 25 51.5t30 37.5q29 32 64.5 49t70.5 17q26 0 41 -12.5t15 -34.5q0 -31 -20 -61.5t-52.5 -55t-73.5 -39.5
t-83 -15q-83 0 -83 72q0 62 64 141q37 46 78.5 70.5t101.5 35.5q16 -54 50 -54q31 0 31 28q0 34 -53 35q-8 0 -11.5 -0.5t-8.5 -1.5v17q45 9 80.5 21.5t67.5 29.5q25 14 46.5 30.5t37 33.5t24.5 33.5t9 30.5q0 31 -43 31q-23 0 -49 -7.5t-52 -20.5t-50 -30.5t-41 -36.5
q-23 -26 -32 -51t-10 -60q-21 -3 -37 -4.5t-31 -1.5q-61 0 -96.5 21.5t-35.5 58.5q0 9 7 29.5t32 42t72.5 38t127.5 17.5l-1 5q-64 -1 -104.5 -9.5t-72.5 -28.5q-68 -40 -68 -93q0 -40 37 -64t100 -24q9 0 16.5 0.5l15 1t16.5 2t23 3.5zM536 590q44 20 75.5 37t50.5 32
q2 -16 5.5 -31.5t9.5 -38.5h5q1 22 6 41t16 48h-32q-28 -21 -61.5 -41t-88.5 -47h14z" />
    <glyph glyph-name="Edieresis" unicode="&#xcb;" horiz-adv-x="432" 
d="M351 328q14 44 40 80.5t57.5 62.5t63.5 40t58 14q17 0 28 -7.5t11 -19.5q0 -17 -18 -41.5t-51.5 -49.5t-81.5 -47t-107 -32zM350 298q3 0 14 1t23 -1t21 -8.5t9 -19.5q0 -20 -22 -20q-18 0 -30 13t-15 35zM341 302q-55 -9 -104 -30t-86 -50.5t-58.5 -65.5t-21.5 -76
q0 -51 30 -79.5t83 -28.5q42 0 83.5 15.5t75 41t54 57t20.5 63.5q0 25 -16.5 39.5t-45.5 14.5q-36 0 -72.5 -17t-66.5 -48q-20 -20 -32 -40.5t-28 -56.5h8q14 33 25 51.5t30 37.5q29 32 64.5 49t70.5 17q26 0 41 -12.5t15 -34.5q0 -31 -20 -61.5t-52.5 -55t-73.5 -39.5
t-83 -15q-83 0 -83 72q0 62 64 141q37 46 78.5 70.5t101.5 35.5q16 -54 50 -54q31 0 31 28q0 34 -53 35q-8 0 -11.5 -0.5t-8.5 -1.5v17q45 9 80.5 21.5t67.5 29.5q25 14 46.5 30.5t37 33.5t24.5 33.5t9 30.5q0 31 -43 31q-23 0 -49 -7.5t-52 -20.5t-50 -30.5t-41 -36.5
q-23 -26 -32 -51t-10 -60q-21 -3 -37 -4.5t-31 -1.5q-61 0 -96.5 21.5t-35.5 58.5q0 9 7 29.5t32 42t72.5 38t127.5 17.5l-1 5q-64 -1 -104.5 -9.5t-72.5 -28.5q-68 -40 -68 -93q0 -40 37 -64t100 -24q9 0 16.5 0.5l15 1t16.5 2t23 3.5zM556 620q-8 0 -15.5 -10t-7.5 -21
q0 -19 16 -19q10 0 16.5 9t6.5 21q0 20 -16 20zM627 570q9 0 17 10t8 22q0 8 -4.5 13t-11.5 5q-9 0 -17 -10.5t-8 -23.5q0 -6 4.5 -11t11.5 -5z" />
    <glyph glyph-name="Egrave" unicode="&#xc8;" horiz-adv-x="432" 
d="M351 328q14 44 40 80.5t57.5 62.5t63.5 40t58 14q17 0 28 -7.5t11 -19.5q0 -17 -18 -41.5t-51.5 -49.5t-81.5 -47t-107 -32zM350 298q3 0 14 1t23 -1t21 -8.5t9 -19.5q0 -20 -22 -20q-18 0 -30 13t-15 35zM341 302q-55 -9 -104 -30t-86 -50.5t-58.5 -65.5t-21.5 -76
q0 -51 30 -79.5t83 -28.5q42 0 83.5 15.5t75 41t54 57t20.5 63.5q0 25 -16.5 39.5t-45.5 14.5q-36 0 -72.5 -17t-66.5 -48q-20 -20 -32 -40.5t-28 -56.5h8q14 33 25 51.5t30 37.5q29 32 64.5 49t70.5 17q26 0 41 -12.5t15 -34.5q0 -31 -20 -61.5t-52.5 -55t-73.5 -39.5
t-83 -15q-83 0 -83 72q0 62 64 141q37 46 78.5 70.5t101.5 35.5q16 -54 50 -54q31 0 31 28q0 34 -53 35q-8 0 -11.5 -0.5t-8.5 -1.5v17q45 9 80.5 21.5t67.5 29.5q25 14 46.5 30.5t37 33.5t24.5 33.5t9 30.5q0 31 -43 31q-23 0 -49 -7.5t-52 -20.5t-50 -30.5t-41 -36.5
q-23 -26 -32 -51t-10 -60q-21 -3 -37 -4.5t-31 -1.5q-61 0 -96.5 21.5t-35.5 58.5q0 9 7 29.5t32 42t72.5 38t127.5 17.5l-1 5q-64 -1 -104.5 -9.5t-72.5 -28.5q-68 -40 -68 -93q0 -40 37 -64t100 -24q9 0 16.5 0.5l15 1t16.5 2t23 3.5zM556 590q-7 23 -7.5 47.5t0.5 41.5
h-45q6 -23 18 -45.5t28 -43.5h6z" />
    <glyph glyph-name="Iacute" unicode="&#xcd;" horiz-adv-x="469" 
d="M363 306q0 22 13.5 51t42 57.5t73 53.5t107.5 39q2 0 15 2.5t32.5 5.5t44 5.5t50.5 2.5q-23 -11 -39 -19.5t-30.5 -17.5t-29.5 -19.5t-35 -26.5q-123 -96 -194 -202q-23 3 -36.5 21t-13.5 47zM394 209q-31 -49 -62 -91t-67 -73.5t-78.5 -49.5t-96.5 -18q-42 0 -67.5 15
t-25.5 40q0 10 7 20q5 -11 8.5 -14.5t11.5 -3.5q19 0 19 17q0 20 -21 20q-15 0 -24.5 -10.5t-9.5 -27.5q0 -27 28 -44.5t71 -18.5q33 0 69.5 9.5t72.5 27.5t70 43t63 56q23 24 42.5 51.5t42.5 68.5q37 2 62.5 11.5t46.5 31.5q19 20 32 49.5t13 53.5h-5q0 -17 -8.5 -41
t-26 -45.5t-45 -37t-64.5 -14.5q34 63 68.5 108.5t73.5 79.5q46 39 86 63t84 39v5q-99 0 -177.5 -19.5t-132.5 -50t-83 -68.5t-29 -77q0 -63 66 -83zM671 589q24 13 42 24.5t32.5 21.5t26 20.5t22.5 22.5h-53q-15 -26 -34 -47t-48 -42h12z" />
    <glyph glyph-name="Icircumflex" unicode="&#xce;" horiz-adv-x="469" 
d="M363 306q0 22 13.5 51t42 57.5t73 53.5t107.5 39q2 0 15 2.5t32.5 5.5t44 5.5t50.5 2.5q-23 -11 -39 -19.5t-30.5 -17.5t-29.5 -19.5t-35 -26.5q-123 -96 -194 -202q-23 3 -36.5 21t-13.5 47zM394 209q-31 -49 -62 -91t-67 -73.5t-78.5 -49.5t-96.5 -18q-42 0 -67.5 15
t-25.5 40q0 10 7 20q5 -11 8.5 -14.5t11.5 -3.5q19 0 19 17q0 20 -21 20q-15 0 -24.5 -10.5t-9.5 -27.5q0 -27 28 -44.5t71 -18.5q33 0 69.5 9.5t72.5 27.5t70 43t63 56q23 24 42.5 51.5t42.5 68.5q37 2 62.5 11.5t46.5 31.5q19 20 32 49.5t13 53.5h-5q0 -17 -8.5 -41
t-26 -45.5t-45 -37t-64.5 -14.5q34 63 68.5 108.5t73.5 79.5q46 39 86 63t84 39v5q-99 0 -177.5 -19.5t-132.5 -50t-83 -68.5t-29 -77q0 -63 66 -83zM584 590q44 20 75.5 37t50.5 32q2 -16 5.5 -31.5t9.5 -38.5h5q1 22 6 41t16 48h-32q-28 -21 -61.5 -41t-88.5 -47h14z" />
    <glyph glyph-name="Idieresis" unicode="&#xcf;" horiz-adv-x="469" 
d="M363 306q0 22 13.5 51t42 57.5t73 53.5t107.5 39q2 0 15 2.5t32.5 5.5t44 5.5t50.5 2.5q-23 -11 -39 -19.5t-30.5 -17.5t-29.5 -19.5t-35 -26.5q-123 -96 -194 -202q-23 3 -36.5 21t-13.5 47zM394 209q-31 -49 -62 -91t-67 -73.5t-78.5 -49.5t-96.5 -18q-42 0 -67.5 15
t-25.5 40q0 10 7 20q5 -11 8.5 -14.5t11.5 -3.5q19 0 19 17q0 20 -21 20q-15 0 -24.5 -10.5t-9.5 -27.5q0 -27 28 -44.5t71 -18.5q33 0 69.5 9.5t72.5 27.5t70 43t63 56q23 24 42.5 51.5t42.5 68.5q37 2 62.5 11.5t46.5 31.5q19 20 32 49.5t13 53.5h-5q0 -17 -8.5 -41
t-26 -45.5t-45 -37t-64.5 -14.5q34 63 68.5 108.5t73.5 79.5q46 39 86 63t84 39v5q-99 0 -177.5 -19.5t-132.5 -50t-83 -68.5t-29 -77q0 -63 66 -83zM604 620q-8 0 -15.5 -10t-7.5 -21q0 -19 16 -19q10 0 16.5 9t6.5 21q0 20 -16 20zM675 570q9 0 17 10t8 22q0 8 -4.5 13
t-11.5 5q-9 0 -17 -10.5t-8 -23.5q0 -6 4.5 -11t11.5 -5z" />
    <glyph glyph-name="Igrave" unicode="&#xcc;" horiz-adv-x="469" 
d="M363 306q0 22 13.5 51t42 57.5t73 53.5t107.5 39q2 0 15 2.5t32.5 5.5t44 5.5t50.5 2.5q-23 -11 -39 -19.5t-30.5 -17.5t-29.5 -19.5t-35 -26.5q-123 -96 -194 -202q-23 3 -36.5 21t-13.5 47zM394 209q-31 -49 -62 -91t-67 -73.5t-78.5 -49.5t-96.5 -18q-42 0 -67.5 15
t-25.5 40q0 10 7 20q5 -11 8.5 -14.5t11.5 -3.5q19 0 19 17q0 20 -21 20q-15 0 -24.5 -10.5t-9.5 -27.5q0 -27 28 -44.5t71 -18.5q33 0 69.5 9.5t72.5 27.5t70 43t63 56q23 24 42.5 51.5t42.5 68.5q37 2 62.5 11.5t46.5 31.5q19 20 32 49.5t13 53.5h-5q0 -17 -8.5 -41
t-26 -45.5t-45 -37t-64.5 -14.5q34 63 68.5 108.5t73.5 79.5q46 39 86 63t84 39v5q-99 0 -177.5 -19.5t-132.5 -50t-83 -68.5t-29 -77q0 -63 66 -83zM654 590q-7 23 -7.5 47.5t0.5 41.5h-45q6 -23 18 -45.5t28 -43.5h6z" />
    <glyph glyph-name="Ntilde" unicode="&#xd1;" horiz-adv-x="604" 
d="M531 363q8 44 27.5 83.5t50.5 71.5q6 6 6 9t-4 3q-5 0 -10.5 -8t-13.5 -20q-2 -3 -8.5 -11.5t-13 -17.5t-11.5 -16.5l-5 -7.5l-50 -68q-15 -21 -40.5 -52.5t-53.5 -65.5t-55.5 -66.5t-48.5 -55.5q-49 -54 -87 -86t-68 -49t-54.5 -22.5t-45.5 -5.5q-29 0 -47.5 11.5
t-18.5 28.5q0 14 8 22q4 -16 19 -16q19 0 19 17q0 19 -20 19q-14 0 -23.5 -11.5t-9.5 -28.5q0 -23 19.5 -36t55.5 -13q48 0 92.5 22.5t98.5 73.5q96 90 279 329l15 21q-2 -7 -4 -12t-7 -16q-10 -23 -20 -47.5t-19 -53t-16.5 -63t-12.5 -78.5l-2 -16q-2 -19 -6.5 -40.5
t-13 -42t-23 -38t-36.5 -28.5q-9 -5 -9 -8t5 -3q16 0 36.5 26t53.5 77q54 80 106 151t102 130q77 91 137.5 130.5t114.5 39.5q33 0 51.5 -10.5t18.5 -29.5q0 -8 -2 -8t-4.5 3.5t-9.5 3.5q-15 0 -15 -14q0 -16 14 -16q10 0 16 8t6 21q0 22 -20 34.5t-54 12.5q-50 0 -95.5 -25
t-93.5 -73q-37 -37 -82 -90.5t-87 -110.5l-91 -125q10 33 16.5 54t11 36t7 27t5.5 27zM703 590q17 15 24.5 19t24.5 4q9 -1 16.5 -2.5t21.5 -7.5q19 -8 30.5 -11t23.5 -3q23 0 41 10t41 36h-10q-23 -23 -45 -23q-8 0 -17.5 2.5t-24.5 8.5q-18 8 -29 10.5t-22 2.5
q-47 0 -86 -46h11z" />
    <glyph glyph-name="Oacute" unicode="&#xd3;" horiz-adv-x="438" 
d="M253 245q22 58 58 101t75 72t75.5 43.5t60.5 14.5q21 0 34 -14.5t13 -39.5q0 -33 -18 -73.5t-45 -82t-59.5 -80.5t-60.5 -68q-138 -141 -246 -141q-31 0 -48 16.5t-17 46.5q0 28 19 69.5t49.5 88t68.5 93.5t75 85q69 71 145.5 109t148.5 38q42 0 65 -16t23 -45t-20 -49
t-58 -27l-1 -6q83 18 83 83q0 31 -23.5 48.5t-65.5 17.5q-134 0 -299 -133q-227 -183 -227 -335q0 -41 23.5 -65.5t61.5 -24.5q33 0 69.5 14.5t73 39t72.5 57t68 69.5q32 36 59 73.5t47 73t31 67.5t11 58q0 27 -14 42.5t-39 15.5q-23 0 -59.5 -13t-76 -41.5t-77 -73.5
t-62.5 -108h7zM606 589q24 13 42 24.5t32.5 21.5t26 20.5t22.5 22.5h-53q-15 -26 -34 -47t-48 -42h12z" />
    <glyph glyph-name="Ocircumflex" unicode="&#xd4;" horiz-adv-x="438" 
d="M253 245q22 58 58 101t75 72t75.5 43.5t60.5 14.5q21 0 34 -14.5t13 -39.5q0 -33 -18 -73.5t-45 -82t-59.5 -80.5t-60.5 -68q-138 -141 -246 -141q-31 0 -48 16.5t-17 46.5q0 28 19 69.5t49.5 88t68.5 93.5t75 85q69 71 145.5 109t148.5 38q42 0 65 -16t23 -45t-20 -49
t-58 -27l-1 -6q83 18 83 83q0 31 -23.5 48.5t-65.5 17.5q-134 0 -299 -133q-227 -183 -227 -335q0 -41 23.5 -65.5t61.5 -24.5q33 0 69.5 14.5t73 39t72.5 57t68 69.5q32 36 59 73.5t47 73t31 67.5t11 58q0 27 -14 42.5t-39 15.5q-23 0 -59.5 -13t-76 -41.5t-77 -73.5
t-62.5 -108h7zM499 590q44 20 75.5 37t50.5 32q2 -16 5.5 -31.5t9.5 -38.5h5q1 22 6 41t16 48h-32q-28 -21 -61.5 -41t-88.5 -47h14z" />
    <glyph glyph-name="Odieresis" unicode="&#xd6;" horiz-adv-x="438" 
d="M253 245q22 58 58 101t75 72t75.5 43.5t60.5 14.5q21 0 34 -14.5t13 -39.5q0 -33 -18 -73.5t-45 -82t-59.5 -80.5t-60.5 -68q-138 -141 -246 -141q-31 0 -48 16.5t-17 46.5q0 28 19 69.5t49.5 88t68.5 93.5t75 85q69 71 145.5 109t148.5 38q42 0 65 -16t23 -45t-20 -49
t-58 -27l-1 -6q83 18 83 83q0 31 -23.5 48.5t-65.5 17.5q-134 0 -299 -133q-227 -183 -227 -335q0 -41 23.5 -65.5t61.5 -24.5q33 0 69.5 14.5t73 39t72.5 57t68 69.5q32 36 59 73.5t47 73t31 67.5t11 58q0 27 -14 42.5t-39 15.5q-23 0 -59.5 -13t-76 -41.5t-77 -73.5
t-62.5 -108h7zM519 620q-8 0 -15.5 -10t-7.5 -21q0 -19 16 -19q10 0 16.5 9t6.5 21q0 20 -16 20zM590 570q9 0 17 10t8 22q0 8 -4.5 13t-11.5 5q-9 0 -17 -10.5t-8 -23.5q0 -6 4.5 -11t11.5 -5z" />
    <glyph glyph-name="Ograve" unicode="&#xd2;" horiz-adv-x="438" 
d="M253 245q22 58 58 101t75 72t75.5 43.5t60.5 14.5q21 0 34 -14.5t13 -39.5q0 -33 -18 -73.5t-45 -82t-59.5 -80.5t-60.5 -68q-138 -141 -246 -141q-31 0 -48 16.5t-17 46.5q0 28 19 69.5t49.5 88t68.5 93.5t75 85q69 71 145.5 109t148.5 38q42 0 65 -16t23 -45t-20 -49
t-58 -27l-1 -6q83 18 83 83q0 31 -23.5 48.5t-65.5 17.5q-134 0 -299 -133q-227 -183 -227 -335q0 -41 23.5 -65.5t61.5 -24.5q33 0 69.5 14.5t73 39t72.5 57t68 69.5q32 36 59 73.5t47 73t31 67.5t11 58q0 27 -14 42.5t-39 15.5q-23 0 -59.5 -13t-76 -41.5t-77 -73.5
t-62.5 -108h7zM539 590q-7 23 -7.5 47.5t0.5 41.5h-45q6 -23 18 -45.5t28 -43.5h6z" />
    <glyph glyph-name="Otilde" unicode="&#xd5;" horiz-adv-x="438" 
d="M253 245q22 58 58 101t75 72t75.5 43.5t60.5 14.5q21 0 34 -14.5t13 -39.5q0 -33 -18 -73.5t-45 -82t-59.5 -80.5t-60.5 -68q-138 -141 -246 -141q-31 0 -48 16.5t-17 46.5q0 28 19 69.5t49.5 88t68.5 93.5t75 85q69 71 145.5 109t148.5 38q42 0 65 -16t23 -45t-20 -49
t-58 -27l-1 -6q83 18 83 83q0 31 -23.5 48.5t-65.5 17.5q-134 0 -299 -133q-227 -183 -227 -335q0 -41 23.5 -65.5t61.5 -24.5q33 0 69.5 14.5t73 39t72.5 57t68 69.5q32 36 59 73.5t47 73t31 67.5t11 58q0 27 -14 42.5t-39 15.5q-23 0 -59.5 -13t-76 -41.5t-77 -73.5
t-62.5 -108h7zM470 590q17 15 24.5 19t24.5 4q9 -1 16.5 -2.5t21.5 -7.5q19 -8 30.5 -11t23.5 -3q23 0 41 10t41 36h-10q-23 -23 -45 -23q-8 0 -17.5 2.5t-24.5 8.5q-18 8 -29 10.5t-22 2.5q-47 0 -86 -46h11z" />
    <glyph glyph-name="Uacute" unicode="&#xda;" horiz-adv-x="438" 
d="M621 483l-226 -256q-10 -11 -30 -31t-42.5 -41.5t-45 -42.5t-38.5 -34q-58 -50 -104 -75.5t-77 -25.5q-21 0 -21 13q0 17 48 72l235 267q28 31 42.5 67.5t14.5 71.5q0 36 -16.5 49t-61.5 13q-53 0 -99 -18.5t-80 -46t-53 -59.5t-19 -59q0 -20 14.5 -32t39.5 -12
q33 0 66 15t61.5 40t51.5 57t36 66h-7q-20 -47 -48.5 -80t-58.5 -53t-57.5 -29t-45.5 -9q-20 0 -32.5 11t-12.5 28q0 24 20 54.5t53.5 57t76.5 44.5t90 18q40 0 57 -11t17 -37q0 -20 -13 -43.5t-42 -56.5l-226 -258q-35 -40 -51 -67.5t-14 -56.5q2 -23 32 -23
q28 0 58.5 13.5t63.5 37t69.5 55.5t75.5 68q-3 -5 -7 -9t-10 -12q-37 -42 -54 -72.5t-17 -55.5q0 -10 6.5 -17t15.5 -7q17 0 39 12.5t46 31.5t49 42t47 44v8q-136 -132 -179 -132q-14 0 -14 14q0 11 13 26l409 466h-45zM516 589q24 13 42 24.5t32.5 21.5t26 20.5t22.5 22.5
h-53q-15 -26 -34 -47t-48 -42h12z" />
    <glyph glyph-name="Ucircumflex" unicode="&#xdb;" horiz-adv-x="438" 
d="M621 483l-226 -256q-10 -11 -30 -31t-42.5 -41.5t-45 -42.5t-38.5 -34q-58 -50 -104 -75.5t-77 -25.5q-21 0 -21 13q0 17 48 72l235 267q28 31 42.5 67.5t14.5 71.5q0 36 -16.5 49t-61.5 13q-53 0 -99 -18.5t-80 -46t-53 -59.5t-19 -59q0 -20 14.5 -32t39.5 -12
q33 0 66 15t61.5 40t51.5 57t36 66h-7q-20 -47 -48.5 -80t-58.5 -53t-57.5 -29t-45.5 -9q-20 0 -32.5 11t-12.5 28q0 24 20 54.5t53.5 57t76.5 44.5t90 18q40 0 57 -11t17 -37q0 -20 -13 -43.5t-42 -56.5l-226 -258q-35 -40 -51 -67.5t-14 -56.5q2 -23 32 -23
q28 0 58.5 13.5t63.5 37t69.5 55.5t75.5 68q-3 -5 -7 -9t-10 -12q-37 -42 -54 -72.5t-17 -55.5q0 -10 6.5 -17t15.5 -7q17 0 39 12.5t46 31.5t49 42t47 44v8q-136 -132 -179 -132q-14 0 -14 14q0 11 13 26l409 466h-45zM479 590q44 20 75.5 37t50.5 32q2 -16 5.5 -31.5
t9.5 -38.5h5q1 22 6 41t16 48h-32q-28 -21 -61.5 -41t-88.5 -47h14z" />
    <glyph glyph-name="Udieresis" unicode="&#xdc;" horiz-adv-x="438" 
d="M621 483l-226 -256q-10 -11 -30 -31t-42.5 -41.5t-45 -42.5t-38.5 -34q-58 -50 -104 -75.5t-77 -25.5q-21 0 -21 13q0 17 48 72l235 267q28 31 42.5 67.5t14.5 71.5q0 36 -16.5 49t-61.5 13q-53 0 -99 -18.5t-80 -46t-53 -59.5t-19 -59q0 -20 14.5 -32t39.5 -12
q33 0 66 15t61.5 40t51.5 57t36 66h-7q-20 -47 -48.5 -80t-58.5 -53t-57.5 -29t-45.5 -9q-20 0 -32.5 11t-12.5 28q0 24 20 54.5t53.5 57t76.5 44.5t90 18q40 0 57 -11t17 -37q0 -20 -13 -43.5t-42 -56.5l-226 -258q-35 -40 -51 -67.5t-14 -56.5q2 -23 32 -23
q28 0 58.5 13.5t63.5 37t69.5 55.5t75.5 68q-3 -5 -7 -9t-10 -12q-37 -42 -54 -72.5t-17 -55.5q0 -10 6.5 -17t15.5 -7q17 0 39 12.5t46 31.5t49 42t47 44v8q-136 -132 -179 -132q-14 0 -14 14q0 11 13 26l409 466h-45zM499 620q-8 0 -15.5 -10t-7.5 -21q0 -19 16 -19
q10 0 16.5 9t6.5 21q0 20 -16 20zM570 570q9 0 17 10t8 22q0 8 -4.5 13t-11.5 5q-9 0 -17 -10.5t-8 -23.5q0 -6 4.5 -11t11.5 -5z" />
    <glyph glyph-name="Ugrave" unicode="&#xd9;" horiz-adv-x="438" 
d="M621 483l-226 -256q-10 -11 -30 -31t-42.5 -41.5t-45 -42.5t-38.5 -34q-58 -50 -104 -75.5t-77 -25.5q-21 0 -21 13q0 17 48 72l235 267q28 31 42.5 67.5t14.5 71.5q0 36 -16.5 49t-61.5 13q-53 0 -99 -18.5t-80 -46t-53 -59.5t-19 -59q0 -20 14.5 -32t39.5 -12
q33 0 66 15t61.5 40t51.5 57t36 66h-7q-20 -47 -48.5 -80t-58.5 -53t-57.5 -29t-45.5 -9q-20 0 -32.5 11t-12.5 28q0 24 20 54.5t53.5 57t76.5 44.5t90 18q40 0 57 -11t17 -37q0 -20 -13 -43.5t-42 -56.5l-226 -258q-35 -40 -51 -67.5t-14 -56.5q2 -23 32 -23
q28 0 58.5 13.5t63.5 37t69.5 55.5t75.5 68q-3 -5 -7 -9t-10 -12q-37 -42 -54 -72.5t-17 -55.5q0 -10 6.5 -17t15.5 -7q17 0 39 12.5t46 31.5t49 42t47 44v8q-136 -132 -179 -132q-14 0 -14 14q0 11 13 26l409 466h-45zM529 590q-7 23 -7.5 47.5t0.5 41.5h-45
q6 -23 18 -45.5t28 -43.5h6z" />
    <glyph glyph-name="Ydieresis" unicode="&#x178;" horiz-adv-x="448" 
d="M364 464q-23 -46 -51.5 -74t-56 -43t-51.5 -19.5t-36 -4.5q-20 0 -32 11t-12 30q0 28 20 56.5t52 51.5t71.5 38t78.5 15q32 0 51 -15t19 -40q0 -28 -20 -59.5t-68 -79.5q-47 -47 -72.5 -79t-38 -54t-15 -35.5t-2.5 -23.5q0 -33 39 -33q38 0 87 28.5t106 84.5
q-6 -10 -22 -30.5t-36 -44t-41 -47.5t-37 -41q-35 -38 -79 -58t-91 -20q-40 0 -63.5 16.5t-23.5 44.5q0 8 3 14t8 8q3 -17 17 -17q16 0 16 15q0 16 -19 16q-15 0 -24 -10t-9 -28q0 -29 26 -47.5t68 -18.5t79.5 13.5t74 40t74 64t79.5 85.5l273 308h-43l-197 -220
q-63 -70 -123.5 -110t-105.5 -40q-12 0 -20 6t-8 16q0 8 8 21t20.5 29t29 34t34.5 36l39 40q24 25 40.5 46t27 40t15 37t4.5 37q0 37 -22 57t-64 20q-39 0 -78.5 -15.5t-71.5 -39.5t-52.5 -54t-20.5 -59q0 -20 13.5 -33t36.5 -13q35 0 75.5 18.5t72.5 49.5q9 8 15.5 16
t12.5 16.5t11.5 19.5l12.5 25zM544 620q-8 0 -15.5 -10t-7.5 -21q0 -19 16 -19q10 0 16.5 9t6.5 21q0 20 -16 20zM615 570q9 0 17 10t8 22q0 8 -4.5 13t-11.5 5q-9 0 -17 -10.5t-8 -23.5q0 -6 4.5 -11t11.5 -5z" />
    <glyph glyph-name="aacute" unicode="&#xe1;" horiz-adv-x="260" 
d="M137 167q19 0 19 -19q0 -15 -18 -39t-43.5 -47.5t-52 -40.5t-42.5 -17q-8 0 -13 5t-5 12q0 10 14.5 33.5t37.5 48t50 43.5t53 21zM259 109l-35 -30t-43 -34.5t-42 -28.5t-31 -12q-6 0 -6 7q0 5 8 16.5t19.5 25.5t24.5 28.5t24 26.5q16 19 42 48l12 16l-41 -3l-30 -34
l1.5 7.5t0.5 7.5q0 22 -27 22q-20 0 -49 -8.5t-55.5 -25t-45 -41t-18.5 -55.5q0 -20 9 -32.5t23 -12.5q15 0 35.5 11.5t53.5 39.5q5 5 8 7t7 6q-7 -21 -9.5 -30.5t-2.5 -16.5q0 -17 13 -17q17 0 52 23t83 65l19 16v8zM198 232q24 13 42 24.5t32.5 21.5t26 20.5t22.5 22.5
h-53q-15 -26 -34 -47t-48 -42h12z" />
    <glyph glyph-name="acircumflex" unicode="&#xe2;" horiz-adv-x="260" 
d="M137 167q19 0 19 -19q0 -15 -18 -39t-43.5 -47.5t-52 -40.5t-42.5 -17q-8 0 -13 5t-5 12q0 10 14.5 33.5t37.5 48t50 43.5t53 21zM259 109l-35 -30t-43 -34.5t-42 -28.5t-31 -12q-6 0 -6 7q0 5 8 16.5t19.5 25.5t24.5 28.5t24 26.5q16 19 42 48l12 16l-41 -3l-30 -34
l1.5 7.5t0.5 7.5q0 22 -27 22q-20 0 -49 -8.5t-55.5 -25t-45 -41t-18.5 -55.5q0 -20 9 -32.5t23 -12.5q15 0 35.5 11.5t53.5 39.5q5 5 8 7t7 6q-7 -21 -9.5 -30.5t-2.5 -16.5q0 -17 13 -17q17 0 52 23t83 65l19 16v8zM131 233q44 20 75.5 37t50.5 32q2 -16 5.5 -31.5
t9.5 -38.5h5q1 22 6 41t16 48h-32q-28 -21 -61.5 -41t-88.5 -47h14z" />
    <glyph glyph-name="adieresis" unicode="&#xe4;" horiz-adv-x="260" 
d="M137 167q19 0 19 -19q0 -15 -18 -39t-43.5 -47.5t-52 -40.5t-42.5 -17q-8 0 -13 5t-5 12q0 10 14.5 33.5t37.5 48t50 43.5t53 21zM259 109l-35 -30t-43 -34.5t-42 -28.5t-31 -12q-6 0 -6 7q0 5 8 16.5t19.5 25.5t24.5 28.5t24 26.5q16 19 42 48l12 16l-41 -3l-30 -34
l1.5 7.5t0.5 7.5q0 22 -27 22q-20 0 -49 -8.5t-55.5 -25t-45 -41t-18.5 -55.5q0 -20 9 -32.5t23 -12.5q15 0 35.5 11.5t53.5 39.5q5 5 8 7t7 6q-7 -21 -9.5 -30.5t-2.5 -16.5q0 -17 13 -17q17 0 52 23t83 65l19 16v8zM151 263q-8 0 -15.5 -10t-7.5 -21q0 -19 16 -19
q10 0 16.5 9t6.5 21q0 20 -16 20zM222 213q9 0 17 10t8 22q0 8 -4.5 13t-11.5 5q-9 0 -17 -10.5t-8 -23.5q0 -6 4.5 -11t11.5 -5z" />
    <glyph glyph-name="agrave" unicode="&#xe0;" horiz-adv-x="260" 
d="M137 167q19 0 19 -19q0 -15 -18 -39t-43.5 -47.5t-52 -40.5t-42.5 -17q-8 0 -13 5t-5 12q0 10 14.5 33.5t37.5 48t50 43.5t53 21zM259 109l-35 -30t-43 -34.5t-42 -28.5t-31 -12q-6 0 -6 7q0 5 8 16.5t19.5 25.5t24.5 28.5t24 26.5q16 19 42 48l12 16l-41 -3l-30 -34
l1.5 7.5t0.5 7.5q0 22 -27 22q-20 0 -49 -8.5t-55.5 -25t-45 -41t-18.5 -55.5q0 -20 9 -32.5t23 -12.5q15 0 35.5 11.5t53.5 39.5q5 5 8 7t7 6q-7 -21 -9.5 -30.5t-2.5 -16.5q0 -17 13 -17q17 0 52 23t83 65l19 16v8zM181 233q-7 23 -7.5 47.5t0.5 41.5h-45q6 -23 18 -45.5
t28 -43.5h6z" />
    <glyph glyph-name="aring" unicode="&#xe5;" horiz-adv-x="260" 
d="M137 167q19 0 19 -19q0 -15 -18 -39t-43.5 -47.5t-52 -40.5t-42.5 -17q-8 0 -13 5t-5 12q0 10 14.5 33.5t37.5 48t50 43.5t53 21zM259 109l-35 -30t-43 -34.5t-42 -28.5t-31 -12q-6 0 -6 7q0 5 8 16.5t19.5 25.5t24.5 28.5t24 26.5q16 19 42 48l12 16l-41 -3l-30 -34
l1.5 7.5t0.5 7.5q0 22 -27 22q-20 0 -49 -8.5t-55.5 -25t-45 -41t-18.5 -55.5q0 -20 9 -32.5t23 -12.5q15 0 35.5 11.5t53.5 39.5q5 5 8 7t7 6q-7 -21 -9.5 -30.5t-2.5 -16.5q0 -17 13 -17q17 0 52 23t83 65l19 16v8zM175 297q-19 0 -32.5 -13.5t-13.5 -33.5t13.5 -33.5
t33.5 -13.5t34 13.5t14 33.5t-13.5 33.5t-35.5 13.5zM178 290q16 0 27 -11.5t11 -28.5t-11 -28.5t-28 -11.5t-28.5 11.5t-11.5 28.5t12 28.5t29 11.5z" />
    <glyph glyph-name="atilde" unicode="&#xe3;" horiz-adv-x="260" 
d="M137 167q19 0 19 -19q0 -15 -18 -39t-43.5 -47.5t-52 -40.5t-42.5 -17q-8 0 -13 5t-5 12q0 10 14.5 33.5t37.5 48t50 43.5t53 21zM259 109l-35 -30t-43 -34.5t-42 -28.5t-31 -12q-6 0 -6 7q0 5 8 16.5t19.5 25.5t24.5 28.5t24 26.5q16 19 42 48l12 16l-41 -3l-30 -34
l1.5 7.5t0.5 7.5q0 22 -27 22q-20 0 -49 -8.5t-55.5 -25t-45 -41t-18.5 -55.5q0 -20 9 -32.5t23 -12.5q15 0 35.5 11.5t53.5 39.5q5 5 8 7t7 6q-7 -21 -9.5 -30.5t-2.5 -16.5q0 -17 13 -17q17 0 52 23t83 65l19 16v8zM102 233q17 15 24.5 19t24.5 4q9 -1 16.5 -2.5
t21.5 -7.5q19 -8 30.5 -11t23.5 -3q23 0 41 10t41 36h-10q-23 -23 -45 -23q-8 0 -17.5 2.5t-24.5 8.5q-18 8 -29 10.5t-22 2.5q-47 0 -86 -46h11z" />
    <glyph glyph-name="ccedilla" unicode="&#xe7;" horiz-adv-x="198" 
d="M197 109q-12 -11 -34 -29t-47.5 -35t-53 -29.5t-51.5 -12.5q-26 0 -26 16q0 14 16 39t39.5 49t50.5 41.5t49 17.5q20 0 20 -17q0 -5 -2 -9t-4 -4q-3 0 -4 4q-3 7 -12 7q-7 0 -12 -5t-5 -12q0 -13 15 -13q12 0 21 10t9 23q0 22 -28 22q-19 0 -47 -8.5t-54.5 -24.5
t-45.5 -39.5t-19 -54.5q0 -48 40 -48q37 0 83.5 27.5t101.5 76.5v8zM-70 -84q32 12 54.5 28.5t22.5 27.5q0 9 -9 9q-8 0 -13 -6t-8 -11q-9 -15 -19.5 -23.5t-31.5 -19.5z" />
    <glyph glyph-name="eacute" unicode="&#xe9;" horiz-adv-x="198" 
d="M30 95q28 32 57.5 51.5t51.5 19.5q17 0 17 -14q0 -6 -7.5 -15.5t-23 -19t-39 -16t-56.5 -6.5zM197 109q-63 -57 -106.5 -81.5t-78.5 -24.5q-28 0 -28 19q0 11 10 27.5t27 36.5q64 2 104 19.5t40 43.5q0 11 -8 17.5t-22 6.5q-12 0 -39 -7t-55 -23t-49 -40.5t-21 -59.5
q0 -46 41 -46q73 0 176 95q5 6 9 9v8zM167 232q24 13 42 24.5t32.5 21.5t26 20.5t22.5 22.5h-53q-15 -26 -34 -47t-48 -42h12z" />
    <glyph glyph-name="ecircumflex" unicode="&#xea;" horiz-adv-x="198" 
d="M30 95q28 32 57.5 51.5t51.5 19.5q17 0 17 -14q0 -6 -7.5 -15.5t-23 -19t-39 -16t-56.5 -6.5zM197 109q-63 -57 -106.5 -81.5t-78.5 -24.5q-28 0 -28 19q0 11 10 27.5t27 36.5q64 2 104 19.5t40 43.5q0 11 -8 17.5t-22 6.5q-12 0 -39 -7t-55 -23t-49 -40.5t-21 -59.5
q0 -46 41 -46q73 0 176 95q5 6 9 9v8zM100 233q44 20 75.5 37t50.5 32q2 -16 5.5 -31.5t9.5 -38.5h5q1 22 6 41t16 48h-32q-28 -21 -61.5 -41t-88.5 -47h14z" />
    <glyph glyph-name="edieresis" unicode="&#xeb;" horiz-adv-x="198" 
d="M30 95q28 32 57.5 51.5t51.5 19.5q17 0 17 -14q0 -6 -7.5 -15.5t-23 -19t-39 -16t-56.5 -6.5zM197 109q-63 -57 -106.5 -81.5t-78.5 -24.5q-28 0 -28 19q0 11 10 27.5t27 36.5q64 2 104 19.5t40 43.5q0 11 -8 17.5t-22 6.5q-12 0 -39 -7t-55 -23t-49 -40.5t-21 -59.5
q0 -46 41 -46q73 0 176 95q5 6 9 9v8zM120 263q-8 0 -15.5 -10t-7.5 -21q0 -19 16 -19q10 0 16.5 9t6.5 21q0 20 -16 20zM191 213q9 0 17 10t8 22q0 8 -4.5 13t-11.5 5q-9 0 -17 -10.5t-8 -23.5q0 -6 4.5 -11t11.5 -5z" />
    <glyph glyph-name="egrave" unicode="&#xe8;" horiz-adv-x="198" 
d="M30 95q28 32 57.5 51.5t51.5 19.5q17 0 17 -14q0 -6 -7.5 -15.5t-23 -19t-39 -16t-56.5 -6.5zM197 109q-63 -57 -106.5 -81.5t-78.5 -24.5q-28 0 -28 19q0 11 10 27.5t27 36.5q64 2 104 19.5t40 43.5q0 11 -8 17.5t-22 6.5q-12 0 -39 -7t-55 -23t-49 -40.5t-21 -59.5
q0 -46 41 -46q73 0 176 95q5 6 9 9v8zM150 233q-7 23 -7.5 47.5t0.5 41.5h-45q6 -23 18 -45.5t28 -43.5h6z" />
    <glyph glyph-name="iacute" unicode="&#xed;" horiz-adv-x="156" 
d="M-5 97q20 18 42.5 35.5t39.5 27.5q-3 -3 -5.5 -6t-7.5 -8q-42 -42 -61 -73t-19 -56q0 -19 16 -19q15 0 37 12.5t44.5 29.5t42.5 34t31 27v8q-51 -48 -92.5 -76.5t-61.5 -28.5q-10 0 -10 9q0 6 12.5 20.5t27.5 30.5l94 106h-44q-20 -14 -40.5 -29t-45.5 -36v-8zM146 232
q24 13 42 24.5t32.5 21.5t26 20.5t22.5 22.5h-53q-15 -26 -34 -47t-48 -42h12z" />
    <glyph glyph-name="icircumflex" unicode="&#xee;" horiz-adv-x="156" 
d="M-5 97q20 18 42.5 35.5t39.5 27.5q-3 -3 -5.5 -6t-7.5 -8q-42 -42 -61 -73t-19 -56q0 -19 16 -19q15 0 37 12.5t44.5 29.5t42.5 34t31 27v8q-51 -48 -92.5 -76.5t-61.5 -28.5q-10 0 -10 9q0 6 12.5 20.5t27.5 30.5l94 106h-44q-20 -14 -40.5 -29t-45.5 -36v-8zM79 233
q44 20 75.5 37t50.5 32q2 -16 5.5 -31.5t9.5 -38.5h5q1 22 6 41t16 48h-32q-28 -21 -61.5 -41t-88.5 -47h14z" />
    <glyph glyph-name="idieresis" unicode="&#xef;" horiz-adv-x="156" 
d="M-5 97q20 18 42.5 35.5t39.5 27.5q-3 -3 -5.5 -6t-7.5 -8q-42 -42 -61 -73t-19 -56q0 -19 16 -19q15 0 37 12.5t44.5 29.5t42.5 34t31 27v8q-51 -48 -92.5 -76.5t-61.5 -28.5q-10 0 -10 9q0 6 12.5 20.5t27.5 30.5l94 106h-44q-20 -14 -40.5 -29t-45.5 -36v-8zM99 263
q-8 0 -15.5 -10t-7.5 -21q0 -19 16 -19q10 0 16.5 9t6.5 21q0 20 -16 20zM170 213q9 0 17 10t8 22q0 8 -4.5 13t-11.5 5q-9 0 -17 -10.5t-8 -23.5q0 -6 4.5 -11t11.5 -5z" />
    <glyph glyph-name="igrave" unicode="&#xec;" horiz-adv-x="156" 
d="M-5 97q20 18 42.5 35.5t39.5 27.5q-3 -3 -5.5 -6t-7.5 -8q-42 -42 -61 -73t-19 -56q0 -19 16 -19q15 0 37 12.5t44.5 29.5t42.5 34t31 27v8q-51 -48 -92.5 -76.5t-61.5 -28.5q-10 0 -10 9q0 6 12.5 20.5t27.5 30.5l94 106h-44q-20 -14 -40.5 -29t-45.5 -36v-8zM129 233
q-7 23 -7.5 47.5t0.5 41.5h-45q6 -23 18 -45.5t28 -43.5h6z" />
    <glyph glyph-name="ntilde" unicode="&#xf1;" horiz-adv-x="323" 
d="M-6 97q9 9 23 20.5t28 22.5t27 18.5t20 7.5q8 0 8 -6t-20 -29.5t-52 -57.5l-65 -73h39q36 34 74 64.5t70.5 53t57 35.5t33.5 13q3 0 6 -2.5t3 -5.5q0 -13 -46 -52q-26 -23 -40.5 -45.5t-14.5 -41.5q0 -9 6.5 -15.5t15.5 -6.5q16 0 40 14.5t47.5 32.5t42.5 35t25 22v8
q-43 -39 -71.5 -60.5t-46.5 -31.5t-26 -12t-10 -2q-5 0 -9.5 3.5t-4.5 8.5q0 7 8.5 16.5t29.5 24.5q35 26 51 48t16 45t-18 23q-11 0 -29 -7q-9 -4 -23 -12.5t-30.5 -19.5t-35.5 -24t-37 -27l-26 -20q27 34 39.5 53t12.5 36q0 21 -17 21q-9 0 -22 -7t-27 -17t-27.5 -21.5
t-24.5 -21.5v-8zM133 233q17 15 24.5 19t24.5 4q9 -1 16.5 -2.5t21.5 -7.5q19 -8 30.5 -11t23.5 -3q23 0 41 10t41 36h-10q-23 -23 -45 -23q-8 0 -17.5 2.5t-24.5 8.5q-18 8 -29 10.5t-22 2.5q-47 0 -86 -46h11z" />
    <glyph glyph-name="oacute" unicode="&#xf3;" horiz-adv-x="208" 
d="M136 167q9 1 16.5 -6t7.5 -17q0 -15 -16 -38.5t-39.5 -46.5t-50.5 -39.5t-48 -16.5q-25 0 -25 19q0 7 15.5 30t38.5 48t50 45.5t51 21.5zM207 109q-14 -11 -26.5 -17.5t-25.5 -6.5q-6 0 -9 2q11 17 16 29.5t5 26.5q0 30 -33 30q-19 0 -47.5 -10t-55.5 -28t-46.5 -42.5
t-19.5 -53.5q0 -18 10.5 -29.5t27.5 -11.5q57 0 137 82q4 -2 12 -2q15 0 28 6t27 17v8zM172 232q24 13 42 24.5t32.5 21.5t26 20.5t22.5 22.5h-53q-15 -26 -34 -47t-48 -42h12z" />
    <glyph glyph-name="ocircumflex" unicode="&#xf4;" horiz-adv-x="208" 
d="M136 167q9 1 16.5 -6t7.5 -17q0 -15 -16 -38.5t-39.5 -46.5t-50.5 -39.5t-48 -16.5q-25 0 -25 19q0 7 15.5 30t38.5 48t50 45.5t51 21.5zM207 109q-14 -11 -26.5 -17.5t-25.5 -6.5q-6 0 -9 2q11 17 16 29.5t5 26.5q0 30 -33 30q-19 0 -47.5 -10t-55.5 -28t-46.5 -42.5
t-19.5 -53.5q0 -18 10.5 -29.5t27.5 -11.5q57 0 137 82q4 -2 12 -2q15 0 28 6t27 17v8zM105 233q44 20 75.5 37t50.5 32q2 -16 5.5 -31.5t9.5 -38.5h5q1 22 6 41t16 48h-32q-28 -21 -61.5 -41t-88.5 -47h14z" />
    <glyph glyph-name="odieresis" unicode="&#xf6;" horiz-adv-x="208" 
d="M136 167q9 1 16.5 -6t7.5 -17q0 -15 -16 -38.5t-39.5 -46.5t-50.5 -39.5t-48 -16.5q-25 0 -25 19q0 7 15.5 30t38.5 48t50 45.5t51 21.5zM207 109q-14 -11 -26.5 -17.5t-25.5 -6.5q-6 0 -9 2q11 17 16 29.5t5 26.5q0 30 -33 30q-19 0 -47.5 -10t-55.5 -28t-46.5 -42.5
t-19.5 -53.5q0 -18 10.5 -29.5t27.5 -11.5q57 0 137 82q4 -2 12 -2q15 0 28 6t27 17v8zM125 263q-8 0 -15.5 -10t-7.5 -21q0 -19 16 -19q10 0 16.5 9t6.5 21q0 20 -16 20zM196 213q9 0 17 10t8 22q0 8 -4.5 13t-11.5 5q-9 0 -17 -10.5t-8 -23.5q0 -6 4.5 -11t11.5 -5z" />
    <glyph glyph-name="ograve" unicode="&#xf2;" horiz-adv-x="208" 
d="M136 167q9 1 16.5 -6t7.5 -17q0 -15 -16 -38.5t-39.5 -46.5t-50.5 -39.5t-48 -16.5q-25 0 -25 19q0 7 15.5 30t38.5 48t50 45.5t51 21.5zM207 109q-14 -11 -26.5 -17.5t-25.5 -6.5q-6 0 -9 2q11 17 16 29.5t5 26.5q0 30 -33 30q-19 0 -47.5 -10t-55.5 -28t-46.5 -42.5
t-19.5 -53.5q0 -18 10.5 -29.5t27.5 -11.5q57 0 137 82q4 -2 12 -2q15 0 28 6t27 17v8zM155 233q-7 23 -7.5 47.5t0.5 41.5h-45q6 -23 18 -45.5t28 -43.5h6z" />
    <glyph glyph-name="otilde" unicode="&#xf5;" horiz-adv-x="208" 
d="M136 167q9 1 16.5 -6t7.5 -17q0 -15 -16 -38.5t-39.5 -46.5t-50.5 -39.5t-48 -16.5q-25 0 -25 19q0 7 15.5 30t38.5 48t50 45.5t51 21.5zM207 109q-14 -11 -26.5 -17.5t-25.5 -6.5q-6 0 -9 2q11 17 16 29.5t5 26.5q0 30 -33 30q-19 0 -47.5 -10t-55.5 -28t-46.5 -42.5
t-19.5 -53.5q0 -18 10.5 -29.5t27.5 -11.5q57 0 137 82q4 -2 12 -2q15 0 28 6t27 17v8zM76 233q17 15 24.5 19t24.5 4q9 -1 16.5 -2.5t21.5 -7.5q19 -8 30.5 -11t23.5 -3q23 0 41 10t41 36h-10q-23 -23 -45 -23q-8 0 -17.5 2.5t-24.5 8.5q-18 8 -29 10.5t-22 2.5
q-47 0 -86 -46h11z" />
    <glyph glyph-name="uacute" unicode="&#xfa;" horiz-adv-x="292" 
d="M84 170q-29 -17 -50 -32.5t-40 -32.5v-8q34 31 71 54l1 -1q-5 -7 -9.5 -12t-12.5 -14q-36 -39 -50.5 -62.5t-14.5 -43.5q0 -9 4.5 -15t12.5 -6q13 0 32.5 10t42 26t47 36.5t48.5 42.5q7 5 10 8.5t8 7.5q-2 -3 -3.5 -5t-5.5 -6q-62 -75 -62 -102q0 -17 18 -17q12 0 28 7.5
t35 20t40 29t43 34.5l14 12v8l-7 -6q-17 -15 -35 -29.5t-34.5 -26.5t-30 -21.5t-22.5 -13.5q-21 -9 -29 -9t-8 6q0 7 7 14l127 147h-39q-35 -35 -69.5 -65t-64.5 -52.5t-53 -35.5t-35 -13q-9 0 -9 6q0 5 5.5 12t20.5 24l110 124h-41zM184 232q24 13 42 24.5t32.5 21.5
t26 20.5t22.5 22.5h-53q-15 -26 -34 -47t-48 -42h12z" />
    <glyph glyph-name="ucircumflex" unicode="&#xfb;" horiz-adv-x="292" 
d="M84 170q-29 -17 -50 -32.5t-40 -32.5v-8q34 31 71 54l1 -1q-5 -7 -9.5 -12t-12.5 -14q-36 -39 -50.5 -62.5t-14.5 -43.5q0 -9 4.5 -15t12.5 -6q13 0 32.5 10t42 26t47 36.5t48.5 42.5q7 5 10 8.5t8 7.5q-2 -3 -3.5 -5t-5.5 -6q-62 -75 -62 -102q0 -17 18 -17q12 0 28 7.5
t35 20t40 29t43 34.5l14 12v8l-7 -6q-17 -15 -35 -29.5t-34.5 -26.5t-30 -21.5t-22.5 -13.5q-21 -9 -29 -9t-8 6q0 7 7 14l127 147h-39q-35 -35 -69.5 -65t-64.5 -52.5t-53 -35.5t-35 -13q-9 0 -9 6q0 5 5.5 12t20.5 24l110 124h-41zM147 233q44 20 75.5 37t50.5 32
q2 -16 5.5 -31.5t9.5 -38.5h5q1 22 6 41t16 48h-32q-28 -21 -61.5 -41t-88.5 -47h14z" />
    <glyph glyph-name="udieresis" unicode="&#xfc;" horiz-adv-x="292" 
d="M84 170q-29 -17 -50 -32.5t-40 -32.5v-8q34 31 71 54l1 -1q-5 -7 -9.5 -12t-12.5 -14q-36 -39 -50.5 -62.5t-14.5 -43.5q0 -9 4.5 -15t12.5 -6q13 0 32.5 10t42 26t47 36.5t48.5 42.5q7 5 10 8.5t8 7.5q-2 -3 -3.5 -5t-5.5 -6q-62 -75 -62 -102q0 -17 18 -17q12 0 28 7.5
t35 20t40 29t43 34.5l14 12v8l-7 -6q-17 -15 -35 -29.5t-34.5 -26.5t-30 -21.5t-22.5 -13.5q-21 -9 -29 -9t-8 6q0 7 7 14l127 147h-39q-35 -35 -69.5 -65t-64.5 -52.5t-53 -35.5t-35 -13q-9 0 -9 6q0 5 5.5 12t20.5 24l110 124h-41zM167 263q-8 0 -15.5 -10t-7.5 -21
q0 -19 16 -19q10 0 16.5 9t6.5 21q0 20 -16 20zM238 213q9 0 17 10t8 22q0 8 -4.5 13t-11.5 5q-9 0 -17 -10.5t-8 -23.5q0 -6 4.5 -11t11.5 -5z" />
    <glyph glyph-name="ugrave" unicode="&#xf9;" horiz-adv-x="292" 
d="M84 170q-29 -17 -50 -32.5t-40 -32.5v-8q34 31 71 54l1 -1q-5 -7 -9.5 -12t-12.5 -14q-36 -39 -50.5 -62.5t-14.5 -43.5q0 -9 4.5 -15t12.5 -6q13 0 32.5 10t42 26t47 36.5t48.5 42.5q7 5 10 8.5t8 7.5q-2 -3 -3.5 -5t-5.5 -6q-62 -75 -62 -102q0 -17 18 -17q12 0 28 7.5
t35 20t40 29t43 34.5l14 12v8l-7 -6q-17 -15 -35 -29.5t-34.5 -26.5t-30 -21.5t-22.5 -13.5q-21 -9 -29 -9t-8 6q0 7 7 14l127 147h-39q-35 -35 -69.5 -65t-64.5 -52.5t-53 -35.5t-35 -13q-9 0 -9 6q0 5 5.5 12t20.5 24l110 124h-41zM197 233q-7 23 -7.5 47.5t0.5 41.5h-45
q6 -23 18 -45.5t28 -43.5h6z" />
    <glyph glyph-name="ydieresis" unicode="&#xff;" horiz-adv-x="323" 
d="M-6 97q8 7 21.5 19t28.5 23t30 19.5t25 8.5t10 -9t-9.5 -20t-32.5 -28q-35 -26 -49 -47.5t-14 -45.5q0 -9 5 -14.5t13 -5.5q12 0 30.5 8.5t42 23.5t50.5 36t55 45l1 -1l-9 -11q-15 -16 -30 -33.5l-30 -35t-29 -34t-25 -30.5q-75 -34 -125 -65t-80.5 -57t-43.5 -46
t-13 -32q0 -26 31 -28q23 0 54.5 20.5t67 53.5t73.5 74.5t74 83.5l9 10q34 14 60 26t48 26t43 30.5t46 39.5v8q-27 -24 -49 -41t-43 -30.5t-43.5 -24.5t-50.5 -22l159 180h-41q-12 -14 -17.5 -20t-15.5 -16q-21 -20 -51.5 -43.5t-74.5 -52.5q-18 -12 -29 -19t-18.5 -10.5
t-12.5 -5t-10 -1.5q-8 0 -8 8q0 6 9.5 17.5t32.5 31.5q28 24 43 48.5t15 44.5q0 8 -4.5 14t-10.5 6q-17 0 -41.5 -16.5t-66.5 -51.5v-8zM71 -45q-19 -25 -38 -48l-38 -46q-53 -63 -88 -90t-62 -27q-20 0 -20 20q0 22 25 48.5t62.5 52t80 49t78.5 41.5zM182 263
q-8 0 -15.5 -10t-7.5 -21q0 -19 16 -19q10 0 16.5 9t6.5 21q0 20 -16 20zM253 213q9 0 17 10t8 22q0 8 -4.5 13t-11.5 5q-9 0 -17 -10.5t-8 -23.5q0 -6 4.5 -11t11.5 -5z" />
    <glyph glyph-name="exclam" unicode="!" horiz-adv-x="166" 
d="M13 45l97 105q13 15 29.5 32.5t31.5 33t26 27t15 15.5q28 28 36.5 38t8.5 18q0 12 -10 12q-4 0 -8 -2t-10.5 -9t-17 -20.5t-27.5 -35.5q-23 -30 -42.5 -54t-39.5 -48t-44 -50.5t-55 -61.5h10zM-14 24q-7 0 -13 -6t-6 -14q0 -7 8 -7q5 0 11.5 6t6.5 13q0 8 -7 8z" />
    <glyph glyph-name="quotedbl" unicode="&#x22;" horiz-adv-x="229" 
d="M189 343l28 57q3 6 9 21t6 22q0 14 -15 14q-25 0 -29 -37l-8 -77h9zM117 343l27 58q10 20 13 28t3 14q0 14 -15 14q-19 0 -24 -17.5t-7 -38.5l-6 -58h9z" />
    <glyph glyph-name="fraction" unicode="&#x2215;" horiz-adv-x="156" 
d="M-79 29l4 -5l393 264l-4 6z" />
    <glyph glyph-name="Lslash" unicode="&#x141;" horiz-adv-x="594" 
d="M842 502q0 -26 -28 -62t-73 -67q-43 -31 -94.5 -54t-123.5 -44q20 35 34 56.5t29 41.5q25 34 54.5 62t59 48.5t58 31.5t52.5 11q14 0 23 -7t9 -17zM216 9q-42 13 -66 17.5t-51 4.5q-74 0 -74 -30q0 -31 81 -31q19 0 35 1.5t32 3.5q31 6 66 19q26 -8 60 -15.5t72 -7.5
q24 0 45 5t45 19t55.5 39.5t76.5 66.5v8q-48 -43 -80 -69t-55 -40t-43 -18.5t-44 -4.5q-25 0 -58.5 6t-64.5 16q38 18 67 36t54 39t47.5 47.5t46.5 61.5l112 30l4 7l-110 -29q21 31 31 46.5t18 29.5q32 9 57.5 17.5t47.5 17t40.5 17.5t36.5 19q32 18 59 39.5t46.5 43
t30.5 42.5t11 39q0 14 -9.5 22t-24.5 8q-83 0 -213 -124q-17 -16 -32 -31t-29.5 -32t-30.5 -37t-35 -46q-29 -6 -50 -9t-47 -3q-69 0 -107.5 26t-38.5 73q0 50 46.5 92.5t125.5 66.5q15 4 28 7t27.5 5t32 3.5t40.5 2.5v5q-21 -1 -46 -2.5t-53.5 -7t-58.5 -15.5t-61 -28
q-92 -54 -92 -128q0 -49 41 -78t111 -29q23 0 46 2.5t52 9.5l-51 -71l-121 -33l-4 -8l119 32q-25 -35 -45.5 -61t-40.5 -45.5t-41.5 -35t-47.5 -30.5zM32 0q0 11 16.5 17.5t42.5 6.5q51 0 133 -25q-47 -22 -119 -22q-35 0 -54 6t-19 17z" />
    <glyph glyph-name="lslash" unicode="&#x142;" horiz-adv-x="156" 
d="M295 397q-8 -9 -18 -19.5t-24 -26.5l-40 -44l-35 -36l-69 -21l-4 -9l62 19q-14 -14 -21 -21.5t-13 -12.5l-139 -121v-8q56 51 91 80t40 32l-38 -44q-2 -2 -4.5 -5t-4.5 -5l-17 -18q-25 -28 -37 -43t-20 -32q-15 -27 -15 -43q0 -9 6 -15.5t14 -6.5q10 0 24.5 8t30.5 20
t33 26.5t32 28.5q1 1 7.5 6t18.5 15v8q-2 -2 -7.5 -6.5t-10.5 -8.5l-23 -21q-38 -33 -65 -51.5t-41 -18.5q-9 0 -9 10q0 6 11.5 20t39.5 46q1 2 4 5l168 187l85 23l9 11l-85 -24l129 145l-40 -1z" />
    <glyph glyph-name="onesuperior" unicode="&#xb9;" horiz-adv-x="198" 
d="M129 258q19 7 38.5 16t54.5 28q11 6 16 8.5l13 6.5l-141 -136h38l137 161h-8q-18 -12 -39 -24t-42 -22.5t-39 -19t-30 -12.5z" />
    <glyph glyph-name="Eth" unicode="&#xd0;" horiz-adv-x="677" 
d="M605 202l4 7h-63q31 54 51.5 88.5t37 58t32.5 40.5t39 36q9 -23 12 -36.5t3 -33.5q0 -37 -12 -80t-34.5 -85.5t-55 -82t-73.5 -69.5t-90.5 -48t-105.5 -18q-48 0 -91 15q88 24 161 77t121 131h64zM518 454q-3 -42 -12.5 -71t-29.5 -61q-20 -30 -44 -54.5t-51 -42t-55 -27
t-55 -9.5t-43.5 16t-16.5 42q0 25 11.5 55.5t33 61.5t51.5 60t67 52t79.5 36.5t89.5 13.5q59 0 95 -19.5t65 -67.5q-47 -39 -95 -93.5t-105 -137.5h-75l-5 -7h75l-9 -12q-32 -46 -58.5 -77.5t-53.5 -53t-58 -35.5t-71 -26q-24 9 -42.5 15t-34.5 9.5t-30.5 5t-29.5 1.5
q-30 0 -47 -7.5t-17 -21.5q0 -11 20 -18t55 -7q15 0 30.5 1t31.5 3q30 4 64 12q27 -8 50 -12t52 -4q61 0 112.5 19.5t93.5 51.5t74 72.5t53.5 83.5t32.5 84t11 74q0 20 -3 36t-12 42q13 10 23.5 18t21.5 14.5t24 13t30 14.5l-2 6q-34 -15 -57 -28.5t-43 -30.5
q-15 24 -31.5 41t-36 27.5t-43 15.5t-53.5 5q-66 0 -128.5 -23t-110.5 -61t-77 -86.5t-29 -100.5q0 -36 20 -58t54 -22q42 0 86.5 23t81 61.5t59.5 87.5t21 100h-4zM237 -6q-31 -8 -59 -11.5t-64 -3.5q-29 0 -45.5 5.5t-16.5 14.5q0 11 16.5 17t45.5 6q15 0 28.5 -1.5
t27.5 -4.5t30.5 -8.5t36.5 -13.5z" />
    <glyph glyph-name="onehalf" unicode="&#xbd;" horiz-adv-x="302" 
d="M145 258q12 4 22.5 8.5t22.5 10t26 12.5t32 17l13 6l-135 -131h43l133 161h-8q-30 -20 -71 -41t-80 -38zM-15 27l3 -6l391 265l-4 6zM187 89q-9 -11 -20.5 -19.5t-17.5 -8.5q-8 0 -8 8q0 6 7.5 15.5t18.5 18t23 15t22 6.5q16 0 16 -12q0 -4 -3 -12t-13.5 -20t-31 -28
t-56.5 -37q-27 -16 -40 -24.5t-24 -19.5h12q11 11 21 11q3 0 10.5 -1.5t16 -4t15.5 -4t10 -1.5q26 0 58 35l-6 6q-11 -11 -18.5 -16.5t-15.5 -5.5q-5 0 -19.5 4.5t-19.5 4.5q-4 -1 -7 -1q-2 0 -7 -1q11 8 21 12.5t31 12.5q37 14 61 31.5t24 47.5t-30 30q-13 0 -28 -6.5
t-27.5 -16.5t-20.5 -20.5t-8 -19.5q0 -13 14 -13q13 0 22.5 8t21.5 22z" />
    <glyph glyph-name="Thorn" unicode="&#xde;" horiz-adv-x="563" 
d="M475 346q-13 -35 -23 -57t-23 -41q-19 -31 -45 -57.5t-54.5 -46t-58 -31t-54.5 -11.5q-22 0 -37.5 17t-15.5 40q0 26 14.5 55.5t39.5 58t59.5 55t75 46.5t85 32t89.5 12q37 0 70 -16q-17 -19 -30 -35.5l-26 -33t-25.5 -34.5t-27.5 -40l-20 -29q-26 -38 -58.5 -81.5
t-74.5 -81t-94.5 -62t-117.5 -24.5q-38 0 -62.5 15t-24.5 38q0 6 2 12t5 8q7 -23 24 -23q19 0 19 20q0 9 -6 15.5t-16 6.5q-14 0 -24 -11.5t-10 -28.5q0 -27 26.5 -44t68.5 -17q35 0 73.5 9t76.5 25t72.5 39t62.5 50q14 14 27.5 30t27.5 36.5t29.5 47t34.5 61.5l13 24
q10 18 18.5 32t16.5 25.5t16 22t18 22.5q24 -16 34.5 -33.5t10.5 -41.5q0 -27 -11.5 -53t-27.5 -47t-33.5 -33.5t-30.5 -12.5q-11 0 -17.5 6.5t-6.5 16.5q0 51 95 84l-3 7q-19 -6 -36.5 -15t-31.5 -21t-22.5 -26.5t-8.5 -30.5q0 -12 9 -21t22 -9q21 0 42 13t37.5 34t27 47.5
t10.5 52.5q0 50 -53 90q20 22 38.5 39.5t38 31.5t42 27t50.5 26l-2 7q-29 -13 -51.5 -25.5t-43 -27t-41 -31.5t-44.5 -40q-20 8 -39 11.5t-42 3.5q-71 0 -137 -27.5t-117 -68t-81.5 -87.5t-30.5 -85q0 -26 18 -44t45 -18q48 0 101.5 32.5t96.5 87.5q11 14 19.5 27t15.5 28
t13.5 33.5t14.5 42.5h-6z" />
    <glyph glyph-name="onequarter" unicode="&#xbc;" horiz-adv-x="302" 
d="M150 256q9 4 23.5 10.5t31 15l33 17t31.5 16.5l-138 -134h42l133 161h-9q-30 -21 -72.5 -43t-79.5 -37zM-14 26l5 -5l390 266l-4 5zM71 16l2 -7q10 3 18 4t21 1q11 0 17.5 -0.5t12.5 -2.5l-45 -41h42l32 41q13 0 24.5 3t14.5 5v7q-15 -4 -21.5 -5.5t-11.5 -1.5l29 37
l-7 5l-48 -43q-5 0 -20 1.5t-19 1.5q-8 0 -13.5 -0.5t-13.5 -2.5l149 112h-44z" />
    <glyph glyph-name="brokenbar" unicode="&#xa6;" horiz-adv-x="484" 
d="M255 -175h25v350h-25v-350zM255 325h25v350h-25v-350z" />
    <glyph glyph-name="thorn" unicode="&#xfe;" horiz-adv-x="292" 
d="M291 110q-41 -38 -69.5 -60.5t-47.5 -34t-29 -14.5t-13 -3q-13 0 -13 12q0 6 5 12t21 19q43 32 61.5 57t18.5 48q0 9 -5.5 15t-15.5 6q-14 0 -41.5 -16t-57.5 -36.5t-56 -40.5t-37 -28l344 375h-44q-57 -63 -118.5 -127t-138.5 -134l-61 -54v-8q29 25 81.5 74t127.5 121
l-456 -516h43l192 225q25 29 59 57.5t67 51t59 36.5t34 14q10 0 10 -11q0 -5 -4 -10.5t-17 -16.5q-81 -70 -81 -109q0 -9 6.5 -15.5t14.5 -6.5q12 0 29.5 9t37 22.5t39.5 30t37 31.5l18 17v8z" />
    <glyph glyph-name="threequarters" unicode="&#xbe;" horiz-adv-x="302" 
d="M185 254q12 5 17.5 6.5t10.5 1.5q8 0 8 -6q0 -8 -10.5 -20t-26.5 -23t-33.5 -18.5t-30.5 -7.5q-8 0 -13.5 3t-5.5 7q0 2 1 3q4 -2 6 -2q9 0 9 12t-13 12q-16 0 -16 -17q0 -11 11 -17.5t31 -6.5q22 0 42.5 5.5t36.5 15t25.5 21.5t9.5 25q0 12 -13 21q34 11 51.5 20
t17.5 28q0 25 -41 25q-27 0 -48 -12t-21 -27q0 -14 17 -14q19 0 40 20l-4 4q-2 -1 -8 -5q-8 -8 -14 -10.5t-12 -2.5q-12 0 -12 10q0 3 5 8.5t13 10t18 8t21 3.5q22 0 22 -17q0 -12 -18.5 -24t-60.5 -27q-5 -2 -8 -3t-7 -3zM-9 28l3 -7l391 265l-4 5zM75 16l1 -6q11 2 18 3
t22 1q13 0 18 -0.5t12 -2.5l-47 -41h44l31 40q9 0 22 3t19 7l-3 5q-3 0 -13.5 -3t-14.5 -3h-3l29 37l-8 5l-49 -43q-17 1 -35 2t-27 0l149 111h-45z" />
    <glyph glyph-name="twosuperior" unicode="&#xb2;" horiz-adv-x="198" 
d="M200 299q-14 -14 -22.5 -21t-16.5 -7t-8 9q0 6 8 15.5t19.5 18.5t24 15t21.5 6q16 0 16 -12q0 -14 -12.5 -28.5t-29.5 -28t-34.5 -24.5t-27.5 -17q-26 -14 -38.5 -23t-25.5 -20h9q10 10 21 10q3 0 11 -1.5t17 -3.5t17 -3.5t11 -1.5q14 0 26.5 8t29.5 27l-5 4
q-14 -13 -20.5 -17t-14.5 -4q-3 0 -8.5 1t-12 2.5t-12.5 3t-8 1.5q-5 0 -7.5 -0.5l-7.5 -1.5q10 8 20 12.5t31 12.5q48 17 68 35.5t20 44.5q0 30 -28 30q-13 0 -28 -7t-27.5 -17t-20.5 -20.5t-8 -17.5q0 -13 13 -13t22.5 8t21.5 22z" />
    <glyph glyph-name="minus" unicode="&#x2212;" horiz-adv-x="667" 
d="M113 212h522v35h-522v-35z" />
    <glyph glyph-name="eth" unicode="&#xf0;" horiz-adv-x="260" 
d="M-17 24q0 9 17 32.5t41 47.5t49.5 43t43.5 19q10 0 16.5 -6t6.5 -14q-4 -24 -21.5 -49.5t-40.5 -46t-47.5 -34t-42.5 -13.5q-22 0 -22 21zM287 353l-52 -18v-8l48 15q-11 -35 -22 -63.5t-24.5 -54t-31.5 -50.5t-42 -53q1 5 1.5 8.5t0.5 7.5q0 16 -9 25.5t-24 9.5
q-20 0 -48.5 -10.5t-55 -28.5t-45.5 -42t-19 -51q0 -19 11 -30.5t28 -11.5q25 0 65 19.5t82 61.5t80.5 108t62.5 159l65 21v9l-62 -21l17 74h-7z" />
    <glyph glyph-name="multiply" unicode="&#xd7;" horiz-adv-x="667" 
d="M328 228l-210 -209l25 -24l210 209l209 -209l25 24l-209 209l211 212l-25 25l-210 -212l-212 212l-24 -25z" />
    <glyph glyph-name="threesuperior" unicode="&#xb3;" horiz-adv-x="198" 
d="M169 256q11 4 16.5 5.5t10.5 1.5q9 0 9 -6q0 -9 -10.5 -21t-26 -23t-33 -18.5t-32.5 -7.5q-11 0 -18 6t-3 9q1 -3 7 -3q9 0 9 11t-11 11q-6 0 -10.5 -4.5t-4.5 -11.5q0 -24 39 -24q22 0 42.5 5.5t36.5 15t26 21.5t10 24q0 13 -12 22q26 8 47.5 18t21.5 30q0 24 -37 24
q-29 0 -51 -11.5t-22 -26.5q0 -14 16 -14q18 0 40 20l-3 3q-14 -8 -22.5 -12.5t-13.5 -4.5q-11 0 -11 9q0 4 5.5 9.5t13.5 10t18.5 8t21.5 3.5q23 0 23 -17q0 -26 -85 -54q-4 -2 -6 -2t-4 -1z" />
    <glyph glyph-name="Scaron" unicode="&#x160;" horiz-adv-x="542" 
d="M534 265q12 25 23 45t21 36.5t20 31t22 28.5q21 26 45 48t48 37.5t46.5 24.5t40.5 9q21 0 21 -18q0 -5 -6 -21.5t-26.5 -42.5t-58.5 -60t-102 -72q-34 -20 -54 -30t-40 -16zM531 257q52 19 105 51t95 68t68.5 72t26.5 62q0 21 -28 21q-52 0 -129.5 -64t-162.5 -192
q-7 -11 -10 -15.5l-7 -10.5q-65 -20 -118 -20q-57 0 -93 29t-36 75q0 42 31 80.5t89 68.5q26 13 50 22t48.5 15t51.5 9t59 3v6q-74 0 -136.5 -18.5t-107.5 -48.5t-70.5 -67t-25.5 -74q0 -23 10.5 -43t29.5 -34t45.5 -22t57.5 -8q23 0 47 4t62 15q-54 -95 -103.5 -148.5
t-92.5 -79t-79.5 -31t-64.5 -5.5q-51 0 -80.5 13.5t-29.5 37.5q0 8 3 8q2 0 5 -3q5 -4 10 -4q15 0 15 14q0 15 -17 15q-24 0 -24 -28q0 -29 28.5 -44.5t82.5 -15.5q83 0 154.5 33t137.5 101q13 14 24.5 27t22 28.5t21.5 34.5t25 44zM794 630q29 23 64 44t86 45h-14
q-47 -22 -75 -37.5t-50 -31.5q-5 31 -14 69h-6q-1 -19 -6 -38.5t-16 -50.5h31z" />
    <glyph glyph-name="Yacute" unicode="&#xdd;" horiz-adv-x="448" 
d="M364 464q-23 -46 -51.5 -74t-56 -43t-51.5 -19.5t-36 -4.5q-20 0 -32 11t-12 30q0 28 20 56.5t52 51.5t71.5 38t78.5 15q32 0 51 -15t19 -40q0 -28 -20 -59.5t-68 -79.5q-47 -47 -72.5 -79t-38 -54t-15 -35.5t-2.5 -23.5q0 -33 39 -33q38 0 87 28.5t106 84.5
q-6 -10 -22 -30.5t-36 -44t-41 -47.5t-37 -41q-35 -38 -79 -58t-91 -20q-40 0 -63.5 16.5t-23.5 44.5q0 8 3 14t8 8q3 -17 17 -17q16 0 16 15q0 16 -19 16q-15 0 -24 -10t-9 -28q0 -29 26 -47.5t68 -18.5t79.5 13.5t74 40t74 64t79.5 85.5l273 308h-43l-197 -220
q-63 -70 -123.5 -110t-105.5 -40q-12 0 -20 6t-8 16q0 8 8 21t20.5 29t29 34t34.5 36l39 40q24 25 40.5 46t27 40t15 37t4.5 37q0 37 -22 57t-64 20q-39 0 -78.5 -15.5t-71.5 -39.5t-52.5 -54t-20.5 -59q0 -20 13.5 -33t36.5 -13q35 0 75.5 18.5t72.5 49.5q9 8 15.5 16
t12.5 16.5t11.5 19.5l12.5 25zM581 589q24 13 42 24.5t32.5 21.5t26 20.5t22.5 22.5h-53q-15 -26 -34 -47t-48 -42h12z" />
    <glyph glyph-name="Zcaron" unicode="&#x17d;" horiz-adv-x="542" 
d="M549 413q54 51 102.5 81t73.5 30q15 0 15 -12q0 -15 -38 -41t-74.5 -39.5t-78.5 -18.5zM435 429q-40 -42 -75 -60t-77 -18q-32 0 -49.5 14t-17.5 38t15 46t40 38.5t58 26.5t69 10q34 0 54.5 -9.5t20.5 -24.5q0 -4 -1 -8t-4 -12q-7 -15 -7 -25q0 -38 68 -40q-3 -4 -12 -12
t-19.5 -16.5t-19.5 -16t-12 -10.5l-65 -56q-11 2 -17 2q-5 0 -16 1q-33 -2 -50.5 -8.5t-33.5 -23.5l6 -3q13 12 24 17t25 5q11 0 19.5 -2t23.5 -7l-72 -75l-100 -106l-15 -6q-81 -33 -124.5 -61.5t-43.5 -48.5q0 -9 10 -9q7 0 21 6q17 7 54 34t79 61q17 14 32.5 22.5
t32.5 13.5q16 5 33.5 10t39.5 10q20 5 45 5q38 0 38 -21q0 -9 -6.5 -17.5t-23.5 -20.5q-27 -19 -38 -37t-11 -41q0 -24 25 -24q15 0 34.5 10t42 27t46.5 38.5t48 45.5l12 10v8q-69 -64 -111.5 -98.5t-71.5 -34.5q-17 0 -17 10q0 14 29 38q51 42 51 80q0 33 -48 33
q-15 0 -34 -3.5t-38.5 -8.5t-38.5 -11t-33 -12l21 18q26 22 71 61t94 87q25 -2 42.5 -1t30.5 4.5t22 9t17 11.5l-4 4q-16 -8 -25.5 -11t-24.5 -4q-11 1 -18 2t-21 5l108 119q34 3 70.5 15t65.5 28t48 33t19 31q0 16 -17 16q-16 0 -36 -9t-42.5 -23.5t-47 -33t-48.5 -38.5
l-18 -15h-5q-49 0 -49 22q0 6 4 15q6 16 6 25q0 26 -25.5 41t-71.5 15q-38 0 -71.5 -10.5t-59 -27.5t-40.5 -40t-15 -48q0 -27 20 -43t54 -16q83 0 158 81zM584 630q29 23 64 44t86 45h-14q-47 -22 -75 -37.5t-50 -31.5q-5 31 -14 69h-6q-1 -19 -6 -38.5t-16 -50.5h31z" />
    <glyph glyph-name="scaron" unicode="&#x161;" horiz-adv-x="208" 
d="M-6 105v-8l112 96q8 -12 11 -22t3 -24q0 -24 -11.5 -49t-29 -45.5t-39 -33.5t-42.5 -13q-14 0 -23 6t-9 16q0 4 4 7q1 -5 6 -9t11 -4q17 0 17 15q0 16 -19 16q-13 0 -21 -7.5t-8 -18.5q0 -14 11 -21.5t31 -7.5q13 0 32.5 4.5t40.5 14.5t39.5 25.5t28.5 37.5q5 -1 9 -1h7
q14 0 25.5 5.5t26.5 16.5v8q-28 -23 -52 -23q-3 0 -5.5 -0.5t-6.5 1.5q2 8 2 13t1 14q-2 26 -8.5 43t-22.5 42q1 0 5.5 2.5t9 6t8.5 7.5t4 8q0 8 -10 8q-3 0 -8 -5t-10.5 -11.5t-10 -12.5t-6.5 -8q-23 -20 -41.5 -35.5t-29.5 -25.5zM168 273q29 23 64 44t86 45h-14
q-47 -22 -75 -37.5t-50 -31.5q-5 31 -14 69h-6q-1 -19 -6 -38.5t-16 -50.5h31z" />
    <glyph glyph-name="yacute" unicode="&#xfd;" horiz-adv-x="323" 
d="M-6 97q8 7 21.5 19t28.5 23t30 19.5t25 8.5t10 -9t-9.5 -20t-32.5 -28q-35 -26 -49 -47.5t-14 -45.5q0 -9 5 -14.5t13 -5.5q12 0 30.5 8.5t42 23.5t50.5 36t55 45l1 -1l-9 -11q-15 -16 -30 -33.5l-30 -35t-29 -34t-25 -30.5q-75 -34 -125 -65t-80.5 -57t-43.5 -46
t-13 -32q0 -26 31 -28q23 0 54.5 20.5t67 53.5t73.5 74.5t74 83.5l9 10q34 14 60 26t48 26t43 30.5t46 39.5v8q-27 -24 -49 -41t-43 -30.5t-43.5 -24.5t-50.5 -22l159 180h-41q-12 -14 -17.5 -20t-15.5 -16q-21 -20 -51.5 -43.5t-74.5 -52.5q-18 -12 -29 -19t-18.5 -10.5
t-12.5 -5t-10 -1.5q-8 0 -8 8q0 6 9.5 17.5t32.5 31.5q28 24 43 48.5t15 44.5q0 8 -4.5 14t-10.5 6q-17 0 -41.5 -16.5t-66.5 -51.5v-8zM71 -45q-19 -25 -38 -48l-38 -46q-53 -63 -88 -90t-62 -27q-20 0 -20 20q0 22 25 48.5t62.5 52t80 49t78.5 41.5zM199 232
q24 13 42 24.5t32.5 21.5t26 20.5t22.5 22.5h-53q-15 -26 -34 -47t-48 -42h12z" />
    <glyph glyph-name="zcaron" unicode="&#x17e;" horiz-adv-x="211" 
d="M-6 105v-8l61 52q9 -12 29 -12q8 0 14 1t19 3l-111 -93q-21 -12 -38 -23.5t-17 -21.5q0 -5 5 -5q6 0 24 18q17 17 37 29t49 12q11 0 11 -3q0 -5 -8 -11q-18 -15 -18 -29q0 -16 17 -16q11 0 27 9.5t35 24.5t39.5 33t40.5 36v8q-3 -2 -6 -4.5l-9 -7.5q-14 -13 -31 -28.5
t-33.5 -29t-30 -22.5t-20.5 -9q-3 0 -3 3q0 2 2.5 6t5.5 8q10 11 10 18q0 21 -26 21q-18 0 -45 -8l106 89q30 8 47 19t17 22q0 5 -6 5q-4 0 -11 -4t-24 -17l-17 -14q-8 -6 -21.5 -9.5t-28.5 -3.5q-21 0 -32 17q2 0 9.5 -2t9.5 -2q17 0 17 14q0 13 -14 13q-15 0 -21 -10
t-4 -21zM169 224q29 23 64 44t86 45h-14q-47 -22 -75 -37.5t-50 -31.5q-5 31 -14 69h-6q-1 -19 -6 -38.5t-16 -50.5h31z" />
    </font>
</defs>
</svg>
